<?xml version="1.0" encoding="utf-8"?>
<!-- Generator: Adobe Illustrator 17.0.0, SVG Export Plug-In . SVG Version: 6.00 Build 0)  -->
<!DOCTYPE svg PUBLIC "-//W3C//DTD SVG 1.1//EN" "http://www.w3.org/Graphics/SVG/1.1/DTD/svg11.dtd">
<svg version="1.1" id="Layer_1" xmlns="http://www.w3.org/2000/svg" xmlns:xlink="http://www.w3.org/1999/xlink" x="0px" y="0px"
	 width="147.494px" height="147.497px" viewBox="0 0 147.494 147.497" enable-background="new 0 0 147.494 147.497"
	 xml:space="preserve">
<path fill="#FFFFFF" d="M125.876,21.611c-28.815-28.815-75.501-28.815-104.285,0C-6.12,49.322-7.162,93.647,18.496,122.616
	l0.767,0.614c-2.791,6.008-7.573,13.426-15.175,17.165c-2.513,1.227-1.931,4.966,0.828,5.396c8.307,1.287,20.232-0.154,31.359-8.552
	l0.154,0.122c28.262,16.614,65.231,12.814,89.508-11.465C154.69,97.112,154.69,50.395,125.876,21.611L125.876,21.611z
	 M98.042,105.296c-1.624,1.656-3.341,3.189-4.874,4.905c-2.237,2.513-5.058,3.309-8.245,3.127
	c-4.659-0.245-8.982-1.809-13.121-3.832c-9.226-4.477-17.104-10.699-23.695-18.546c-4.874-5.794-8.889-12.108-11.556-19.25
	c-1.288-3.465-2.207-6.99-1.931-10.729c0.184-2.299,1.043-4.261,2.729-5.886c1.839-1.748,3.556-3.556,5.364-5.334
	c2.361-2.329,5.303-2.299,7.663,0c1.472,1.442,2.881,2.881,4.323,4.323c1.41,1.41,2.82,2.788,4.198,4.199
	c2.453,2.483,2.453,5.364,0,7.847c-1.747,1.779-3.493,3.556-5.303,5.273c-0.46,0.459-0.521,0.827-0.276,1.41
	c1.165,2.82,2.881,5.334,4.783,7.663c3.831,4.721,8.184,8.921,13.396,12.17c1.103,0.705,2.329,1.194,3.494,1.838
	c0.582,0.338,1.012,0.216,1.471-0.276c1.748-1.808,3.556-3.586,5.335-5.365c2.36-2.329,5.303-2.329,7.632,0
	c2.883,2.852,5.733,5.702,8.584,8.583C100.464,99.932,100.464,102.875,98.042,105.296L98.042,105.296z M70.853,57.661l0.919-6.561
	c6.345,0.889,12.109,3.771,16.646,8.307c4.321,4.323,7.141,9.748,8.152,15.725l-6.529,1.135c-0.796-4.628-2.974-8.828-6.315-12.169
	C80.202,60.572,75.756,58.334,70.853,57.661L70.853,57.661z M107.238,75.132c-1.471-8.582-5.517-16.369-11.679-22.561
	c-6.498-6.499-14.743-10.606-23.848-11.894l0.92-6.56c10.514,1.471,20.079,6.224,27.588,13.764
	c7.143,7.143,11.834,16.185,13.55,26.118L107.238,75.132z M107.238,75.132"/>
</svg>
