<?xml version="1.0" standalone="no"?>
<!DOCTYPE svg PUBLIC "-//W3C//DTD SVG 1.1//EN" "http://www.w3.org/Graphics/SVG/1.1/DTD/svg11.dtd" >
<svg>
<metadata>
Created by FontForge 20090914 at Mon Aug 28 02:41:14 2017
 By www-data
Generated by Fontographer 3.5
</metadata>
<defs>
<font id="VnAristoteMedium" horiz-adv-x="1991" >
  <font-face 
    font-family=".VnAristote"
    font-weight="500"
    font-stretch="normal"
    units-per-em="4096"
    panose-1="2 11 114 0 0 0 0 0 0 0"
    ascent="3276"
    descent="-820"
    x-height="1343"
    cap-height="2343"
    bbox="-512 -814.999 4309 3314"
    underline-thickness="20"
    underline-position="-140"
    unicode-range="U+0020-U+2219"
  />
<missing-glyph horiz-adv-x="3072" 
d="M512 0v2560h2048v-2560h-2048zM2494 66v2428h-1916v-2428h1916z" />
    <glyph glyph-name=".notdef" horiz-adv-x="3072" 
d="M512 0v2560h2048v-2560h-2048zM2494 66v2428h-1916v-2428h1916z" />
    <glyph glyph-name="space" unicode=" " horiz-adv-x="991" 
 />
    <glyph glyph-name="exclam" unicode="!" horiz-adv-x="1065" 
d="M352 537c-90 0 -159.667 -27.333 -209 -82c-48.667 -57.333 -73 -125.666 -73 -204.999c0 -76.667 24.333 -142.334 73 -197.001c49.333 -57.333 119 -86 209 -86c87.333 0 154.333 27.333 201 82s70 121.667 70 201c0 70.667 -24.667 136 -74 196
c-49.333 60.667 -115 91 -197 91zM528 2208l-118 -1454l61 -9l762 1573z" />
    <glyph glyph-name="quotedbl" unicode="&#x22;" horiz-adv-x="1393" 
d="M1266 1393l487 925h-545l-159 -925h-426l487 925h-549l-151 -925h213h643z" />
    <glyph glyph-name="numbersign" unicode="#" horiz-adv-x="1946" 
d="M1327 791h352l82 217h-352l119 352h360l74 217h-352l254 741h-246l-258 -741h-361l258 741h-249l-254 -741h-385l-74 -217h385l-119 -352h-393l-82 -217h393l-278 -799h245l275 799h360l-274 -799h250zM1167 1008h-376l131 352h360z" />
    <glyph glyph-name="dollar" unicode="$" horiz-adv-x="1946" 
d="M1442 2535l-66.001 -158.997c-278.667 0 -509.334 -56 -692.001 -168c-226.667 -136.667 -340 -333.334 -340 -590.001c0 -122.667 37 -229.334 111 -320.001c73.333 -90 215.333 -197.667 426 -323l-312 -889c-117.333 22 -203.333 82 -258 180
c-57.333 98.667 -86 212 -86 340c0 16.667 -10.667 25 -32 25c-36 0 -75.667 -31.333 -119 -94c-44 -66 -66 -122 -66 -168c0 -106.667 63 -197 189 -271c76 -43.333 186.333 -81.333 331 -114l-90 -263h123l94 254c262.667 0 495 63 697 189c240 150 360 349.333 360 598
c0 150 -56 285 -168 405c-73.333 79.333 -196 173.666 -368 282.999l286 807c196.667 -74 307.334 -216 332.001 -426l16 -33l17 -4c18.667 0 44.667 35.667 78 107c32.667 68 49 117 49 147c0 82 -33 147.667 -99 197c-65.333 48.667 -182.666 89.334 -351.999 122l66 168
h-127zM679.999 74.0029l303 831.002c104 -62.667 181.833 -126.834 233.5 -192.501s77.5 -137.834 77.5 -216.501c0 -112 -53 -211.667 -159 -299c-106.667 -82 -236.667 -123 -390 -123h-65zM1343 2281l-270 -778c-109.333 74 -183 141 -221 201
c-40.667 57.333 -61 121.333 -61 192c0 139.333 61.333 242 184 308c103.333 51.333 226 77 368 77z" />
    <glyph glyph-name="percent" unicode="%" horiz-adv-x="2802" 
d="M2232 2105l-1769 -2105l192 -8l1778 2113h-201zM2646 799c0 142 -39.667 252.333 -119 331c-76 84.667 -182.333 127 -319 127c-172 0 -325 -80.333 -459 -241c-136.667 -164 -205 -354 -205 -570c0 -302.667 140.667 -454 422 -454c191.333 0 352.333 84.667 483 254
c131.333 166.667 197 351 197 553zM1937 66c-76 0 -114 42.332 -114 126.999c0 81.333 24.333 204 73 368c49.333 164 111 315.667 185 455c57.333 112 118.666 168 184 168c74 0 111 -45 111 -135c0 -123.333 -45 -307.666 -135 -552.999
c-104 -286.667 -205.333 -430 -304 -430zM1335 1638c0 142 -38.166 254 -114.499 336s-181.5 123 -315.5 123c-180 0 -337 -80.667 -471 -242c-134 -163.333 -201 -354.333 -201 -573c0 -300.667 140.667 -451 422 -451c191.333 0 352.666 84.667 483.999 254
c130.667 166.667 196 351 196 553zM631.001 896.999c-74 0 -111 42.333 -111 127c0 74 11 156 33 246c22 87.333 59 199.333 111 336c106 278 201.333 417 286 417c76.667 0 115 -45 115 -135c0 -106 -45 -289 -135 -549c-104 -294.667 -203.667 -442 -299 -442z" />
    <glyph glyph-name="ampersand" unicode="&#x26;" horiz-adv-x="2249" 
d="M1815 1176v-58c0 -130.667 -34.333 -285 -103 -463l-303 611c256.667 114.667 385 260.667 385 438c0 70.667 -30 130.667 -90 180c-60 46.667 -138 70 -234 70c-177.333 0 -322 -43.667 -434 -131c-114.667 -90 -172 -210.333 -172 -361c0 -30 1.33301 -60 4 -90
s8.33398 -58.667 17.001 -86l53 -143c-551.333 -139.333 -827 -374.333 -827 -705c0 -130.667 51.667 -237 155 -319c101.333 -84.667 236.666 -127 405.999 -127c259.333 0 483 95.667 671 287l160 -328l463 192l-213 443c60 100.667 105 185.167 135 253.5
s64.333 180.5 103 336.5h-176zM950 1090l368.999 -754c-139.333 -139.333 -274.666 -209 -405.999 -209c-90 0 -161 30 -213 90c-51.333 60 -77 142 -77 246c0 202 109 411 327 627zM1393 1311l-66.001 167.999c-16 57.333 -24 116 -24 176c0 73.333 15 133.333 45 180
s68 70 114 70c38.667 0 74.334 -18 107.001 -54c27.333 -35.333 41 -79 41 -131c0 -155.333 -72.333 -291.666 -217 -408.999z" />
    <glyph glyph-name="quotesingle" unicode="'" horiz-adv-x="770" 
d="M623 1393l487 925h-549l-151 -925h213z" />
    <glyph glyph-name="parenleft" unicode="(" horiz-adv-x="1176" 
d="M1393 2343c-398.667 -213.333 -711.334 -490.668 -938.001 -832.001c-246 -365.333 -369 -765.333 -369 -1200c0 -289.333 83.333 -608.666 250 -957.999l41 16c0 431.333 107.667 942 323 1532c202.667 565.333 444.334 1035 725.001 1409z" />
    <glyph glyph-name="parenright" unicode=")" horiz-adv-x="1327" 
d="M-193 -647c399.333 221.333 710.667 499.667 934 835c243.333 366 365 767.667 365 1205c0 84.667 -4.16699 161 -12.5 229s-23.166 141.667 -44.499 221c-33.333 139.333 -95 306 -185 500l-49 -8c-40.667 -450.667 -159.334 -962.667 -356.001 -1536
c-208 -606.667 -441.667 -1077.67 -701 -1413z" />
    <glyph glyph-name="asterisk" unicode="*" horiz-adv-x="1360" 
d="M913 1778l-158.997 -57.999l-176 -49c-112 -16 -168 -63.667 -168 -143c0 -44 19 -85 57 -123c38 -41.333 77.667 -62 119 -62c52 0 117.333 56 196 168l156 234l-16 -152l-17 -192c0 -44 1.33301 -75.5 4 -94.5s13.667 -43.5 33 -73.5
c19.333 -32.667 57.666 -49 114.999 -49c52 0 94.333 13.667 127 41s51.667 64 57 110c0 44 -37 113.667 -111 209l-163 209l196 -86c98.667 -40.667 178 -61 238 -61c40.667 0 74.667 12 102 36c27.333 24.667 41 67 41 127c0 52 -11 90.333 -33 115
c-24 24.667 -59.333 37 -106 37c-54.667 0 -139.334 -22 -254.001 -66l-184 -69l176 209c82 98 123 166.333 123 205c0 35.333 -19.333 69.333 -58 102c-40.667 32.667 -85.667 49 -135 49c-54.667 0 -93 -21.667 -115 -65c-24 -44 -36 -101.333 -36 -172l4 -132l16 -118
l-4 -66l-164 254c-70.667 104 -129.334 156 -176.001 156c-40.667 0 -79 -19.333 -115 -58c-38 -40.667 -57 -85.667 -57 -135c0 -62.667 65.667 -117.334 197 -164.001z" />
    <glyph glyph-name="plus" unicode="+" horiz-adv-x="1946" 
d="M74 848h708l-254 -729h263l249 729h721l70 233h-713l250 725h-250l-254 -725h-721z" />
    <glyph glyph-name="comma" unicode="," horiz-adv-x="1065" 
d="M74 160l28 -58.001l41 9c90.667 0 136 -56 136 -168c0 -172 -93 -329 -279 -471l33 -50c76 44 152.333 94.667 229 152c74 54.667 145 113.334 213 176.001c186 172 279 319.667 279 443c0 78.667 -53.333 166 -160 262z" />
    <glyph glyph-name="hyphen" unicode="-" horiz-adv-x="770" 
d="M655 799h-680l-168 -221h689z" />
    <glyph glyph-name="period" unicode="." horiz-adv-x="1065" 
d="M463 537c-90 0 -159.666 -27.333 -208.999 -82c-49.333 -57.333 -74 -125.666 -74 -204.999c0 -76.667 24.667 -142.334 74 -197.001c49.333 -57.333 119 -86 209 -86c87.333 0 154.166 27.333 200.499 82s69.5 121.667 69.5 201c0 70.667 -24.667 136 -74 196
c-48.667 60.667 -114 91 -196 91z" />
    <glyph glyph-name="slash" unicode="/" horiz-adv-x="1393" 
d="M1384 2318l-1896 -2949h225l1897 2949h-226z" />
    <glyph glyph-name="zero" unicode="0" horiz-adv-x="1946" 
d="M1864 1282c0 221.333 -60.333 400.333 -181 537c-120 136 -281 204 -483 204c-306 0 -572.333 -139 -799 -417c-210 -265.333 -315 -555 -315 -869c0 -212.667 61.333 -394 184 -544c123.333 -150.667 279 -226 467 -226c308.667 0 577.667 143.333 807 430
c213.333 270.667 320 565.667 320 885zM1462 1720c0 -122.667 -43.668 -320.667 -131.001 -594c-38 -125.333 -74.833 -235.833 -110.5 -331.5s-75.167 -191.167 -118.5 -286.5c-76.667 -177.333 -145 -300.333 -205 -369c-62.667 -70.667 -132.334 -106 -209.001 -106
c-128 0 -192 87.333 -192 262c0 109.333 35.333 281.333 106 516c68.667 232 153.334 460 254.001 684c76.667 166.667 146.334 286.667 209.001 360c60 71.333 129.667 107 209 107c54.667 0 99.667 -22 135 -66c35.333 -43.333 53 -102 53 -176z" />
    <glyph glyph-name="one" unicode="1" horiz-adv-x="1946" 
d="M1712 2089l-1282 -721l-37 -151l606 335l-581 -1593l565 115z" />
    <glyph glyph-name="two" unicode="2" horiz-adv-x="1946" 
d="M496 1057l-16.9971 154.998c0 175.333 52 340.666 156 495.999c100.667 152.667 235.667 229 405 229c68.667 0 124.667 -21.667 168 -65c44 -46.667 66 -108 66 -184c0 -205.333 -95.667 -407.666 -287 -606.999c-43.333 -46 -242.666 -212.333 -597.999 -499
c-256.667 -208 -431.334 -399.333 -524.001 -574l49 -41c35.333 38.667 73.666 67.334 114.999 86.001c38 19.333 84.333 29 139 29c57.333 0 209 -24.667 455 -74c150 -27.333 255 -41 315 -41c276 0 504 123 684 369l-45 49c-19.333 -27.333 -48 -54.666 -86 -81.999
c-30 -16 -62.667 -24 -98 -24l-361 86c-120 30 -218.333 45 -295 45c-130.667 0 -260.334 -30.333 -389.001 -91c-103.333 -46 -219.333 -118.333 -348 -217c106.667 150.667 278.667 284.667 516 402c614.667 297.333 943.667 465.333 987 504
c79.333 70.667 143.666 155.334 192.999 254.001c48.667 95.333 73 192 73 290c0 150.667 -58.667 267 -176 349c-120 81.333 -281 122 -483 122c-226.667 0 -411 -57.333 -553 -172s-213 -267.334 -213 -458.001c0 -114.667 34 -235 102 -361z" />
    <glyph glyph-name="three" unicode="3" horiz-adv-x="1946" 
d="M545 1647c109.333 199.333 257.998 299.002 445.998 299.002c74 0 132.667 -18 176 -54c44 -35.333 66 -84.333 66 -147c0 -131.333 -42.333 -263.666 -127 -396.999c-95.333 -148 -207.333 -222 -336 -222c-101.333 0 -184.666 46.667 -249.999 140l-135 -324l41 -20
c95.333 90 214 135 356 135c82 0 150.333 -22 205 -66c52 -43.333 78 -110 78 -200c0 -166.667 -54.667 -329.334 -164 -488.001c-125.333 -174.667 -266 -262 -422 -262c-207.333 0 -339.666 123 -396.999 369l-107 -58l33 -278c186 -76.667 382.667 -115 590 -115
c79.333 0 144.833 2.66699 196.5 8s110.5 17.666 176.5 36.999c114.667 32.667 218.334 84.667 311.001 156c202 152.667 303 326 303 520c0 147.333 -67 255.333 -201 324c-68 35.333 -199 69.333 -393 102c204.667 0 370 31.333 496 94
c177.333 87.333 266 221.333 266 402c0 136 -57.333 241 -172 315c-117.333 70.667 -284 106 -500 106c-76 0 -160.667 -5.33301 -254 -16c-92.667 -10.667 -189.334 -28.334 -290.001 -53.001l-82 -291z" />
    <glyph glyph-name="four" unicode="4" horiz-adv-x="1946" 
d="M1937 2097l-2072 -1642h1016l-160 -496l553 107l110 360l263 -16l176 327h-336zM967 737h-607l824 664z" />
    <glyph glyph-name="five" unicode="5" horiz-adv-x="1946" 
d="M672 1999l-344.002 -925.999l57 -24c194 100.667 353.667 151 479 151c164 0 246 -69.667 246 -209c0 -199.333 -56 -397.333 -168 -594c-134 -232 -293.667 -348 -479 -348c-101.333 0 -184.666 32.667 -249.999 98c-68 63.333 -114.333 157.666 -139 282.999l-99 -45
l9 -299c70.667 -38 155.334 -69.333 254.001 -94c46 -8 93.667 -15 143 -21c46.667 -5.33301 95.667 -8 147 -8c290 0 541.333 78 754 234c232 174.667 348 399.667 348 675c0 142 -49 255.333 -147 340c-101.333 82 -243.333 123 -426 123
c-169.333 0 -359.333 -45 -570 -135l168 447h947l204 352h-1134z" />
    <glyph glyph-name="six" unicode="6" horiz-adv-x="1946" 
d="M1638 2142c-496.667 -297.333 -820.001 -507.669 -970.001 -631.002c-390.667 -316.667 -586 -627.667 -586 -933c0 -172.667 65.5 -317.667 196.5 -435s301.833 -176 512.5 -176c128 0 246.667 20.5 356 61.5s213 105.167 311 192.5c191.333 174.667 287 378 287 610
c0 150.667 -58.667 272.334 -176 365.001s-252.666 139 -405.999 139c-46 0 -80 -1.33301 -102 -4s-56.333 -12 -103 -28c98.667 142 230 296 394 462c150 150.667 298.667 276.334 446 377.001h-160zM720.999 32.9971c-54.667 0 -101 20.333 -139 61
c-8.66699 11.333 -19.667 32 -33 62c-14 27.333 -21 61.333 -21 102c0 169.333 56 371.333 168 606c128.667 273.333 262.667 410 402 410c57.333 0 102.333 -16.333 135 -49c32.667 -36 49 -86.667 49 -152c0 -106.667 -41 -267.667 -123 -483
c-84.667 -216 -166.667 -367.667 -246 -455c-62.667 -68 -126.667 -102 -192 -102z" />
    <glyph glyph-name="seven" unicode="7" horiz-adv-x="1946" 
d="M410 1393c8 35.333 21.6689 67.999 41.002 97.999l45 86c125.333 -35.333 250.666 -53 375.999 -53c183.333 0 361 30 533 90c90 32.667 176 69.334 258 110.001c82 41.333 168 93.333 258 156c-322 -264.667 -621 -561 -897 -889
c-248.667 -294.667 -494.334 -638.667 -737.001 -1032l753 176c104 254 259.667 569.333 467 946c109.333 196.667 212 368.667 308 516c92.667 148 178.667 269.667 258 365l-25 20c-98 -40.667 -204.333 -61 -319 -61c-74 0 -127.333 2.66699 -160 8
c-32.667 2.66699 -82 11 -148 25c-142 24.667 -255.333 43.667 -340 57c-84.667 14 -146 21 -184 21c-104 0 -218.667 -72.333 -344 -217c-68 -82 -154 -202.333 -258 -361z" />
    <glyph glyph-name="eight" unicode="8" horiz-adv-x="1946" 
d="M1311 1118c352 106.667 528 274.664 528 503.997c0 120 -53.333 219.667 -160 299c-106 74 -252 111 -438 111c-199.333 0 -375.333 -46.667 -528 -140c-183.333 -112 -275 -262 -275 -450c0 -79.333 18 -153 54 -221c32.667 -71.333 90 -150.666 172 -237.999
c-164 -35.333 -302 -92.666 -414 -171.999c-139.333 -98 -209 -225 -209 -381c0 -136.667 60 -248.667 180 -336c117.333 -90 273 -135 467 -135c264.667 0 481.667 57.333 651 172s254 266.334 254 455.001c0 160.667 -94 338 -282 532zM713 929.997l159.001 -144.002
c41.333 -38 75.666 -72 102.999 -102c95.333 -109.333 143 -211.666 143 -306.999c0 -98.667 -39.667 -182 -119 -250c-81.333 -68 -182.333 -102 -303 -102c-130.667 0 -235.667 36.667 -315 110c-82 74 -123 172.333 -123 295c0 125.333 38.167 230.333 114.5 315
s189.833 146.334 340.5 185.001zM1274 1167c-139.333 114.667 -233.667 207.666 -283 278.999c-52 68 -78 137.667 -78 209c0 95.333 35.667 170.333 107 225c70.667 52 156.667 78 258 78s191.333 -28.667 270 -86c76.667 -60 115 -140.667 115 -242
c0 -92.667 -34 -178.667 -102 -258c-63.333 -79.333 -159 -147.666 -287 -204.999z" />
    <glyph glyph-name="nine" unicode="9" horiz-adv-x="1946" 
d="M303 -152c308.667 178 520.334 305.001 635.001 381.001c262 175.333 473.667 351.666 635 528.999c194 224 291 441 291 651c0 186 -64.333 334.667 -193 446c-128 112 -298.667 168 -512 168c-256.667 0 -480.667 -84.667 -672 -254
c-190.667 -172 -286 -372.667 -286 -602c0 -163.333 56 -291.666 168 -384.999c98 -82 229 -123 393 -123l110 5c24.667 0 61.667 8 111 24c-46.667 -68 -100 -136.333 -160 -205c-62.667 -70.667 -140.334 -152.334 -233.001 -245.001
c-158.667 -158.667 -307.667 -288.667 -447 -390h160zM1233 1962c46.667 0 90.332 -22 130.999 -66c35.333 -43.333 53 -96.333 53 -159c0 -164 -53.333 -364.667 -160 -602c-122.667 -276 -259 -414 -409 -414c-122.667 0 -184 67 -184 201c0 112 40.667 273 122 483
c82 207.333 161.333 357.333 238 450c62.667 71.333 132.334 107 209.001 107z" />
    <glyph glyph-name="colon" unicode=":" horiz-adv-x="1065" 
d="M455 545c-90.667 0 -160.501 -28.668 -209.501 -86.001s-73.5 -125.666 -73.5 -204.999c0 -74 24.667 -142.333 74 -205c48.667 -54.667 118.334 -82 209.001 -82c82 0 150 28.667 204 86c49.333 57.333 74 124.333 74 201c0 74 -24.667 141 -74 201
c-48.667 60 -116.667 90 -204 90zM695.999 1327c-90 0 -159.667 -28.667 -209 -86c-48.667 -57.333 -73 -127 -73 -209c0 -73.333 24.333 -141.666 73 -204.999c49.333 -54.667 119 -82 209 -82c84.667 0 151.667 28.667 201 86c49.333 58 74 127.667 74 209
c0 79.333 -23.333 147.666 -70 204.999c-46.667 54.667 -115 82 -205 82z" />
    <glyph glyph-name="semicolon" unicode=";" horiz-adv-x="1065" 
d="M74 160l28 -58.001l41 9c90.667 0 136 -56 136 -168c0 -172 -93 -329 -279 -471l33 -50c76 44 152.333 94.667 229 152c74 54.667 145 113.334 213 176.001c186 172 279 319.667 279 443c0 78.667 -53.333 166 -160 262zM705 1319
c-90.667 0 -160.333 -27.335 -209 -82.002c-49.333 -57.333 -74 -125.666 -74 -204.999c0 -73.333 24.667 -137.333 74 -192c48.667 -57.333 118.334 -86 209.001 -86c81.333 0 146.666 28.667 195.999 86s74 124 74 200c0 76.667 -23.333 142.334 -70 197.001
c-46 54.667 -112.667 82 -200 82z" />
    <glyph glyph-name="less" unicode="&#x3c;" horiz-adv-x="1769" 
d="M2040 2224l-1790 -913l-17 -29l1127 -1024l225 655l-618 557l987 512z" />
    <glyph glyph-name="equal" unicode="=" horiz-adv-x="1946" 
d="M-25 594h1688l90 229h-1687zM160 1106h1687l82 229h-1687z" />
    <glyph glyph-name="greater" unicode="&#x3e;" horiz-adv-x="1769" 
d="M-119 258l1798 918l9 32l-1127 1016l-225 -655l614 -561l-983 -496z" />
    <glyph glyph-name="question" unicode="?" horiz-adv-x="1282" 
d="M487 537c-90 0 -159.333 -27.333 -208 -82c-49.333 -57.333 -74 -125.666 -74 -204.999c0 -76.667 24.667 -142.334 74 -197.001c48.667 -57.333 118 -86 208 -86c79.333 0 146.333 28.667 201 86c49.333 57.333 74 124.333 74 201c0 79.333 -23.333 146.333 -70 201
c-46 54.667 -114.333 82 -205 82zM418 1638c0 134 61.332 266.502 183.999 397.502s247 196.5 373 196.5c100.667 0 151 -42.333 151 -127c0 -82 -77.667 -176 -233 -282l-430 -299c-158.667 -134 -238 -263.667 -238 -389c0 -120.667 42.333 -209.667 127 -267
c71.333 -46 168.333 -69 291 -69l164 12l151 37l66 160l-33 24c-106.667 -106.667 -205 -160 -295 -160c-68 0 -102 26 -102 78s75 128.667 225 230c234.667 150 375.334 246.667 422.001 290c152.667 131.333 229 270.666 229 417.999c0 123.333 -49 228.666 -147 315.999
c-98 82 -226.333 123 -385 123c-180 0 -324.667 -50.667 -434 -152c-112 -104 -168 -242 -168 -414l8 -131z" />
    <glyph glyph-name="at" unicode="@" horiz-adv-x="2609" 
d="M1991 1511l-344.004 -56.9941c-36 44 -100.333 66 -193 66c-164 0 -306 -64.333 -426 -193c-120 -128 -180 -268.667 -180 -422c0 -82 23.333 -140.667 70 -176c13.333 -10.667 36.333 -21.667 69 -33c32.667 -13.333 73.667 -20 123 -20c38 0 66.667 1.33301 86 4
s57.666 12.334 114.999 29.001c54.667 16 101 37.667 139 65c38 -68 125.333 -102 262 -102c218.667 0 408.334 92.667 569.001 278c158.667 183.333 238 389.666 238 618.999c0 194 -77.667 359 -233 495c-158.667 134 -350 201 -574 201
c-349.333 0 -688 -158.333 -1016 -475c-330 -319.333 -495 -655.333 -495 -1008c0 -212.667 95.333 -391.334 286 -536.001c188.667 -147.333 421 -221 697 -221c172 0 340 24.333 504 73c81.333 24.667 164.333 54.667 249 90
c84.667 33.333 169.334 71.666 254.001 114.999c49.333 22 74 52 74 90c0 30 -17.667 45 -53 45c-16.667 0 -40 -9.33301 -70 -28c-169.333 -79.333 -326.333 -142.333 -471 -189c-90 -24.667 -174.667 -43.834 -254 -57.501s-159.666 -20.5 -240.999 -20.5
c-202.667 0 -362.667 42.333 -480 127c-57.333 41.333 -101 90.666 -131 147.999s-45 125.666 -45 204.999c0 311.333 120.333 637.666 361 978.999c264.667 371.333 544.334 557 839.001 557c164 0 296.667 -48 398 -144c98 -95.333 147 -215.333 147 -360
c0 -150 -37 -323.333 -111 -520c-90 -240.667 -197.667 -361 -323 -361c-49.333 0 -76.666 20.667 -81.999 62l12 69zM1610 1409.01l-176 -442.001c-2.66699 -19.333 -5.66699 -31.666 -9 -36.999l-16 -66l8 -41l-82 -32l-69 -17c-49.333 0 -74 27.333 -74 82
c0 38 12.333 94 37 168l106 279c46.667 98 104 147 172 147c32.667 0 67 -13.667 103 -41z" />
    <glyph glyph-name="A" unicode="A" horiz-adv-x="3351" 
d="M3330 1167l-155.999 -20l-188 -4l229 610l45 148l21 159c0 84.667 -23.333 154.334 -70 209c-46 54.667 -123.667 82 -233 82c-208 0 -415.667 -154.333 -623 -463c-100.667 -152.667 -227.667 -401 -381 -745l-422 8l-311 8c-161.333 0 -306 -8 -434 -24
c-74 -8.66699 -137 -18.334 -189 -29.001c-54 -14 -118 -36 -192 -66c-158.667 -57.333 -283 -139 -373 -245c-92.667 -106.667 -139 -225.667 -139 -357c0 -142 62.667 -256.667 188 -344c123.333 -90 288.666 -135 495.999 -135c314 0 588.333 87.333 823 262
c232 172 446.333 448 643 828l156 -9l156 -8l-201 -520l-33 -111l-20 -139c0 -95.333 41 -171.666 123 -228.999c78.667 -60 189 -90 331 -90c260 0 515.333 86 766 258v86c-100.667 -74 -201.667 -131.333 -303 -172c-103.333 -44 -188 -66 -254 -66
c-57.333 0 -94 12.333 -110 37c-19.333 22 -29 59 -29 111v65l299 770c60 0 107.667 -2.66699 143 -8h152zM1929 1057c-130.667 -292.667 -304 -531.667 -520 -717c-216 -188.667 -427.667 -283 -635 -283c-114.667 0 -208.667 34.333 -282 103
c-76.667 65.333 -115 155.333 -115 270c0 216 99.667 386.667 299 512c169.333 104 371.333 156 606 156c213.333 0 429 -13.667 647 -41zM2417 1135l-127 -9l-185 9l283 606c117.333 221.333 252.333 396 405 524h25v-65z" />
    <glyph glyph-name="B" unicode="B" horiz-adv-x="3056" 
d="M369 729c-109.333 109.333 -164.002 225.333 -164.002 348c0 139.333 62.667 292.333 188 459c52 62.667 106.667 122.667 164 180c57.333 54.667 128.333 114.667 213 180c344 256.667 711.333 385 1102 385c374 0 561 -128.333 561 -385
c0 -138.667 -41 -268.334 -123 -389.001c-84.667 -122.667 -188.334 -200.334 -311 -233.001c-41.333 -14 -62 -33 -62 -57c19.333 -11.333 36 -19.666 50 -24.999c54 -27.333 103 -50.666 147 -69.999c134 -48.667 201 -142.667 201 -282
c0 -114.667 -37 -237.667 -111 -369c-73.333 -131.333 -163.333 -232.333 -270 -303c-150 -95.333 -372.667 -143 -668 -143h-82h-74l-282 4l-217 28c316.667 57.333 567.667 169.333 753 336c183.333 164 320 396.333 410 697l311 1118h-24l-570 -246l-172 -512l-163 -537
c-68.667 -245.333 -150.667 -432.333 -246 -561c-120 -160.667 -296.333 -261.667 -529 -303v-57l459 -37l541 -12c234.667 0 427 12.333 577 37c148 24 286 64.667 414 122c314 148 471 346 471 594c0 174.667 -97 308.667 -291 402c-112 48.667 -286.667 93.667 -524 135
c136.667 19.333 251.334 39.666 344.001 60.999c92.667 22 170.667 49.333 234 82c218 98.667 327 247.667 327 447c0 160.667 -99.667 288.834 -299 384.501s-471 143.5 -815 143.5c-434 0 -809.333 -79 -1126 -237c-401.333 -202.667 -602 -504.667 -602 -906
c0 -95.333 16.333 -192 49 -290c32.667 -101.333 80.334 -189 143.001 -263z" />
    <glyph glyph-name="C" unicode="C" horiz-adv-x="2249" 
d="M2257 250c-207.333 -74 -389.003 -131.335 -545.003 -172.002c-106.667 -24.667 -205 -44 -295 -58c-90 -13.333 -178.667 -20 -266 -20c-174.667 0 -318 34 -430 102c-134 84.667 -201 207.667 -201 369c0 330.667 127 709 381 1135c278.667 466.667 568 700 868 700
c96 0 176.667 -32.667 242 -98c30 -32.667 53.333 -69.667 70 -111c16 -40.667 24 -88.334 24 -143.001c0 -208 -128.333 -477 -385 -807c-267.333 -344 -504.666 -516 -711.999 -516c-44 0 -81 13.667 -111 41c-27.333 32.667 -41 72.334 -41 119.001
c0 144.667 118.667 326 356 544c188.667 172 377.334 303.333 566.001 394l-17 57c-262 -96 -476.333 -213.333 -643 -352c-229.333 -188.667 -344 -395 -344 -619c0 -79.333 34.333 -145 103 -197c65.333 -54 151.333 -81 258 -81c272.667 0 532 129.667 778 389
c245.333 256.667 368 532.334 368 827.001c0 196.667 -53 348.334 -159 455.001c-109.333 106 -267.666 159 -474.999 159c-410 0 -773.333 -147.333 -1090 -442c-316.667 -297.333 -475 -637.333 -475 -1020c0 -300 99.667 -539 299 -717
c196.667 -180 461.667 -270 795 -270c182.667 0 364 24.667 544 74c178 46 362.333 113 553 201z" />
    <glyph glyph-name="D" unicode="D" horiz-adv-x="3383" 
d="M311 631c-78.667 87.333 -117.998 187 -117.998 299c0 139.333 55.667 293.666 167 462.999c41.333 62.667 86.5 122.667 135.5 180s110.5 122.666 184.5 195.999c172 164 368.667 289.667 590 377c106.667 41.333 220 72.833 340 94.5s249.667 32.5 389 32.5
c565.333 0 848 -226.667 848 -680c0 -390 -131 -745 -393 -1065c-276 -335.333 -604 -503 -984 -503l-405 16h-57c264.667 65.333 470.667 200.333 618 405c79.333 114.667 180.333 344.334 303 689.001c82 264.667 140.667 439.334 176 524.001
c71.333 185.333 153.333 352 246 500l-41 32c-330 -166 -564.667 -343.333 -704 -532c-104 -144.667 -220.333 -415 -349 -811c-98 -311.333 -174.333 -523 -229 -635c-57.333 -114.667 -120 -172 -188 -172l-9 -66l365 -4h127c38 0 83 -2.66699 135 -8
c147.333 0 275.666 4 384.999 12c109.333 8.66699 211.666 23.667 306.999 45c243.333 49.333 453.666 143.666 631 282.999c174.667 136.667 314 303.334 418 500.001c101.333 196.667 152 390.334 152 581.001c0 284 -128.5 514.833 -385.5 692.5
s-599.833 266.5 -1028.5 266.5c-240 0 -468 -23.333 -684 -70c-215.333 -48.667 -409 -129 -581 -241c-174.667 -112 -321 -254 -439 -426c-125.333 -188.667 -188 -370.334 -188 -545.001c0 -180 71 -341 213 -483z" />
    <glyph glyph-name="E" unicode="E" horiz-adv-x="2281" 
d="M1450 1393c393.333 155.333 589.999 354.663 589.999 597.996c0 106 -50.667 196 -152 270c-100.667 70.667 -229 106 -385 106c-194 0 -349.667 -54.333 -467 -163c-120 -109.333 -180 -251.333 -180 -426c0 -79.333 16.333 -164 49 -254l119 -258
c0 -38.667 -37 -58 -111 -58c-248 0 -463.667 -51.667 -647 -155c-226.667 -128.667 -340 -311.667 -340 -549c0 -183.333 87.333 -326.666 262 -429.999c175.333 -104 414.333 -156 717 -156c295.333 0 556.333 54.667 783 164c142 68 255.333 148.667 340 242
c81.333 92.667 122 192.334 122 299.001c0 117.333 -68 226.333 -204 327l-25 -45c22 -16 38.333 -37.667 49 -65l17 -74c0 -46.667 -15 -96 -45 -148c-30.667 -54 -70.334 -108.333 -119.001 -163c-123.333 -136.667 -269.666 -248.667 -438.999 -336
c-172 -90 -331.667 -135 -479 -135c-120 0 -219.667 38 -299 114c-79.333 74 -119 172.333 -119 295c0 142 42.333 269 127 381s229.667 226.667 435 344c54 32.667 99 87.334 135 164.001l82 205c73.333 224 132 377 176 459c98 207.333 196.333 311 295 311
c90 0 135 -47.667 135 -143c0 -93.333 -45 -206.666 -135 -339.999c-93.333 -136.667 -202.666 -244.667 -327.999 -324z" />
    <glyph glyph-name="F" unicode="F" horiz-adv-x="3351" 
d="M2712 1704c-169.333 -62.667 -303.335 -144.667 -402.002 -246c-100.667 -103.333 -199 -253.333 -295 -450h-422c-35.333 0 -66.666 -11 -93.999 -33s-43.666 -48 -48.999 -78c0 -32.667 28.667 -49 86 -49l119 8c49.333 0 86 -9.66699 110 -29
c22 -21.333 35.667 -51.333 41 -90c0 -54.667 -106.333 -228 -319 -520c-213.333 -294.667 -320 -498 -320 -610c0 -49.333 24.667 -97.333 74 -144c49.333 -40.667 105.333 -61 168 -61c90 0 189.667 28.667 299 86c106.667 57.333 211.667 138 315 242
c131.333 130.667 238 300 320 508c22 54 49.333 137 82 249l86 328l364 -12l365 -12c24.667 0 46.334 13.333 65 40l54 74l32 53l21 54c-2.66699 16 -17.667 25.333 -45 28l-406 -16l-409 -16l74 335c32.667 134 80.334 238 143 312zM1794 856l180 -7.99902
c-68 -316.667 -130.667 -572 -188 -766c-114.667 -396 -226.667 -594 -336 -594c-19.333 0 -37 9.66699 -53 29c-19.333 16 -29 37.667 -29 65c0 49.333 16.333 115 49 197l168 332l176 360l58 127c21.333 57.333 35 105 41 143c0 41.333 -22 79.666 -66 114.999z
M261.998 160.001c-65.333 172 -98.001 370.001 -98.001 594.001c0 330 69.667 609.667 209 839c166.667 265.333 397.334 398 692.001 398l168 -13l119 -16l512 -90c196.667 -38 437 -76.333 721 -115c114.667 -13.333 234.667 -24.333 360 -33c125.333 -8 240 -12 344 -12
c49.333 0 83.333 9.66699 102 29c19.333 16 44 65 74 147l25 94l12 70c0 35.333 -31.333 53 -94 53c-169.333 0 -360.666 20.667 -574 62l-639 131c-218 46 -406.333 69 -565 69c-417.333 0 -791.333 -158.333 -1122 -475c-333.333 -316.667 -500 -683.667 -500 -1101
c0 -262.667 75 -489.334 225 -680.001z" />
    <glyph glyph-name="G" unicode="G" horiz-adv-x="2978" 
d="M2105 1151l-232.999 -749.997c-54.667 -46 -109.334 -88.333 -164.001 -127c-57.333 -40.667 -116 -76 -176 -106c-144.667 -74 -277 -111 -397 -111c-139.333 0 -244.666 64.333 -315.999 193c-54.667 100.667 -82 227.667 -82 381
c308.667 95.333 631 238.666 967 429.999c333.333 191.333 610.333 392 830.999 602c178 169.333 267 308.666 267 417.999c0 87.333 -41 158.333 -123 213c-82 48.667 -196.667 73 -344 73c-513.333 0 -991.333 -166.333 -1434 -499c-478 -363.333 -717 -788 -717 -1274
l-155 -12l-156 -4h-33l-57 -140l209 13l192 36c22 -180 94.333 -319 217 -417c123.333 -101.333 291.333 -152 504 -152c161.333 0 322.666 32.667 483.999 98c160.667 63.333 308 153.666 442 270.999l-57 -209c-22 -76.667 -48 -147.667 -78 -213
c-76.667 -19.333 -158.667 -41.333 -246 -66c-90 -27.333 -157 -49 -201 -65c-204.667 -82 -307 -180.333 -307 -295c0 -52 19 -93 57 -123c38.667 -30 89.334 -45 152.001 -45c134 0 291 57.333 471 172c98 62.667 231.667 167.667 401 315c161.333 36 335 97.667 521 185
c114.667 57.333 277 146 487 266v70c-144.667 -82 -284 -147.667 -418 -197c-136.667 -52 -282.667 -90.333 -438 -115c19.333 22 42.666 50.667 70 86c38 49.333 70.667 98.666 98 147.999c40.667 78.667 85.667 193.334 135 344.001l225 737zM1610 -310.997
c-169.333 -240.667 -330.667 -361 -484 -361c-73.333 0 -110 28.667 -110 86c0 90 82 159.667 246 209c73.333 22 189.333 44 348 66zM745 705.003c44 349.333 150.666 657.666 319.999 924.999c114.667 177.333 260.667 326.333 438 447
c174.667 120 337.334 180 488.001 180c108.667 0 196 -31.333 262 -94c70.667 -57.333 106 -132.666 106 -225.999c0 -172 -105 -349.333 -315 -532c-169.333 -142 -393.333 -285.333 -672 -430c-199.333 -98.667 -408.333 -188.667 -627 -270z" />
    <glyph glyph-name="H" unicode="H" horiz-adv-x="3752" 
d="M279 1663c40.667 101.333 104.674 172.332 192.007 212.999c84.667 38 189.667 57 315 57c90.667 0 153.667 -1.33301 189 -4c79.333 -13.333 140.666 -21.333 183.999 -24l209 -17c114.667 0 254 22 418 66c161.333 43.333 304.666 99.333 429.999 168l8 -17
c-114.667 -57.333 -217 -118.666 -307 -183.999s-169.333 -137.666 -238 -216.999c-125.333 -147.333 -229 -346.666 -311 -597.999c-322 -158.667 -528 -266.667 -618 -324c-265.333 -174.667 -398 -348 -398 -520c0 -87.333 31.333 -158.333 94 -213
c63.333 -54.667 146.666 -82 249.999 -82c316.667 0 591.334 136.667 824.001 410c174.667 212.667 316.667 495.334 426 848.001l143 49l143 61l-24 -53l-127 -332c-24.667 -54.667 -45.334 -103.667 -62.001 -147c-18.667 -46.667 -37.667 -100 -57 -160
c-32.667 -112 -49 -217 -49 -315c0 -136.667 53.333 -236.334 160 -299.001c84.667 -46.667 202 -70 352 -70c276 0 545 90 807 270c284 196.667 426 433 426 709c0 182.667 -99.667 328.667 -299 438l-54 -41c106.667 -73.333 160 -179.666 160 -318.999
c0 -188.667 -94 -392 -282 -610c-188.667 -221.333 -374.334 -332 -557 -332c-123.333 0 -185 65.333 -185 196c0 139.333 50.667 351 152 635c82 226.667 166.667 431.667 254 615c275.333 103.333 480 205.666 614 306.999c131.333 98 197 196.333 197 295
c0 52 -22 98.333 -66 139c-43.333 38 -96.666 57 -160 57c-234.667 0 -465.334 -94 -692.001 -282c-185.333 -158.667 -338.333 -359.334 -459 -602.001l-307 -115c49.333 180 98.666 333 147.999 459c82 207.333 166.667 334.333 254 380.999l-49 49
c-71.333 -16.667 -138.333 -25 -201 -25c-92.667 0 -207.334 16.333 -344.001 49c-300.667 74 -494.667 111 -582 111c-234.667 0 -440.834 -60.167 -618.501 -180.5s-304.5 -286.833 -380.5 -499.5h78zM1327.01 974.999
c-73.333 -221.333 -156.666 -408.331 -249.999 -560.998c-144.667 -238 -293.334 -357 -446.001 -357c-90 0 -135 42.333 -135 127c0 93.333 69.667 206.666 209 339.999c138.667 131.333 346 281.666 622 450.999zM2904.01 1630c79.333 139.333 164 262.333 254 369
c131.333 161.333 236.333 242 315 242c46.667 0 70 -24.667 70 -74c0 -71.333 -90 -175.333 -270 -312l-185 -122z" />
    <glyph glyph-name="I" unicode="I" horiz-adv-x="2359" 
d="M287 1638c40.667 126 111.664 219 212.997 279c84.667 46.667 189.667 70 315 70c71.333 0 208 -12.333 410 -37l237 -21c142 0 286.667 15 434 45c76.667 14 154.667 32 234.001 54c76.667 21.333 150.334 47 221.001 77
c-166.667 -92.667 -307.334 -211.334 -422.001 -356.001c-90 -109.333 -173.333 -255.333 -250 -438l-192 -512c-114.667 40.667 -232 73.334 -352 98.001c-131.333 22 -251.666 33 -360.999 33c-221.333 0 -398.833 -46.5 -532.5 -139.5s-200.5 -217.167 -200.5 -372.5
c0 -136.667 58.667 -248.667 176 -336c114.667 -87.333 269 -131 463 -131c286.667 0 536.667 53.333 750 160c210 106 387.333 276.667 532 512c76.667 -22 147.667 -52.333 213.001 -91c35.333 -21.333 68 -43 98 -65c19.333 -14 45.333 -36 78 -66l41 127l-205 103
l-188 65c73.333 153.333 143 351.333 209 594c122.667 494.667 208.667 787 258 877c-54.667 0 -147.667 9.33301 -279 28c-133.333 19.333 -297 49.666 -491 91c-196.667 38 -353.667 57 -471 57c-497.333 0 -836 -226.667 -1016 -680zM1454 737
c-218.667 -464 -498.667 -696 -840 -696c-130.667 0 -244 32.667 -340 98c-98 66 -147 142.667 -147 230c0 125.333 72.333 230.333 217 315c142 82 329 123 561 123c229.333 0 412.333 -23.333 549 -70z" />
    <glyph glyph-name="J" unicode="J" horiz-adv-x="2318" 
d="M303 418c-68 112 -102.001 234.668 -102.001 368.001c0 156 46.333 325.333 139 508c70.667 144.667 173 289.667 307 435c204.667 229.333 472.334 386.333 803.001 470.999c112 27.333 250 49 414 65c160.667 16.667 339.334 25 536.001 25
c-210 -60 -395.667 -199.333 -557 -418c-54.667 -79.333 -108 -171 -160 -275c-51.333 -106 -103 -227.333 -155 -364l-135 -369l-58 -172l-53 -172c-401.333 -155.333 -625.333 -246.666 -672 -273.999c-278 -153.333 -417 -336.333 -417 -549
c0 -74 24.333 -135.333 73 -184c49.333 -49.333 115 -74 197 -74c314 0 606 125.667 876 377c224 207.333 407 473.333 549 798l205 41l234 17l98 -8l41 127c-60 0 -103.667 -1.66699 -131 -5c-30 -2.66699 -78 -10.667 -144 -24c-68 -16.667 -160.667 -44 -278 -82l237 655
l185 594c24.667 76.667 54.667 143.667 90 201.001l110 188c0 22 -31.333 33 -94 33c-155.333 16.667 -315 25 -479 25c-224 0 -438.333 -20.667 -643 -62c-204.667 -40.667 -393 -107.334 -565 -200.001c-218.667 -114.667 -392.334 -269 -521.001 -463
c-128 -196.667 -192 -400.334 -192 -611.001c0 -114.667 15 -221 45 -319c27.333 -101.333 76.333 -213.333 147 -336zM1257 463.001c-73.333 -224 -172.999 -424.666 -298.999 -601.999c-168.667 -238 -342 -357 -520 -357c-40.667 0 -74.667 11 -102 33
c-30 22 -46.333 53.333 -49 94c0 142 129.667 306 389 492c79.333 57.333 166.666 114.666 261.999 171.999c92.667 54.667 199 110.667 319 168z" />
    <glyph glyph-name="K" unicode="K" horiz-adv-x="3465" 
d="M311 1704c87.333 229.333 223.999 343.999 409.999 343.999l790 -94c96 0 198.5 12.333 307.5 37s266.167 77.667 471.5 159.001l16 -8c-246 -106.667 -430.333 -255.334 -553 -446.001c-98 -150.667 -181.333 -374.667 -250 -672l-217 -57l164 -103
c-76.667 -284 -181.667 -490 -315 -618c-136.667 -131.333 -317 -197 -541 -197c-286.667 0 -527 90 -721 270l-57 -57c82 -109.333 183 -192.666 303 -249.999c120 -52 245.667 -78 377 -78c237.333 0 489.666 71 756.999 213c238 128.667 438.667 284.334 602 467.001
c139.333 -272.667 272 -457 398 -553c125.333 -95.333 294.666 -143 508 -143c133.333 0 252 17.667 356 53c104 32.667 220 90 348 172l-33 58c-18.667 -14 -43 -27.667 -73 -41c-30 -16.667 -60 -31.834 -90 -45.501s-67 -20.5 -111 -20.5c-128 0 -259 72.333 -393 217
c-316.667 346.667 -569.334 542 -758 586l45 94l37 90c276 41.333 547.667 193 815 455c204.667 202 394.334 460 569.001 774l-569 -78l-266 -413c-202 -336 -374 -547.667 -516 -635l159 516l168 516l9 16l-21 9l-78 -13l-69 -12c-60 0 -118.667 8.33301 -176 25l-394 94
c-27.333 8 -76.333 18.667 -147 32c-71.333 14 -143.666 21 -216.999 21c-226.667 0 -439.667 -57.333 -639 -172c-202 -117.333 -363.333 -274.333 -484 -471z" />
    <glyph glyph-name="L" unicode="L" horiz-adv-x="2503" 
d="M1450 831c300.667 66 554.667 200.001 762 402.001c204.667 202 307 415 307 639c0 147.333 -39.667 263.333 -119 347.999c-82 82 -194 123 -336 123c-133.333 0 -265.666 -31.333 -396.999 -94c-134 -63.333 -261 -152.333 -381 -267
c-164 -163.333 -278.667 -370.666 -344 -621.999l-127 -713l-192 17c-238 0 -440.333 -46.667 -607 -140c-166 -92.667 -249 -206 -249 -340c0 -65.333 25.667 -117 77 -155c52 -41.333 123 -62 213 -62c120.667 0 228.667 19.333 324 58
c92.667 35.333 206 104.666 340 207.999c161.333 -60 360.666 -120 597.999 -180c237.333 -62.667 421.666 -94 552.999 -94c87.333 0 192.333 28.667 314.999 86c120 54.667 244.333 132.667 373 234l-33 57c-76 -38 -152.333 -57 -229 -57
c-62.667 0 -151.334 20.333 -266 61c-30 8 -57.333 16.167 -82 24.5s-59 23.5 -103 45.5c-122.667 46 -246.667 86.667 -372 122c-57.333 16.667 -121.666 33.334 -192.999 50.001l-176 32c155.333 142 271.333 321 348 537l148 537c54 202 130.333 356 229 462
c70.667 71.333 159.334 107 266.001 107c68.667 0 123.334 -16.333 164 -49c38 -36 57 -92 57 -168c0 -248.667 -91.333 -490.334 -274 -725.001c-186 -238 -397.667 -374.667 -635 -410zM614 242.001c-38 -30 -74.667 -54.667 -110 -74
c-38.667 -22 -90.667 -42.667 -156 -62c-68 -21.333 -165 -32 -291 -32c-78.667 0 -134.667 6.66699 -168 20c-32.667 11.333 -49 33.333 -49 66c0 79.333 114.667 119 344 119c142 0 285.333 -12.333 430 -37z" />
    <glyph glyph-name="M" unicode="M" horiz-adv-x="3281" 
d="M3297 250c-267.333 -144.667 -465.335 -217.002 -594.002 -217.002c-46 0 -85.5 10.833 -118.5 32.5s-49.5 50.5 -49.5 86.5c0 120 72.667 354.667 218 704l167 393l377 881l8 61c0 46.667 -17.667 83.667 -53 111s-84.333 41 -147 41
c-180.667 0 -370.667 -116 -570 -348c-136 -164 -288.667 -410 -458 -738l-316 -663h-16l520 1319c16.667 40.667 27.667 83 33 127c0 84.667 -35.667 158.334 -107 221.001c-65.333 65.333 -147 98 -245 98c-243.333 0 -479.666 -159.667 -708.999 -479
c-104 -147.333 -250 -419 -438 -815l-168 -385c-104 -234.667 -188.667 -394.334 -254 -479.001s-140.333 -127 -225 -127c-71.333 0 -150.666 32.667 -237.999 98c-90 65.333 -157 144.666 -201 237.999c-16 32.667 -33.667 50.334 -53 53.001l-12 -37
c0 -71.333 9.33301 -132.666 28 -183.999c16.667 -52 41.334 -100 74.001 -144c65.333 -87.333 170.666 -131 315.999 -131c155.333 0 312.333 71 471 213c128 114.667 255 274.334 381 479.001c78.667 131.333 161.667 292.666 249 483.999l242 553c30 68 60 132 90 192
c27.333 57.333 57.333 112 90 164c90 152.667 162.333 229 217 229c22 0 35.667 -16.333 41 -49l-16 -57l-815 -2191l614 200c106.667 259.333 216 495.666 328 708.999c182.667 360.667 345 646 487 856c194 284 360.667 448 500 492c-150 -186 -292 -408.667 -426 -668
c-98 -191.333 -201.667 -433 -311 -725c-62.667 -156 -107.667 -280.333 -135 -373s-41 -165 -41 -217c0 -95.333 40.667 -174.666 122 -237.999c82 -57.333 201 -86 357 -86c134 0 267.667 22 401 66c131.333 40.667 262.333 99.334 393 176.001z" />
    <glyph glyph-name="N" unicode="N" horiz-adv-x="3465" 
d="M262 455c-32.667 82 -49 165.327 -49 249.994c0 150 47.667 319 143 507c41.333 84.667 133 235 275 451c278.667 418 566.667 627 864 627c101.333 0 175 -31.667 221 -95c38.667 -51.333 58 -126.333 58 -225c0 -68 -8.33301 -141.667 -25 -221l-61 -221
c-202.667 -177.333 -377.667 -372.666 -525 -585.999c-90 -134 -158.333 -259.667 -205 -377c-46 -120 -69 -233.333 -69 -340c0 -188 73.667 -282 221 -282c106.667 0 222.667 43.667 348 131c122.667 87.333 232 199.333 328 336c114.667 160.667 208.667 353 282 577
c38.667 114.667 67.334 221.334 86 320.001c19.333 98 29 196.333 29 295v86c166.667 120 363.334 231.667 590 335c158.667 71.333 370.334 154.666 635 249.999l33 8l24 -8l-78 -61l-82 -53c-292 -199.333 -530.667 -424.666 -716 -675.999
c-216 -298 -324 -602.667 -324 -914c0 -188 57.333 -339.333 172 -454s265 -172 451 -172c98 0 199 17.667 303 53l282 123l-8 74c-92.667 -49.333 -180 -86.333 -262 -111s-151.667 -37 -209 -37c-65.333 0 -120 19 -164 57c-46 38.667 -69 100.334 -69 185.001
c0 212.667 91.333 540.334 274 983.001c158.667 390 314.334 702.667 467 938c22 38 35.667 70.667 41 98c0 24.667 -20.333 37 -61 37c-57.333 0 -143.333 -16.333 -258 -49c-66 -19.333 -126.333 -38.666 -181 -57.999c-54.667 -21.333 -124.334 -50 -209.001 -86
c-147.333 -57.333 -267.333 -113.333 -360 -168c-95.333 -54 -195 -122 -299 -204c-74 382 -298 573 -672 573c-352 0 -683.667 -144.667 -995 -434s-467 -611.666 -467 -966.999c0 -92.667 9.66699 -173 29 -241c18.667 -71.333 62.334 -168.333 131.001 -291z
M1655 1392.99c-52 -158.667 -109.331 -315.833 -171.998 -471.5s-131 -311.167 -205 -466.5c-114.667 -248.667 -199.334 -373 -254.001 -373c-24.667 0 -38.334 17.667 -41.001 53c0 41.333 16.333 112.333 49 213c32.667 98.667 75 206.667 127 324
c134 308.667 299.333 549 496 721z" />
    <glyph glyph-name="O" unicode="O" horiz-adv-x="2576" 
d="M1200 1257c0 196.667 57.335 409.666 172.002 638.999c131.333 268 284.333 402 459 402c65.333 0 120 -35.667 164 -107c40.667 -70.667 61 -166 61 -286c0 -183.333 -31.333 -395 -94 -635c-62.667 -243.333 -143.334 -464.666 -242.001 -663.999
c-109.333 -212.667 -214.333 -369.667 -315 -471c-104 -100.667 -220 -151 -348 -151c-134 0 -240.667 50.333 -320 151c-82 101.333 -123 240.666 -123 417.999c0 281.333 59 580.333 177 897c130.667 352 291.667 607.333 483 766l-33 49
c-360.667 -147.333 -643.334 -349.333 -848.001 -606c-207.333 -256.667 -311 -540.667 -311 -852c0 -276 87.333 -493.167 262 -651.5s415 -237.5 721 -237.5c382 0 723.333 157 1024 471c297.333 311.333 446 665 446 1061c0 256.667 -68.167 473.667 -204.5 651
s-305.5 266 -507.5 266c-262 0 -452 -128.333 -570 -385c-84.667 -193.333 -127 -437.666 -127 -732.999z" />
    <glyph glyph-name="P" unicode="P" horiz-adv-x="3498" 
d="M262 528l74 49.9961c-90 136 -135 265.667 -135 389c0 130.667 42.333 264.334 127 401.001c100.667 161.333 274 332 520 512c199.333 144.667 396 252.667 590 324c194 68 394.667 102 602 102c278.667 0 494.334 -62.667 647 -188c150 -126 225 -309 225 -549
c0 -358 -122.667 -696.667 -368 -1016c-262.667 -336 -568.667 -504 -918 -504c-68 0 -125.333 5.66699 -172 17l33 77l135 385l147 394c128.667 360 239.334 633 332.001 819c74 150 165.667 303 275 459l-49 32c-230 -73.333 -432.333 -205.666 -607 -396.999
c-147.333 -155.333 -278.333 -356 -393 -602c-82 -174.667 -169.333 -404 -262 -688l-160 -463l-114 -352l-136 -316c112 16.667 214.667 42.667 308 78c106 30 179.667 57.333 221 82c54.667 32.667 101 80.334 139 143.001c30 49.333 69.667 143.666 119 282.999l135 -16
l139 -4c442.667 0 834.667 124 1176 372c376.667 270.667 565 620.334 565 1049c0 354.667 -169.333 615.334 -508 782.001c-254 122.667 -583 184 -987 184c-466.667 0 -872.334 -86 -1217 -258c-442 -220.667 -663 -542.667 -663 -966c0 -186 60 -391 180 -615z" />
    <glyph glyph-name="Q" unicode="Q" horiz-adv-x="2433" 
d="M594 487c-16.667 71.333 -25.001 144.001 -25.001 218.001c0 142 30 304.333 90 487c33.333 100.667 92.333 259 177 475s184.334 380 299.001 492s243 168 385 168c122.667 0 221 -37 295 -111c70.667 -76.667 106 -177.667 106 -303c0 -216 -61.333 -483.667 -184 -803
c-126 -319.333 -262.667 -569.333 -410 -750c-158 44 -298.667 66 -422 66c-199.333 0 -376.666 -35.667 -531.999 -107c-158.667 -70.667 -238 -149.667 -238 -237c0 -38 26 -72 78 -102c49.333 -30.667 112 -46 188 -46c148 0 331 44 549 132
c101.333 -38.667 199.666 -81 294.999 -127c96 -46.667 202.667 -104 320 -172c245.333 -142 435 -272 569 -390c24.667 -24 48 -36 70 -36c27.333 0 54.666 23 82 69l57 131l70 209c21.333 65.333 39 143.333 53 234l-99 41v-50c0 -21.333 -2.66699 -43 -8 -65l-8 -62
c-109.333 96 -245.666 187.667 -409 275c-139.333 73.333 -291 138.666 -455 195.999c272.667 139.333 483 298 631 476c188 220.667 282 465 282 733c0 276 -102.333 495.667 -307 659c-180 139.333 -410.667 209 -692 209c-158.667 0 -310.334 -24.667 -455.001 -74
c-147.333 -51.333 -279.666 -126.333 -396.999 -225c-117.333 -98 -217 -229 -299 -393c-38 -82 -66.667 -160 -86 -234c-19.333 -76 -29 -155 -29 -237c0 -286.667 136.667 -546 410 -778zM839.999 102.001c-120.667 -51.333 -246.333 -77 -377 -77
c-79.333 0 -142.333 6.66699 -189 20c-48.667 10.667 -75.667 27 -81 49c0 22 21.667 45.333 65 70c49.333 19.333 105.333 29 168 29c52 0 114.667 -8.33301 188 -25c36 -8 66.333 -15 91 -21c21.333 -5.33301 66.333 -20.333 135 -45z" />
    <glyph glyph-name="R" unicode="R" horiz-adv-x="3088" 
d="M225 352c-60 104 -90.001 226.997 -90.001 368.997c0 398.667 187 756.334 561 1073c371.333 314 794.666 471 1270 471c196.667 0 347 -43.667 451 -131c106 -82 159 -203.667 159 -365c0 -267.333 -116 -511.666 -348 -732.999
c-199.333 -185.333 -441 -317.666 -725 -396.999l25 66l135 393c90 308.667 172 543.334 246 704.001c54.667 128.667 128.334 261.334 221.001 398.001l-49 32c-84.667 -40.667 -164 -84.334 -238 -131c-76 -48.667 -152.333 -106 -229 -172
c-139.333 -120 -255.333 -253.667 -348 -401c-79.333 -142 -149 -316.667 -209 -524l-135 -545c-54.667 -221.333 -110.667 -390.666 -168 -507.999c130.667 16 265.667 54.333 405 115c74 24 131.333 66.333 172 127c14 21.333 60.333 141.333 139 360
c123.333 -199.333 242.333 -345.333 357 -438c144.667 -114.667 319.334 -172 524.001 -172c128.667 0 264 25.667 406 77c139.333 49.333 269 115 389 197v78c-52 -32.667 -93 -57.334 -123 -74.001c-30 -18.667 -72.333 -39 -127 -61s-113.334 -33 -176 -33
c-101.333 0 -235.333 82 -402 246c-166.667 160.667 -346.667 241 -540 241h-107c352.667 41.333 660 139.666 922 294.999c330 199.333 495 456 495 770c0 216 -90 381.333 -270 496c-182.667 112 -450.334 168 -803.001 168c-155.333 0 -302.666 -11 -441.999 -33
c-142 -22 -291 -58.667 -447 -110c-335.333 -106.667 -601.333 -258.334 -798 -455.001c-235.333 -229.333 -353 -501 -353 -815c0 -194 61.667 -400.333 185 -619z" />
    <glyph glyph-name="S" unicode="S" 
d="M2089 680l-200.999 61.001c-65.333 14 -107.666 23.667 -126.999 29c-18.667 2.66699 -51.334 12.334 -98.001 29.001c0 142 -72.333 337 -217 585c-74 128.667 -127.333 236.667 -160 324c-35.333 87.333 -53 161 -53 221c0 96 27.333 179.333 82 250
c52 68 114.667 102 188 102c106.667 0 160 -58.667 160 -176c0 -43.333 -2.66699 -80 -8 -110c-5.33301 -32.667 -17.666 -71 -36.999 -115c-24.667 -74 -74 -160 -148 -258c128.667 24.667 236.667 71 324 139c101.333 84.667 152 185.667 152 303
c0 79.333 -41 146.333 -123 201c-82 52 -188.667 78 -320 78c-212.667 0 -394.334 -56 -545.001 -168c-152.667 -112 -229 -247.333 -229 -406c0 -122.667 43.667 -275.334 131 -458.001l230 -430c-131.333 21.333 -279 32 -443 32
c-196.667 0 -367.334 -32.667 -512.001 -98c-185.333 -87.333 -278 -222.333 -278 -405c0 -136.667 61.333 -247.334 184 -332.001s298.667 -127 528 -127c300.667 0 546.667 56 738 168c242.667 139.333 364 345.333 364 618l111 -37c38 -13.333 79 -31 123 -53
c30 -13.333 61.333 -28.333 94 -45c30 -19.333 71 -44 123 -74zM1118 823.001c16.667 -62.667 25 -125.334 25 -188.001c0 -166.667 -48 -310 -144 -430c-103.333 -131.333 -238.333 -197 -405 -197c-109.333 0 -195.333 31.333 -258 94
c-62.667 60.667 -94 141.334 -94 242.001c0 182.667 76.333 313.667 229 393c117.333 62.667 274.333 94 471 94z" />
    <glyph glyph-name="T" unicode="T" horiz-adv-x="2687" 
d="M410 745c-118 210.667 -176.999 393.667 -176.999 549c0 448 333.333 672 1000 672l328 -16l286 -13l471 -32l246 -13l254 -4c57.333 0 108 43.667 152 131c40.667 87.333 61 169.333 61 246c0 22 -26 33 -78 33h-57h-53h-45c-54.667 0 -112 1.33301 -172 4
c-60.667 2.66699 -123.667 8 -189 16c-172 0 -323.667 5.66699 -455 17c-130.667 8 -265.667 18.667 -405 32c-371.333 0 -691 -83 -959 -249c-322 -199.333 -483 -474 -483 -824c0 -180 72.333 -376.333 217 -589l1168 40c-136.667 68.667 -288.334 103 -455.001 103
c-172 0 -314 -39.667 -426 -119c-128.667 -90 -193 -223.667 -193 -401c0 -126 47.833 -224.5 143.5 -295.5s226.834 -106.5 393.501 -106.5c218.667 0 422 39.667 610 119c186 79.333 340.333 198 463 356c106.667 134 194 317 262 549l242 856l-41 41
c-267.333 -114.667 -465.333 -281 -594 -499c-54.667 -93.333 -132.334 -295.666 -233.001 -606.999c-82 -242.667 -181.667 -425.334 -299 -548.001c-54.667 -54.667 -125.667 -100 -213 -136c-90.667 -38 -176.667 -57 -258 -57c-114.667 -0 -211.667 27.333 -291 82
c-74 57.333 -111 128.333 -111 213c0 142 68.333 255.333 205 340c120 70.667 266 106 438 106h107c32.667 -8 68 -14.667 106 -20c36 -5.33301 75.667 -19 119 -41l25 65h-1110z" />
    <glyph glyph-name="U" unicode="U" horiz-adv-x="3465" 
d="M410 344c-71.333 90 -122.002 174.668 -152.002 254.001c-32.667 76.667 -49 157.334 -49 242.001c0 281.333 166.667 589.666 500 924.999c330 333.333 633 500 909 500c92.667 0 139 -34 139 -102c0 -30 -12.333 -68.333 -37 -115l-704 -1360
c-49.333 -98 -74 -205.667 -74 -323c0 -123.333 31.333 -224.666 94 -303.999c60 -78.667 157 -118 291 -118c166.667 0 340 106.333 520 319c76.667 92.667 197 271.667 361 537c112 177.333 237.667 395.666 377 654.999l344 668l16 -8l-594 -1274l-94 -262
c-10.667 -38.667 -20.334 -78.334 -29 -119.001c-8 -44 -12 -79.667 -12 -107c0 -122.667 53.333 -221 160 -295c103.333 -76 239.666 -114 409 -114c114.667 0 225.334 19 332 57c122.667 35.333 238.667 83 348 143v66l-319 -123c-106.667 -40.667 -206.334 -61 -299 -61
c-54.667 0 -98.334 12 -131 36c-24.667 24.667 -37 59 -37 103c0 38 2.66699 65.333 8 82l41 114l848 1946l-656 -90c-35.333 -76.667 -85.666 -177.667 -150.999 -303c-65.333 -128.667 -140.333 -268 -225 -418l-328 -549c-101.333 -164 -198.333 -308.667 -291 -434
c-240 -330.667 -417.333 -496 -532 -496c-38.667 0 -58 19.333 -58 58c0 18.667 5.66699 39 17 61c8 27.333 18.667 49.333 32 66l775 1577c48.667 87.333 73 174.666 73 261.999c0 202 -167.667 303 -503 303c-393.333 0 -767.666 -132.333 -1123 -397
c-180 -131.333 -323.333 -281.666 -430 -450.999c-106.667 -172 -160 -334.333 -160 -487c0 -60 5.5 -114.667 16.5 -164s32.833 -105.333 65.5 -168c60 -120 144.667 -244.333 254 -373z" />
    <glyph glyph-name="V" unicode="V" horiz-adv-x="3351" 
d="M410 446c-161.333 112 -241.999 265.003 -241.999 459.003c0 147.333 57.333 301.666 172 462.999c112 161.333 267.667 314.333 467 459c199.333 142 432.666 252.667 699.999 332c139.333 38 270.5 66.5 393.5 85.5s252.833 28.5 389.5 28.5
c13.333 -5.33301 21.333 -10.666 24 -16l-33 -33c-316.667 -185.333 -589.667 -406.333 -819 -663c-139.333 -161.333 -244.333 -318.333 -315 -471c-71.333 -156 -107 -309 -107 -459c0 -196.667 74 -360.667 222 -492c147.333 -130.667 334.333 -196 561 -196
c414.667 0 786 202 1114 606c308.667 387.333 463 797 463 1229c0 177.333 -41 315 -123 413c-84.667 96 -203.667 144 -357 144c-90 0 -137.667 -12.333 -143 -37l33 -90c22 -38.667 39.667 -96 53 -172l16 -230c0 -210 -39.333 -443.333 -118 -700
c-93.333 -308.667 -211 -558.667 -353 -750c-172 -237.333 -359 -356 -561 -356c-190.667 0 -286 120 -286 360c0 230 86 542.667 258 938c172 396 357.667 699.333 557 910c16 22 26.667 45 32 69c0 24.667 -19 42.667 -57 54l-151 16l-111 -4
c-259.333 0 -497 -22 -713 -66c-215.333 -43.333 -421.333 -113 -618 -209c-483.333 -234.667 -725 -580 -725 -1036c0 -122.667 26 -233.334 78 -332.001c48.667 -100.667 131.667 -200.334 249 -299.001z" />
    <glyph glyph-name="W" unicode="W" horiz-adv-x="3686" 
d="M258 1622c38 131.333 102.335 222.668 193.002 274.001c70.667 41.333 170.334 62 299.001 62l241 -12l185 -9c130.667 0 271 22 421 66l410 139l8 -8c-174.667 -74 -319.334 -153.333 -434.001 -238c-117.333 -84.667 -217 -180 -299 -286
c-114.667 -147.333 -209 -336 -283 -566c-73.333 -232 -110 -457 -110 -675c0 -136.667 16.333 -242 49 -316c35.333 -68 92.666 -102 171.999 -102c82 0 166.667 56 254 168s198 307.333 332 586l192 376c46.667 104 100 210.667 160 320s132.333 230.666 217 363.999
c188.667 300.667 309 451 361 451c13.333 -10.667 20 -20.334 20 -29.001c0 -22 -6.66699 -39.667 -20 -53l-349 -516c-130.667 -207.333 -234.334 -400 -311.001 -578c-90 -212.667 -135 -410.667 -135 -594c0 -150 41 -271.333 123 -364s194 -139 336 -139
c128 0 271.167 46.333 429.5 139s315.5 225 471.5 397c172 186 308.333 389.667 409 611c101.333 220.667 152 436.334 152 647.001c0 166.667 -45 307.334 -135 422.001c-92.667 112 -207.334 168 -344 168c-52 0 -95.667 -7 -131 -21c-36 -13.333 -56.667 -27 -62 -41
c46.667 -57.333 83.667 -123 111 -197c27.333 -76 41 -155 41 -237c0 -322 -104 -719.333 -312 -1192c-32.667 -76.667 -68 -150.334 -106 -221.001c-40.667 -71.333 -80.334 -133 -119 -185c-76.667 -100.667 -138 -151 -184 -151c-90 0 -135 146 -135 438
c0 246 38 520.333 114 823l263 865c0 24.667 -8.33301 46.334 -25 65c-19.333 16.667 -46.666 27.667 -81.999 33c-52 0 -123 -49 -213 -147c-62.667 -82 -126.667 -171 -192 -267c-66 -95.333 -137 -205.666 -213 -330.999c-128.667 -208 -245 -418.333 -349 -631
l-209 -443c-16 -38 -32.333 -73.333 -49 -106c-16 -32.667 -35 -68.334 -57 -107.001c-74 -138.667 -126 -208 -156 -208l-16 4l-8 12c24.667 70.667 69.667 173 135 307l90 189l168 487l152 496c65.333 193.333 119.666 323 162.999 389c90.667 139.333 207 209 349 209h57
v65l-82 -8c-84.667 0 -291 28.667 -619 86c-172 27.333 -298.667 41 -380 41c-238 0 -451.167 -61.5 -639.5 -184.5s-319.5 -296.5 -393.5 -520.5z" />
    <glyph glyph-name="X" unicode="X" horiz-adv-x="3424" 
d="M3432 2306c-65.333 35.333 -134.67 52.998 -208.003 52.998c-153.333 0 -327 -72.333 -521 -217c-139.333 -100.667 -274.333 -227.667 -405 -381l29 176c0 270.667 -229.667 406 -689 406c-362.667 0 -699.667 -97 -1011 -291c-363.333 -224 -545 -508 -545 -852
c0 -79.333 12.333 -153 37 -221s68.334 -137.667 131.001 -209l45 37l-29 82l-8 102c0 262 149 540.667 447 836c294.667 292 574.334 438 839.001 438c82 0 146.333 -23.333 193 -70c46 -40.667 69 -96.334 69 -167.001c0 -52 -9.33301 -101.333 -28 -148l-209 -647h-377
l-135 -160h454c-8 -30 -24.333 -60 -49 -90l-229 -262l-283 -311c-35.333 -54.667 -96.666 -123 -183.999 -205c-101.333 -92.667 -177.666 -139 -228.999 -139c-54.667 0 -93 53 -115 159c-16.667 106.667 -40 160 -70 160c-13.333 0 -39.333 -28.667 -78 -86l-49 -94
c-18.667 -38.667 -37.667 -82.334 -57 -131.001c0 -41.333 27.333 -74.333 82 -99c60 -21.333 113.333 -32 160 -32c163.333 0 347.666 77.667 552.999 233c106 82 257.333 222.667 454 422l-16 -135c0 -161.333 73.667 -293.666 221 -396.999
c139.333 -93.333 303.333 -140 492 -140c322 0 606 106.667 852 320c242.667 212.667 364 461 364 745c0 90 -23.333 170.667 -70 242c-46 68 -103.333 102 -172 102c-13.333 0 -22.666 -16.333 -28 -49l12 -94l33 -119c0 -229.333 -90.333 -458.666 -271 -687.999
c-188 -246 -396.667 -369 -626 -369c-96 0 -165.667 33 -209 99c-44 62.667 -66 140.334 -66 233.001c0 27.333 1.33301 57.333 4 90c0 32.667 9.66699 76.334 29 131.001l131 496h336l135 160h-434l16 41c218.667 267.333 384 462.333 496 585c254 276 438.333 414 553 414
c62.667 0 107.667 -30 135 -90z" />
    <glyph glyph-name="Y" unicode="Y" horiz-adv-x="3498" 
d="M578 520c-88 98.667 -153.668 195.666 -197.001 290.999c-46.667 92.667 -70 188.334 -70 287.001c0 327.333 192.667 638.666 578 933.999c112 81.333 221.333 148 328 200c106 49.333 198.667 74 278 74c40.667 0 69.334 -12.333 86.001 -37s27.667 -58.667 33 -102
l-12 -86l-603 -1319c-30 -62.667 -55.667 -131 -77 -205c-16.667 -70.667 -25 -141.667 -25 -213c0 -109.333 27.333 -198 82 -266c52 -68.667 142 -103 270 -103c216 0 451 140.667 705 422c98 109.333 196.167 236.333 294.5 381s203.5 318 315.5 520
c112 199.333 247.333 465.666 406 798.999l8 -8l-172 -401l-152 -385l-205 -558l-176 -466l-8 -37c-284 -101.333 -490 -187.333 -618 -258c-265.333 -150.667 -398 -310.667 -398 -480c0 -57.333 23.333 -105 70 -143s105.334 -57 176.001 -57
c125.333 0 272.666 38 441.999 114c169.333 74 332 169.667 488 287c84.667 71.333 161 156 229 254c27.333 38 58.666 87 94 147c33.333 60.667 66.333 126.334 99 197.001c194 32.667 389 49 585 49l70 111c-60 0 -117.333 -1.33301 -172 -4s-108 -8.33398 -160 -17.001
l-291 -49c16.667 22 30.334 53.333 41.001 94l689 1856l-623 -94c-186 -374 -392.333 -733.333 -619 -1078c-267.333 -409.333 -525.333 -730 -774 -962c-18.667 -22 -55.334 -52.167 -110.001 -90.5s-102.667 -60.166 -144 -65.499c-30 0 -45 19.333 -45 58
c0 24 8.33301 51.333 25 82l713 1568c43.333 96 65 183.333 65 262c0 235.333 -162.333 353 -487 353c-350 0 -672.333 -93 -967 -279c-338.667 -215.333 -508 -485.666 -508 -810.999c0 -144.667 31.333 -284 94 -418c33.333 -68 73 -134.667 119 -200
c44 -66 101.333 -134.333 172 -205zM2241 159.999c-74 -210.667 -186.167 -396.501 -336.5 -557.501s-289.5 -241.5 -417.5 -241.5c-27.333 0 -49.333 8.33301 -66 25c-18.667 16 -31 39 -37 69c0 92.667 72.667 199.334 218 320.001c92.667 84.667 190.667 159.667 294 225
c101.333 62.667 216.333 116 345 160z" />
    <glyph glyph-name="Z" unicode="Z" horiz-adv-x="2830" 
d="M2712 1294l-394.004 -0.00292969c66 84.667 146.667 214.334 242 389.001c106.667 196.667 184.334 332 233 406l21 29l8 16c-19.333 13.333 -35.666 20 -49 20l-102 -16l-127 -24c-90.667 0 -254.667 38 -492 114c-125.333 38.667 -234.666 67.334 -327.999 86
c-95.333 19.333 -185.333 29 -270 29c-289.333 0 -568 -127 -836 -381c-267.333 -256.667 -401 -532.334 -401 -827.001c0 -131.333 38.333 -242 115 -332c73.333 -92.667 167.333 -139 282 -139c180.667 0 348.667 110.333 504 331c139.333 202 209 398.667 209 590
c0 38 -12.333 99.333 -37 184s-54.667 127 -90 127c-16 0 -25.667 -15 -29 -45l13 -90c0 -188 -49.333 -396.667 -148 -626c-120 -276 -260.667 -414 -422 -414c-62.667 0 -118.667 28.667 -168 86c-40.667 57.333 -61 135 -61 233c0 218.667 54.667 437.334 164 656.001
c130.667 262 291.667 393 483 393c84.667 0 236.334 -28.667 455.001 -86c109.333 -27.333 203.333 -47.666 282 -60.999c79.333 -14 150.333 -21 213 -21c66 0 137 7 213 21c76.667 10.667 146.334 21.334 209 32.001c63.333 11.333 123.666 25 181 41
c-202.667 -95.333 -376.334 -199 -521 -311c-147.333 -112 -286.333 -252.667 -417 -422h-246l-107 -156h250l-233 -360c-93.333 -142 -180.666 -254 -261.999 -336h-50l-360 16c-169.333 0 -331.666 -20.333 -486.999 -61c-224 -57.333 -336 -151.666 -336 -282.999
c0 -40.667 24.333 -77.334 73 -110.001c46.667 -32.667 108.334 -49 185.001 -49c82 0 177.333 17.667 286 53c109.333 32.667 229.666 79 360.999 139l61 -8l353 -86l376 -70c79.333 -8 150.333 -14.667 213 -20c60.667 -5.33301 118 -8 172 -8
c158.667 0 315.667 30 471 90c153.333 57.333 332.333 155.666 537 294.999l-16 49l-238 -45l-258 -13h-221c-65.333 8.66699 -113 14.334 -143 17.001l-365 41l-369 33h-61c322 177.333 541.667 312.333 659 405c114.667 90 220 199.333 316 328h401zM605.996 151.997
c-40.667 -16.667 -89.667 -34.668 -147 -54.001c-32.667 -10.667 -73.667 -23 -123 -37c-52 -13.333 -95.667 -22.666 -131 -27.999s-76.333 -8 -123 -8c-71.333 0 -122 8 -152 24c-30 14 -46.333 34.667 -49 62c0 70.667 87.333 106 262 106c158.667 0 313 -21.667 463 -65
z" />
    <glyph glyph-name="bracketleft" unicode="[" horiz-adv-x="1282" 
d="M770 2318l-1040 -2949h856l28 86h-335l987 2786h344l20 77h-860z" />
    <glyph glyph-name="backslash" unicode="\" horiz-adv-x="1393" 
d="M463 2318h-213l868 -2949h217z" />
    <glyph glyph-name="bracketright" unicode="]" horiz-adv-x="1282" 
d="M410 -631l1032 2949h-864l-25 -77h336l-983 -2786h-344l-25 -86h873z" />
    <glyph glyph-name="asciicircum" unicode="^" horiz-adv-x="1769" 
d="M1913 950l-922 1483h-33l-1024 -1483h664l561 828l504 -828h250z" />
    <glyph glyph-name="underscore" unicode="_" horiz-adv-x="1769" 
d="M16 -336v-295h1704v295h-1704z" />
    <glyph glyph-name="grave" unicode="`" horiz-adv-x="770" 
d="M-29 2343h549l152 -926h-213z" />
    <glyph glyph-name="a" unicode="a" 
d="M1778 1343l-537.001 -94c-60 68.667 -157 103 -291 103c-245.333 0 -469 -108 -671 -324c-202.667 -215.333 -304 -448.666 -304 -699.999c0 -120.667 39.667 -211 119 -271c68.667 -51.333 161.667 -77 279 -77c48.667 0 95 2.66699 139 8
c40.667 5.33301 88.334 16 143.001 32c96 30.667 179.333 69 250 115c41.333 -52 96 -94.333 164 -127c30 -10.667 64 -20 102 -28c36 -8.66699 73 -13 111 -13c120 0 244.333 27.333 373 82c128 52 240 113.333 336 184l-29 37c-40.667 -27.333 -79 -50.333 -115 -69
c-16 -8.66699 -59.667 -29.334 -131 -62.001c-90 -35.333 -161 -53 -213 -53c-48.667 0 -84 11 -106 33s-33 52 -33 90c0 30 2.66699 53.333 8 70l21 57zM1200 1192l-286.998 -745.998l-24 -98l-17 -86l17 -69l-139 -70c-44 -14 -88 -23.667 -132 -29
c-40.667 0 -72 13.667 -94 41c-24.667 24.667 -37 65.667 -37 123s19.167 144.666 57.5 261.999s88.833 247 151.5 389c63.333 139.333 116.666 237.666 159.999 294.999c46.667 52 100 78 160 78c73.333 0 134.666 -30 183.999 -90z" />
    <glyph glyph-name="b" unicode="b" horiz-adv-x="1729" 
d="M1176 2318l-553 -101.999l-598 -1696l-33 -114l-17 -95c0 -95.333 43.667 -174.333 131 -237c84.667 -66 192.667 -99 324 -99c144.667 0 279.834 35.5 405.501 106.5s271.834 189.833 438.501 356.5c76.667 -48.667 146.334 -86.667 209.001 -114
c43.333 -16.667 108.666 -31.667 195.999 -45l50 122l-74 -24l-74 -8c-49.333 0 -93 9.33301 -131 28c-40.667 16.667 -73.334 34.5 -98.001 53.5l-58 45.5c63.333 103.333 112.666 204.333 147.999 303c35.333 95.333 53 184 53 266c0 104 -27.333 188.667 -82 254
s-125.667 98 -213 98c-84.667 0 -151.667 -31.333 -201 -94c-51.333 -62.667 -77 -148.667 -77 -258c0 -84.667 9.33301 -158.334 28 -221.001c19.333 -62.667 60.333 -144.667 123 -246c-79.333 -152.667 -147.666 -266 -204.999 -340c-112 -144.667 -217 -217 -315 -217
c-40.667 0 -72 9.66699 -94 29c-16.667 18.667 -26.334 46 -29.001 82l8 53l17 57zM1106 680.001c-30 54.667 -56 115.999 -78 183.999c-13.333 68.667 -20 138.334 -20 209.001c0 174.667 32.667 262 98 262c57.333 0 86 -72.333 86 -217
c0 -114.667 -28.667 -260.667 -86 -438z" />
    <glyph glyph-name="c" unicode="c" horiz-adv-x="1393" 
d="M1393 270c-126 -68 -247.665 -123.999 -364.998 -167.999c-114.667 -35.333 -214.334 -53 -299.001 -53c-161.333 0 -242 69.667 -242 209c0 186 59 395 177 627c130.667 267.333 278 401 442 401c24.667 0 46.334 -8 65.001 -24c19.333 -16.667 31.666 -40 36.999 -70
c0 -38 -103.667 -135 -311 -291c-101.333 -76.667 -152 -150.334 -152 -221.001c0 -95.333 50.667 -143 152 -143c109.333 0 205 57.333 287 172c79.333 112 119 230.667 119 356c0 90 -22 161 -66 213c-52 60 -128.333 90 -229 90
c-248.667 0 -482.334 -110.667 -701.001 -332c-221.333 -224 -332 -460 -332 -708c0 -134 75.333 -231 226 -291c106 -41.333 241 -62 405 -62c300.667 0 573.667 86 819 258z" />
    <glyph glyph-name="d" unicode="d" horiz-adv-x="2023" 
d="M2007 270c-40.667 -30 -79.001 -55.667 -115.001 -77c-35.333 -22 -85.666 -45.333 -150.999 -70c-68.667 -27.333 -131.667 -41 -189 -41c-108.667 0 -163 43.667 -163 131c0 30 6.66699 60 20 90l705 2015l-553 -102l-336 -950c-104 70.667 -214.667 106 -332 106
c-224 0 -434.333 -116 -631 -348c-196.667 -234.667 -295 -469.667 -295 -705c0 -117.333 38.333 -203.333 115 -258c74 -57.333 169.667 -86 287 -86c103.333 0 203 15 299 45c92.667 30.667 171.667 69 237 115c74 -106.667 212 -160 414 -160c270 0 510.333 86 721 258z
M1200 1176l-295 -807.001l-24 -111l8 -65l-131 -78c-44 -16.667 -92 -27.667 -144 -33c-38 0 -73.333 12.333 -106 37c-24.667 24.667 -37 68.334 -37 131.001c0 73.333 15 155.333 45 246l98 274c79.333 207.333 146.333 348 201 422s116 111 184 111
c84.667 0 151.667 -42.333 201 -127z" />
    <glyph glyph-name="e" unicode="e" horiz-adv-x="1434" 
d="M1401 270c-229.333 -147.333 -442.335 -221.004 -639.002 -221.004c-84.667 0 -151.667 24.667 -201 74c-13.333 16 -25.666 35 -36.999 57c-18.667 38.667 -28 82.334 -28 131.001l16 115c218.667 82 393.334 185.667 524.001 311c131.333 123.333 197 250.333 197 381
c0 161.333 -109.333 242 -328 242c-264.667 0 -485.667 -109.333 -663 -328c-178 -218 -267 -461 -267 -729c0 -131.333 63 -225.666 189 -282.999c90 -35.333 208.667 -53 356 -53c92.667 0 180 4.33301 262 13c79.333 8 153.333 21.333 222 40
c68 16.667 137.333 41.334 208 74.001c68.667 32.667 142.667 76.334 222 131.001zM519.998 495.996c57.333 193.333 114.667 353 172 479c98.667 229.333 187.334 344 266.001 344c54.667 0 82 -26 82 -78c0 -90 -66.667 -222.333 -200 -397
c-106.667 -144.667 -213.334 -260.667 -320.001 -348z" />
    <glyph glyph-name="f" unicode="f" horiz-adv-x="1393" 
d="M1393 279l-180.997 -73.9971c-48.667 -19.333 -111.334 -41.333 -188.001 -66c-112 -30 -226.667 -45 -344 -45l176 651c221.333 221.333 382.333 416.666 483 585.999c142 243.333 213 485 213 725c0 207.333 -61.333 311 -184 311
c-117.333 0 -248.333 -80.333 -393 -241c-109.333 -122.667 -199.333 -258 -270 -406c-46.667 -90 -94.667 -199 -144 -327c-27.333 -79.333 -60 -183.333 -98 -312c-41.333 -130.667 -72.666 -233 -93.999 -307c0 76.667 -5.66699 130 -17 160c-22 60 -61.667 90 -119 90
c-78.667 0 -146.667 -88.667 -204 -266c-41.333 -136.667 -62 -261 -62 -373c0 -82 15 -146 45 -192c30 -38.667 87.333 -74.334 172 -107.001l-110 -397l-41 -193c0 -24.667 9.33301 -42.334 28 -53.001c19.333 -14 57.666 -21 114.999 -21c84.667 0 164 7 238 21
c73.333 10.667 115.666 47.667 126.999 111l28 159l95 320c147.333 0 279.666 15 396.999 45c62.667 16 122.667 36.333 180 61s116 56 176 94zM201.003 143.003c-30 16.667 -49.334 34.667 -58.001 54c-10.667 18.667 -16 48.667 -16 90c0 82 19 191 57 327
c38.667 134 78.334 201 119.001 201c24.667 0 37 -21.667 37 -65c0 -36 -5.33301 -71.667 -16 -107l-21 -74zM905.002 889.003l160.001 553.001l115 377c21.333 76 45.666 151 72.999 225c24.667 73.333 42.5 123.666 53.5 151c11 27.333 26.167 50.666 45.5 70
c18.667 16.667 37.667 25 57 25c27.333 0 41 -27.333 41 -82c0 -62.667 -32.667 -203.334 -98 -422.001c-112 -371.333 -261 -670.333 -447 -897z" />
    <glyph glyph-name="g" unicode="g" 
d="M1778 1335l-496.003 -85.998c-43.333 36 -95.333 66 -156 90c-62.667 24.667 -128 37 -196 37c-254 0 -479.333 -116 -676 -348c-186 -218.667 -279 -452 -279 -700c0 -112 42.333 -195.333 127 -250c84.667 -57.333 191.334 -86 320.001 -86c65.333 0 132.333 8 201 24
c68 16.667 129.333 38.667 184 66l-62 -193c-330 -48.667 -495 -157.667 -495 -327c0 -57.333 23 -104 69 -140c54.667 -35.333 121.667 -53 201 -53c156 0 305 49.333 447 148c139.333 95.333 236 216.666 290 363.999l189 74c92.667 38 170.334 73.333 233.001 106
c106.667 49.333 210.667 112.333 312 189l-29 45c-251.333 -152.667 -476.666 -256.334 -675.999 -311.001zM728.997 -175.998c-79.333 -256.667 -179 -385 -299 -385c-74 0 -111 32.667 -111 98c0 60 38.333 118.667 115 176c74 49.333 172.333 86.333 295 111zM1208 1208
l-360.001 -1015c-24.667 -27.333 -63 -54.666 -115 -81.999c-54.667 -27.333 -105 -41 -151 -41c-36 0 -64.667 10.667 -86 32c-22 22 -33 60.333 -33 115c0 46.667 12.333 109.667 37 189l78 217c90 262 167.667 442 233 540c65.333 98.667 139 148 221 148
c76.667 0 135.334 -34.333 176.001 -103z" />
    <glyph glyph-name="h" unicode="h" horiz-adv-x="2056" 
d="M1200 2318l-561 -110l-672 -1823c-27.333 -54.667 -41 -110.667 -41 -168c0 -76.667 23.333 -138 70 -184c46.667 -49.333 112.334 -74 197.001 -74c90 0 148.667 7 176 21c27.333 10.667 58.666 48.667 93.999 114c128 232 225 397.333 291 496
c103.333 158 218 311 344 459l135 147c32.667 32.667 56 50.334 70 53.001l16 -8l-16 -33l-287 -704l-37 -131l-21 -115c0 -90 39.667 -161 119 -213s184.666 -78 315.999 -78c122.667 0 240 22 352 66c109.333 43.333 218.666 107.333 327.999 192l-25 37l-242 -131
c-87.333 -43.333 -169 -65 -245 -65c-41.333 0 -70 12 -86 36c-19.333 22 -29 52.333 -29 91l4 77l29 82l241 586c30 68 45 129.333 45 184c0 66 -20.333 120.667 -61 164c-41.333 44 -105.666 66 -192.999 66c-196 0 -396.667 -127 -602 -381
c-65.333 -84.667 -130.666 -180.334 -195.999 -287.001c-66 -109.333 -130.333 -231 -193 -365l-119 -237l-32 -33l-9 17l9 20z" />
    <glyph glyph-name="i" unicode="i" horiz-adv-x="1065" 
d="M881 1368l-562.004 -118.998l-311 -856c-5.33301 -10.667 -10.666 -29.667 -15.999 -57c-8 -30 -13.667 -56 -17 -78c0 -92.667 45.333 -162.334 136 -209.001c87.333 -49.333 192.333 -74 315 -74c237.333 0 461.333 91.667 672 275l-33 29l-213 -140
c-82 -48.667 -161.333 -73 -238 -73c-51.333 0 -86.666 9.33301 -105.999 28c-19.333 19.333 -31.666 50.666 -36.999 93.999c2.66699 27.333 5.33398 47.833 8.00098 61.5s11 34.167 25 61.5zM790.996 2159c-84.667 0 -153 -30.333 -205 -91c-46.667 -60 -70 -128 -70 -204
c0 -71.333 24.667 -137 74 -197s116.333 -90 201 -90c90 0 161 30 213 90c48.667 57.333 73 124.333 73 201c0 73.333 -24.333 140 -73 200c-49.333 60.667 -120.333 91 -213 91z" />
    <glyph glyph-name="j" unicode="j" horiz-adv-x="1393" 
d="M1167 1368c-352 -57.333 -596.329 -116.001 -732.996 -176.001c-262 -114.667 -393 -293.667 -393 -537l61 -8c16.667 128.667 70 242 160 340c87.333 95.333 192.666 155.333 315.999 180l-226 -647c-48.667 0 -92.334 -5.33301 -131.001 -16
c-38 -14 -77.667 -34.667 -119 -62c-84.667 -54.667 -127 -129.667 -127 -225c0 -87.333 20.5 -206.166 61.5 -356.499s87.5 -279.833 139.5 -388.5c11.333 -33.333 34.666 -63.5 69.999 -90.5s77.666 -40.5 126.999 -40.5c57.333 0 98.333 27 123 81l352 1024
c79.333 -8 158.333 -29.667 237 -65c60.667 -22 110 -44 148 -66l102 -65l58 102l-185 78l-336 82zM336.004 462.999c-68.667 -210.667 -103 -417 -103 -619c0 -106 8.33301 -216.333 25 -331l-16 -25c-22 13.333 -38.333 35.333 -49 66l-70 278
c-24.667 98.667 -37 190 -37 274c0 98.667 17.667 176.667 53 234c36 57.333 101.667 98.333 197 123zM1016 2159c-84.667 0 -153 -30.332 -205 -90.999c-46.667 -60 -70 -128 -70 -204c0 -79.333 23.333 -146.333 70 -201c46.667 -57.333 115 -86 205 -86s161 30 213 90
c49.333 57.333 74 125.666 74 204.999c0 76.667 -24.667 143.667 -74 201s-120.333 86 -213 86z" />
    <glyph glyph-name="k" unicode="k" 
d="M1184 2318l-553.002 -110l-615 -1753c-24 -63.333 -36 -122 -36 -176c0 -82 25.667 -153 77 -213c54.667 -54.667 134 -82 238 -82c114.667 0 218.334 88.667 311.001 266l123 246c82 -180.667 173.667 -312 275 -394c100.667 -84.667 222 -127 364 -127
c104 0 210.667 20.667 320 62c106 40.667 207 103.334 303 188.001l-29 37c-101.333 -62.667 -188.666 -94 -261.999 -94c-79.333 0 -158.666 39.667 -237.999 119c-92.667 98 -177.334 164.667 -254.001 200c-78.667 33.333 -190.667 50 -336 50c246 0 459 61.333 639 184
c178 120 267 252.333 267 397c0 74 -30 132.667 -90 176c-60.667 44 -140 66 -238 66c-188.667 0 -358 -101 -508 -303c-68 -92.667 -166.333 -274.334 -295 -545.001l-155 -311c-44 -82 -71.333 -124.333 -82 -127l-9 8l9 45zM761.998 561
c43.333 98.667 84.334 183.333 123.001 254c35.333 68.667 79 138.334 131 209.001c87.333 122.667 154.333 184 201 184c46 0 69 -30 69 -90c0 -90 -52 -191 -156 -303c-92.667 -100.667 -215.334 -185.334 -368.001 -254.001z" />
    <glyph glyph-name="l" unicode="l" horiz-adv-x="1106" 
d="M1192 2318l-561.001 -118l-606 -1762l-33 -106l-17 -90c0 -84.667 34.333 -153 103 -205c70.667 -46.667 170.334 -70 299.001 -70c114.667 0 234.667 20.667 360 62c126 40.667 243.667 103.334 353 188.001l-25 41c-194 -122.667 -347 -184 -459 -184
c-49.333 0 -86 8 -110 24c-19.333 19.333 -29 46.666 -29 81.999c0 27.333 2.66699 49.333 8 66l21 57z" />
    <glyph glyph-name="m" unicode="m" horiz-adv-x="2978" 
d="M848 1352l-560.999 -119.001l-287 -795c-24.667 -62.667 -37 -124 -37 -184c0 -82 26 -149 78 -201s131.333 -78 238 -78c60 0 102.333 11 127 33c24 19.333 51 61.666 81 126.999c123.333 251.333 228.666 444 315.999 578c128 204.667 263 378 405 520l49 41l17 -17
l-17 -24l-307 -770c-24.667 -65.333 -37 -131 -37 -197c0 -87.333 23.333 -158.333 70 -213c52 -52 127 -78 225 -78c66 0 112.667 9.66699 140 29c27.333 16.667 61.333 66 102 148l332 581c120 196.667 256.333 371.334 409 524.001l25 17l16 -17l-8 -24l-303 -762
c-27.333 -62.667 -41 -118.667 -41 -168c0 -95.333 39.667 -171.666 119 -228.999c76.667 -60 173.667 -90 291 -90c114.667 0 229.334 23 344 69c114.667 44 233.334 109.667 356 197l-29 37c-204.667 -134 -363 -201 -475 -201c-38 0 -69.333 12.333 -94 37
c-13.333 22 -23 54.667 -29 98l13 82l286 737c16.667 33.333 27.667 69 33 107c0 54.667 -26 106.667 -78 156c-51.333 43.333 -112.666 65 -184 65c-194 0 -378.333 -109.333 -553 -328c-104 -130.667 -216 -323 -336 -577l-176 -381c-8 -14 -19 -25 -33 -33
c-10.667 5.33301 -16 11 -16 17l16 28l344 889c19.333 49.333 29 94.333 29 135c0 68.667 -23.333 126 -70 172c-46 46.667 -108.667 70 -188 70c-164 0 -319.667 -83.333 -467 -250c-104 -114.667 -217.333 -295 -340 -541l-233 -503l-17 -21l-12 8l12 41z" />
    <glyph glyph-name="n" unicode="n" horiz-adv-x="2023" 
d="M848 1335l-552.999 -102.001l-320 -823c-16 -57.333 -24 -110.666 -24 -159.999c0 -84.667 24.667 -151.667 74 -201c46 -49.333 121 -74 225 -74c62.667 0 109 9.66699 139 29s60 60.333 90 123l324 598c136.667 224 280 398.667 430 524l16 8l29 13l-4 -37l-316 -762
l-20 -65l-16 -119c0 -98.667 35.333 -175.334 106 -230.001c71.333 -54.667 173.666 -82 306.999 -82c117.333 0 233.333 23.333 348 70c112 44 225.333 109.667 340 197l-32 37l-279 -164c-30 -11.333 -56 -19.666 -78 -24.999c-24.667 -5.33301 -54.667 -8 -90 -8
c-52 0 -87.5 9.5 -106.5 28.5s-31.167 50.5 -36.5 94.5c0 43.333 13.667 92.333 41 147l270 656l8 102c0 74 -19 134 -57 180c-38 46.667 -102.333 70 -193 70c-229.333 0 -449 -158.333 -659 -475c-101.333 -156 -232.333 -419.667 -393 -791l-33 -28l-8 16l8 20z" />
    <glyph glyph-name="o" unicode="o" horiz-adv-x="1769" 
d="M1815 553c-90.667 -32.667 -179.668 -49.002 -267.001 -49.002c-76 0 -147 13.667 -213 41c38.667 73.333 68.667 151 90 233c8.66699 38.667 15.667 79.667 21 123c5.33301 44 8 90.333 8 139c0 128.667 -27.333 232.5 -82 311.5s-128.334 118.5 -221.001 118.5
c-82 0 -147.667 -32.667 -197 -98c-48.667 -68 -73 -159.333 -73 -274c0 -191.333 64 -359.333 192 -504c-57.333 -147.333 -114.666 -262 -171.999 -344c-95.333 -139.333 -196.333 -209 -303 -209c-90 0 -135 61.333 -135 184c0 191.333 71 430.333 213 717l213 393
c-8 8.66699 -16.333 14.334 -25 17.001c-8 2.66699 -13.333 5.33398 -16 8.00098c-35.333 0 -77.666 -8.33301 -126.999 -25c-49.333 -16 -82 -28.333 -98 -37c-3.33301 0 -24 -10.667 -62 -32c-164 -82 -302 -210.333 -414 -385c-114.667 -175.333 -172 -346 -172 -512
c0 -268 179 -402 537 -402c169.333 0 319.5 41 450.5 123s247.167 214.333 348.5 397c82 -27.333 161 -41 237 -41c98.667 0 193 16.667 283 50zM1106 679.998c-104 136.667 -156 302 -156 496c0 65.333 9.66699 118.333 29 159c16.667 38.667 42.667 58 78 58
c62.667 0 94 -106.667 94 -320l-12 -196z" />
    <glyph glyph-name="p" unicode="p" horiz-adv-x="2167" 
d="M598 1274l-36.9971 -115.001c-136.667 -68 -243 -144.333 -319 -229c-106.667 -112 -160 -229.333 -160 -352v-115c22 70.667 46.667 133.334 74 188.001s62.666 110.667 105.999 168c74 106.667 162.667 194 266 262l-241 -712c-87.333 0 -161 -9.66699 -221 -29
c-60.667 -22 -91 -71 -91 -147c0 -88 59 -152.333 177 -193l-238 -680l557 168l160 455c35.333 0 70.666 1.33301 105.999 4c32.667 2.66699 64 8 94 16c63.333 8 141.333 28.667 234 62l242 -78c38 -8.66699 76 -15.667 114 -21c36 -5.33301 74.333 -8 115 -8
c109.333 0 222.666 34 339.999 102c49.333 27.333 146.333 101.333 291 222l-37 45c-207.333 -191.333 -383.333 -287 -528 -287c-52 0 -109.333 9.66699 -172 29c-63.333 16 -129 40.333 -197 73c158 87.333 291.667 190 401 308c131.333 144.667 197 298.667 197 462
c0 148 -57.333 254.667 -172 320c-95.333 52 -218.333 78 -369 78l-200 -13l28 119zM647.003 -0.000976562l73.999 201l221 -115c-87.333 -57.333 -185.666 -86 -294.999 -86zM754.002 302.999l311.001 889l61 8c63.333 0 112.666 -21.833 147.999 -65.5
s53 -105.167 53 -184.5c0 -109.333 -24.667 -229.333 -74 -360c-48.667 -134 -119.667 -266.333 -213 -397c-98 40.667 -205.667 69.167 -323 85.5s-269 24.5 -455 24.5l-86 -254c-40.667 32.667 -61 73.667 -61 123c0 30 13.667 60 41 90c24.667 27.333 60 41 106 41h492z
" />
    <glyph glyph-name="q" unicode="q" 
d="M1786 1327l-503.997 -94.001c-43.333 46.667 -94 82 -152 106c-60 24.667 -124 37 -192 37c-114.667 0 -229.334 -28.667 -344.001 -86s-214.334 -133.666 -299.001 -228.999s-158.334 -214 -221.001 -356c-66 -145.333 -99 -268.333 -99 -369
c0 -120 42.333 -213 127 -279c74 -51.333 172.333 -77 295 -77c82 0 157.333 9.33301 226 28c76 16.667 142.667 42.667 200 78l-102 -270c-5.33301 -14 -12.333 -41.333 -21 -82c-8 -44 -12 -72.667 -12 -86c0 -82 28.667 -149 86 -201c54.667 -52 124.334 -78 209.001 -78
c65.333 0 122.666 24.667 171.999 74c24.667 24.667 82 123 172 295c49.333 98 150.333 189.333 303 274c202 112 322.333 185.667 361 221l-29 37l-274 -159l-172 -107c-118 -79.333 -228.667 -222.666 -332 -429.999l-37 -61c-14 -22 -27.667 -40 -41 -54
c-2.66699 -2.66699 -6.66699 -5.33398 -12 -8.00098l-4 12l73 177l45 110zM1225 1176l-361 -975l-90 -58c-90 -48.667 -159.667 -73 -209 -73c-68 0 -102 41 -102 123c0 95.333 45 255 135 479c87.333 224 165 389 233 495c54.667 76.667 125.667 115 213 115
c74 0 134.333 -35.333 181 -106z" />
    <glyph glyph-name="r" unicode="r" horiz-adv-x="1360" 
d="M848 1343l-561.001 -109.999l-287 -815c-24.667 -62.667 -37 -122.667 -37 -180c0 -71.333 24.667 -133 74 -185s124.333 -78 225 -78c74 0 130 16.667 168 50c14 13.333 44 66.333 90 159c27.333 57.333 63 128.333 107 213l73 148
c38.667 65.333 79.667 126.666 123 183.999c41.333 -104 100 -184.667 176 -242c74 -48.667 164.333 -73 271 -73l123 12l-17 86c-27.333 -10.667 -54.666 -19 -81.999 -25c-27.333 -5.33301 -58.666 -8 -93.999 -8c-76.667 0 -139.334 22 -188.001 66
c-49.333 40.667 -74 110.334 -74 209.001l4 69l148 144l151 143c65.333 49.333 98 105.333 98 168c0 27.333 -9.33301 47.666 -28 60.999c-22 14 -56.333 23.667 -103 29c-95.333 0 -185.333 -53.333 -270 -160c-87.333 -109.333 -131 -229.333 -131 -360
c-114.667 -174.667 -215.667 -370 -303 -586l-53 -119l-66 -69l16 37z" />
    <glyph glyph-name="s" unicode="s" horiz-adv-x="1327" 
d="M1286 270c-87.333 -70.667 -184.335 -128.002 -291.002 -172.002c-109.333 -43.333 -215.666 -65 -318.999 -65h-49c-16.667 0 -40 2.66699 -70 8c-30 2.66699 -50.333 5.33398 -61 8.00098c-14 2.66699 -37.333 11 -70 25c297.333 87.333 446 233.333 446 438
c0 54.667 -8.16699 112 -24.5 172s-40.833 122.667 -73.5 188c32.667 33.333 67 89.333 103 168l32 86c14 44 21 82.333 21 115c0 41.333 -11 75.333 -33 102c-24.667 27.333 -67 41 -127 41c-144.667 0 -262 -58.667 -352 -176c-74 -103.333 -111 -231.666 -111 -384.999
c0 -82 9.66699 -151.667 29 -209l-131 -131l-139 -131c-54.667 -38 -90.334 -66.667 -107.001 -86c-19.333 -22 -30.333 -46.333 -33 -73c0 -76.667 13.667 -130 41 -160c24.667 -30 64.334 -45 119.001 -45l111 16l163 37c106.667 -40.667 213.334 -61 320.001 -61
c112 0 221.167 20.333 327.5 61s212.833 102 319.5 184zM351.998 93.998l-286 185.002l143 122l143 136l45 -136c16.667 -48.667 25 -92.334 25 -131.001c0 -70.667 -23.333 -129.334 -70 -176.001zM744.998 930l-36.001 135c-11.333 49.333 -18.333 79.333 -21 90v62
c0 70.667 23.333 106 70 106c24.667 0 46.334 -12.333 65.001 -37c16.667 -24.667 27.667 -58.667 33 -102c0 -74 -37 -158.667 -111 -254z" />
    <glyph glyph-name="t" unicode="t" horiz-adv-x="1135" 
d="M496 1872l-216.998 -630.999h-144l-102 -135h200l-258 -696l-24 -160c0 -79.333 36.667 -146.333 110 -201c74 -49.333 176.667 -74 308 -74c125.333 0 255 23.333 389 70c130.667 44 250.667 106.667 360 188l-20 37c-114.667 -65.333 -199.334 -110.333 -254.001 -135
c-106.667 -46 -195.334 -69 -266.001 -69c-49.333 0 -85 10.667 -107 32c-13.333 22 -23 55 -29 99c0 43.333 7 78.666 21 105.999l282 795h205l107 135h-266l266 749z" />
    <glyph glyph-name="u" unicode="u" horiz-adv-x="2023" 
d="M295 1241l-295.001 -785.999l-20 -78l-9 -74c0 -100.667 35.667 -178.334 107 -233.001c70.667 -57.333 167.667 -86 291 -86c190.667 0 381.667 56 573 168c35.333 -57.333 86 -105.333 152 -144c68 -30 137.667 -45 209 -45c111.333 0 245 32.667 401 98
c117.333 49.333 226.666 112.333 327.999 189l-33 37c-87.333 -60 -176 -112 -266 -156c-79.333 -32.667 -147.666 -49 -204.999 -49c-41.333 0 -72.666 9.66699 -93.999 29c-16.667 21.333 -25 50 -25 86c0 32.667 5.33301 66.667 16 102l25 78l373 958l-566 -102
l-299 -787l-24 -94l-12 -90l8 -45l-164 -82c-92.667 -38 -163.667 -57 -213 -57c-76.667 0 -115 38.333 -115 115c0 30 16.333 88.667 49 176l361 974z" />
    <glyph glyph-name="v" unicode="v" horiz-adv-x="1798" 
d="M287 1192l-271 -746.001c-18.667 -46 -32.334 -84 -41.001 -114c-8 -32.667 -13.333 -62.667 -16 -90c0 -90.667 37 -164.667 111 -222c78.667 -51.333 181 -77 307 -77c199.333 0 370 38 512 114c139.333 76.667 277.333 197 414 361c136 -112 275 -168 417 -168l74 8
v94l-106 -12c-63.333 0 -119.333 9.66699 -168 29c-52 16 -113.667 44.667 -185 86c134 234.667 201 432.667 201 594c0 114.667 -24.667 207.334 -74 278.001c-52 71.333 -125.667 107 -221 107c-87.333 0 -157 -33 -209 -99c-54.667 -68 -82 -158 -82 -270
c0 -84.667 13.667 -166.667 41 -246c14 -43.333 30.333 -83 49 -119c16.667 -38 40 -81.667 70 -131c-84.667 -152.667 -155.667 -266 -213 -340c-106.667 -136 -213 -204 -319 -204c-46.667 0 -79.667 10.667 -99 32c-13.333 22 -22.666 55 -27.999 99l4 65l24 82l369 1000
zM1126 630.999l-72.9971 237.001c-8.66699 46.667 -14.334 81 -17.001 103s-4 58.667 -4 110c0 79.333 8.16699 142.166 24.5 188.499s39.5 70.833 69.5 73.5c71.333 0 107 -75 107 -225c0 -43.333 -1.33301 -84.333 -4 -123c-2.66699 -40.667 -8.33398 -87 -17.001 -139
c-10.667 -52 -39.334 -127 -86.001 -225z" />
    <glyph glyph-name="w" unicode="w" horiz-adv-x="2761" 
d="M303 1208l-302.998 -798.001c-19.333 -57.333 -29 -105.333 -29 -144c0 -100.667 41 -178.334 123 -233.001s184.333 -82 307 -82c161.333 0 347 43.667 557 131c76.667 -92.667 218.667 -139 426 -139c360.667 0 662.667 155.667 906 467
c144.667 -98.667 271.667 -148 381 -148l65 8l33 82h-74c-65.333 0 -130.833 8.16699 -196.5 24.5s-125.834 42.5 -180.501 78.5c139.333 210 209 410.667 209 602c0 112 -26 202 -78 270c-54.667 65.333 -127 98 -217 98c-100.667 0 -175.667 -28.667 -225 -86
c-43.333 -60 -65 -137.667 -65 -233c0 -52 2.66699 -97.167 8 -135.5s20.333 -94.166 45 -167.499c22 -74 56 -146.333 102 -217c-73.333 -169.333 -162 -304.666 -266 -405.999c-104 -103.333 -207.667 -155 -311 -155c-38.667 0 -70.334 8 -95.001 24
c-16 16.667 -24 44 -24 82c0 35.333 5.33301 71 16 107l37 98l369 967l-557 -103l-308 -807l-36 -102l-9 -66l17 -82l-168 -69c-65.333 -24.667 -121.333 -37 -168 -37c-41.333 0 -74 11 -98 33c-27.333 18.667 -41 54 -41 106l12 78l20 65l377 992zM2122 638.999
c-38.667 76.667 -67.334 150.333 -86 221c-19.333 71.333 -29 148 -29 230c0 163.333 38.333 245 115 245c62.667 0 94 -75 94 -225c0 -74 -8.33301 -150.333 -25 -229c-16 -79.333 -26.667 -127.333 -32 -144c-16.667 -46 -29 -78.667 -37 -98z" />
    <glyph glyph-name="x" unicode="x" horiz-adv-x="2023" 
d="M127 991c136.667 213.333 293.666 320 470.999 320c76.667 0 130 -19.333 160 -58c32.667 -32.667 49 -81.667 49 -147c0 -41.333 -2.66699 -77 -8 -107c-5.33301 -32.667 -17.666 -75 -36.999 -127l-74 -192c-212.667 -32.667 -367 -71 -463 -115
c-182.667 -82 -274 -198 -274 -348c0 -65.333 30 -121.333 90 -168c57.333 -49.333 127 -74 209 -74c188 0 379 91.667 573 275c41.333 -183.333 198.333 -275 471 -275c142 0 265 18 369 54c109.333 32.667 235 100.667 377 204l-33 37
c-117.333 -65.333 -217 -115.666 -299 -150.999c-117.333 -46.667 -228 -70 -332 -70c-90 0 -155.5 20.5 -196.5 61.5s-61.5 97.167 -61.5 168.5c0 57.333 12.333 126.666 37 207.999l78 201c204.667 41.333 361.667 87.666 471 138.999c191.333 90.667 287 204 287 340
c0 134 -87.333 201 -262 201c-115.333 0 -228.666 -24.667 -339.999 -74c-114.667 -48.667 -211.667 -116.667 -291 -204c-36 87.333 -92 155.333 -168 204c-79.333 46.667 -165.333 70 -258 70c-114.667 0 -229.334 -28.667 -344.001 -86s-205 -133.666 -271 -228.999z
M663.999 594c-104 -213.333 -160.001 -324 -168.001 -332c-90.667 -147.333 -181 -221 -271 -221c-21.333 0 -41.666 8.16699 -60.999 24.5s-29 39.5 -29 69.5c0 90 67 185.667 201 287c100.667 76.667 210 134 328 172zM1274 762
c155.333 360.667 301.333 541.001 438 541.001c57.333 0 86 -28.667 86 -86c0 -68.667 -47.667 -145.334 -143 -230.001c-98.667 -87.333 -225.667 -162.333 -381 -225z" />
    <glyph glyph-name="y" unicode="y" 
d="M295 1266l-270.001 -728.999c-33.333 -106.667 -50 -187.334 -50 -242.001c0 -84.667 31.667 -150.334 95 -197.001c62.667 -48.667 148.667 -73 258 -73c57.333 0 99.666 2.66699 126.999 8c24.667 2.66699 58.667 10.667 102 24l274 111l-94 -250
c-169.333 -27.333 -297.666 -68.333 -384.999 -123c-79.333 -54.667 -119 -123 -119 -205c0 -46 24.667 -88.333 74 -127c49.333 -32.667 115 -49 197 -49c166.667 0 319.667 45 459 135c138.667 90.667 236.667 216.334 294 377.001
c232.667 54.667 474.334 162.667 725.001 324l-20 61c-186 -128 -412.667 -231.667 -680 -311l479 1360l-536 -94l-353 -971c-30 -30 -76.333 -62.667 -139 -98c-84.667 -46.667 -148.667 -70 -192 -70c-63.333 0 -95 38.333 -95 115l33 135l352 991zM728.999 -142.999
l-105.999 -238c-54.667 -92.667 -120.334 -139 -197.001 -139c-71.333 0 -107 36.667 -107 110c0 74 50.667 135.667 152 185z" />
    <glyph glyph-name="z" unicode="z" horiz-adv-x="1585" 
d="M1552 279l-126.998 -57.998c-48.667 -18.667 -92.334 -28 -131.001 -28c-51.333 0 -108.666 21.667 -171.999 65c-147.333 101.333 -244.333 152 -291 152c-81.333 0 -174 -38.333 -278 -115l-303 -262v16c0 62.667 110.667 183 332 361l401 311
c57.333 46.667 107.833 90.334 151.5 131.001s86.167 87 127.5 139c103.333 128.667 155 243.334 155 344.001c0 19.333 -11 29 -33 29c-18.667 0 -40.334 -7 -65.001 -21l-74 -8h-65c-60 0 -106.667 2.66699 -140 8c-32.667 3.33301 -88.667 11.666 -168 24.999
c-78.667 10.667 -142.667 19 -192 25c-52 5.33301 -99.667 8 -143 8c-112 0 -203.667 -26 -275 -78c-73.333 -52 -110 -123 -110 -213c0 -92.667 53 -155.334 159 -188.001h17c5.33301 5.33301 10.666 13.333 15.999 24c5.33301 8 10.666 25.667 15.999 53
c19.333 106.667 96 182 230 226c95.333 27.333 211.333 41 348 41l197 -9c48.667 0 82.667 3 102 9l74 16l-529 -221c-237.333 -98.667 -417.333 -197 -540 -295c-166.667 -136.667 -250 -296.334 -250 -479.001c0 -84.667 21.667 -161.334 65 -230.001
c41.333 -70.667 89.333 -106 144 -106c32.667 0 102.334 41 209.001 123c54.667 40.667 107.667 61 159 61c60 0 135.333 -27.333 226 -82c95.333 -52 169 -78 221 -78c54.667 0 138 26 250 78c112 49.333 215.667 112.333 311 189z" />
    <glyph glyph-name="braceleft" unicode="{" horiz-adv-x="1434" 
d="M479 905c276 38.667 464.334 200 565.001 484c148 426 234.333 651 259 675c43.333 54.667 97.666 98.334 162.999 131.001c27.333 14 60.333 25 99 33c35.333 8.66699 73.333 13 114 13l33 77h-418c-294.667 0 -513 -178.667 -655 -536l-176 -541
c-41.333 -114.667 -86.333 -192.334 -135 -233.001c-49.333 -44 -119 -66 -209 -66l-37 -94c117.333 0 176 -42.333 176 -127c0 -104 -53.333 -284.333 -160 -541c-109.333 -256.667 -164 -439.667 -164 -549c0 -106 57.333 -179.667 172 -221
c84.667 -30 203.667 -45 357 -45l119 4h114l33 86c-52 0 -89 2.66699 -111 8c-24 3.33301 -48.333 11.666 -73 24.999c-54.667 30 -82 83.333 -82 160c0 95.333 50.333 270 151 524c98.667 254 148 420.667 148 500c0 122.667 -94.333 200.334 -283 233.001z" />
    <glyph glyph-name="bar" unicode="|" horiz-adv-x="1769" 
d="M672 2318v-2912h393v2912h-393z" />
    <glyph glyph-name="braceright" unicode="}" horiz-adv-x="1434" 
d="M848 799c-270.667 -46.667 -459 -213.334 -565 -500.001l-164 -483c-49.333 -123.333 -111 -213.666 -185 -270.999c-32.667 -27.333 -73.5 -49.166 -122.5 -65.499s-103.5 -24.5 -163.5 -24.5l-33 -86l209 4l201 4c202 0 364.333 74 487 222
c32.667 40.667 152.667 326 360 856c41.333 114.667 85.333 193.667 132 237c43.333 41.333 114.333 62 213 62l24 94c-117.333 0 -176 42.333 -176 127c0 117.333 53.333 296 160 536c106 240.667 159 425 159 553c0 164 -109 246 -327 246l-213 4l-213 4l-33 -77
c82 0 146.333 -13.667 193 -41c43.333 -27.333 65 -78 65 -152c0 -90 -30 -219.667 -90 -389c-131.333 -360.667 -197 -569.667 -197 -627c0 -130.667 93 -208.334 279 -233.001z" />
    <glyph glyph-name="asciitilde" unicode="~" horiz-adv-x="2359" 
d="M1745 2552c-82 -96 -167.998 -144 -257.998 -144c-68.667 0 -138.334 13.667 -209.001 41c-180 63.333 -292 97.666 -336 103c-84.667 0 -162.5 -31.5 -233.5 -94.5s-144.833 -168.167 -221.5 -315.5l91 -53c32.667 35.333 73.334 66.666 122.001 94
c41.333 14 86.666 23.667 135.999 29c48.667 0 155 -23.333 319 -70c90 -24.667 161 -37 213 -37c101.333 0 195.666 42.333 282.999 127c60 60 120 147.333 180 262z" />
    <glyph glyph-name="nonbreakingspace" unicode="&#xa0;" horiz-adv-x="2048" 
 />
    <glyph glyph-name="exclamdown" unicode="&#xa1;" horiz-adv-x="3351" 
d="M3330 1167l-155.999 -20l-188 -4l229 610l45 148l21 159c0 84.667 -23.333 154.334 -70 209c-46 54.667 -123.667 82 -233 82c-208 0 -415.667 -154.333 -623 -463c-100.667 -152.667 -227.667 -401 -381 -745l-422 8l-311 8c-161.333 0 -306 -8 -434 -24
c-74 -8.66699 -137 -18.334 -189 -29.001c-54 -14 -118 -36 -192 -66c-158.667 -57.333 -283 -139 -373 -245c-92.667 -106.667 -139 -225.667 -139 -357c0 -142 62.667 -256.667 188 -344c123.333 -90 288.666 -135 495.999 -135c314 0 588.333 87.333 823 262
c232 172 446.333 448 643 828l156 -9l156 -8l-201 -520l-33 -111l-20 -139c0 -95.333 41 -171.666 123 -228.999c78.667 -60 189 -90 331 -90c260 0 515.333 86 766 258v86c-100.667 -74 -201.667 -131.333 -303 -172c-103.333 -44 -188 -66 -254 -66
c-57.333 0 -94 12.333 -110 37c-19.333 22 -29 59 -29 111v65l299 770c60 0 107.667 -2.66699 143 -8h152zM1929 1057c-130.667 -292.667 -304 -531.667 -520 -717c-216 -188.667 -427.667 -283 -635 -283c-114.667 0 -208.667 34.333 -282 103
c-76.667 65.333 -115 155.333 -115 270c0 216 99.667 386.667 299 512c169.333 104 371.333 156 606 156c213.333 0 429 -13.667 647 -41zM2417 1135l-127 -9l-185 9l283 606c117.333 221.333 252.333 396 405 524h25v-65zM2499 2863l191.999 -123
c52 -18.667 131.333 -28 238 -28c120 0 189.667 4 209 12c16 8 35 14.667 57 20c68 14 129.333 34.667 184 62c54.667 24.667 109.334 60 164 106l123 90c40.667 36 61 77 61 123c0 41.333 -5.33301 79.666 -16 115c-14 32.667 -37.333 49 -70 49
c-35.333 2.66699 -68 8 -98 16c-30 6 -46.333 9 -49 9c-22 0 -46.667 -7 -74 -21c-27.333 -13.333 -64 -40.666 -110 -82c-6 -5.33301 -59.333 -70.666 -160 -196c-62.667 -79.333 -131 -119 -205 -119c-38 0 -73.333 6.66699 -106 20l-173 78
c-13.333 2.66699 -25.5 19 -36.5 49s-50.5 67 -118.5 111c-71.333 43.333 -128.666 65 -172 65c-11.333 0 -30.666 -2.66699 -57.999 -8c-30 -10.667 -45 -29.667 -45 -57c0 -41.333 34.333 -96 103 -164c60 -60 113.333 -102.333 160 -127z" />
    <glyph glyph-name="cent" unicode="&#xa2;" horiz-adv-x="3351" 
d="M3330 1167l-155.999 -20l-188 -4l229 610l45 148l21 159c0 84.667 -23.333 154.334 -70 209c-46 54.667 -123.667 82 -233 82c-208 0 -415.667 -154.333 -623 -463c-100.667 -152.667 -227.667 -401 -381 -745l-422 8l-311 8c-161.333 0 -306 -8 -434 -24
c-74 -8.66699 -137 -18.334 -189 -29.001c-54 -14 -118 -36 -192 -66c-158.667 -57.333 -283 -139 -373 -245c-92.667 -106.667 -139 -225.667 -139 -357c0 -142 62.667 -256.667 188 -344c123.333 -90 288.666 -135 495.999 -135c314 0 588.333 87.333 823 262
c232 172 446.333 448 643 828l156 -9l156 -8l-201 -520l-33 -111l-20 -139c0 -95.333 41 -171.666 123 -228.999c78.667 -60 189 -90 331 -90c260 0 515.333 86 766 258v86c-100.667 -74 -201.667 -131.333 -303 -172c-103.333 -44 -188 -66 -254 -66
c-57.333 0 -94 12.333 -110 37c-19.333 22 -29 59 -29 111v65l299 770c60 0 107.667 -2.66699 143 -8h152zM1929 1057c-130.667 -292.667 -304 -531.667 -520 -717c-216 -188.667 -427.667 -283 -635 -283c-114.667 0 -208.667 34.333 -282 103
c-76.667 65.333 -115 155.333 -115 270c0 216 99.667 386.667 299 512c169.333 104 371.333 156 606 156c213.333 0 429 -13.667 647 -41zM2417 1135l-127 -9l-185 9l283 606c117.333 221.333 252.333 396 405 524h25v-65zM3056 2810c27.333 0 49.001 -7 65.001 -21l45 -36
l168 -160h160l-127 254l-41 73l-37 58c-35.333 35.333 -65.333 58.333 -90 69c-24.667 8.66699 -65.667 13 -123 13c-38 0 -81.667 -15 -131 -45s-79.333 -53.333 -90 -70l-49 -78l-82 -135c-35.333 -54.667 -73.666 -101 -115 -139h127l103 90l102 94
c35.333 22 73.666 33 114.999 33z" />
    <glyph glyph-name="sterling" unicode="&#xa3;" horiz-adv-x="2281" 
d="M1450 1393c393.333 155.333 589.999 354.663 589.999 597.996c0 106 -50.667 196 -152 270c-100.667 70.667 -229 106 -385 106c-194 0 -349.667 -54.333 -467 -163c-120 -109.333 -180 -251.333 -180 -426c0 -79.333 16.333 -164 49 -254l119 -258
c0 -38.667 -37 -58 -111 -58c-248 0 -463.667 -51.667 -647 -155c-226.667 -128.667 -340 -311.667 -340 -549c0 -183.333 87.333 -326.666 262 -429.999c175.333 -104 414.333 -156 717 -156c295.333 0 556.333 54.667 783 164c142 68 255.333 148.667 340 242
c81.333 92.667 122 192.334 122 299.001c0 117.333 -68 226.333 -204 327l-25 -45c22 -16 38.333 -37.667 49 -65l17 -74c0 -46.667 -15 -96 -45 -148c-30.667 -54 -70.334 -108.333 -119.001 -163c-123.333 -136.667 -269.666 -248.667 -438.999 -336
c-172 -90 -331.667 -135 -479 -135c-120 0 -219.667 38 -299 114c-79.333 74 -119 172.333 -119 295c0 142 42.333 269 127 381s229.667 226.667 435 344c54 32.667 99 87.334 135 164.001l82 205c73.333 224 132 377 176 459c98 207.333 196.333 311 295 311
c90 0 135 -47.667 135 -143c0 -93.333 -45 -206.666 -135 -339.999c-93.333 -136.667 -202.666 -244.667 -327.999 -324zM1622 2830c27.333 0 49.166 -6.83203 65.499 -20.499s31.5 -25.834 45.5 -36.5l168 -160h159l-127 254l-41 74c-13.333 22 -25.666 41 -36.999 57
c-35.333 36 -65.333 59.333 -90 70c-24 8 -65 12 -123 12c-38 0 -81.667 -15 -131 -45c-48.667 -30 -78.667 -53 -90 -69l-49 -78l-82 -135c-35.333 -54.667 -73.333 -101.334 -114 -140.001h127l102 90l102 95c36 21.333 74.333 32 115 32z" />
    <glyph glyph-name="currency" unicode="&#xa4;" horiz-adv-x="2576" 
d="M1200 1257c0 196.667 57.335 409.666 172.002 638.999c131.333 268 284.333 402 459 402c65.333 0 120 -35.667 164 -107c40.667 -70.667 61 -166 61 -286c0 -183.333 -31.333 -395 -94 -635c-62.667 -243.333 -143.334 -464.666 -242.001 -663.999
c-109.333 -212.667 -214.333 -369.667 -315 -471c-104 -100.667 -220 -151 -348 -151c-134 0 -240.667 50.333 -320 151c-82 101.333 -123 240.666 -123 417.999c0 281.333 59 580.333 177 897c130.667 352 291.667 607.333 483 766l-33 49
c-360.667 -147.333 -643.334 -349.333 -848.001 -606c-207.333 -256.667 -311 -540.667 -311 -852c0 -276 87.333 -493.167 262 -651.5s415 -237.5 721 -237.5c382 0 723.333 157 1024 471c297.333 311.333 446 665 446 1061c0 256.667 -68.167 473.667 -204.5 651
s-305.5 266 -507.5 266c-262 0 -452 -128.333 -570 -385c-84.667 -193.333 -127 -437.666 -127 -732.999zM1786 2810c27.333 0 48.999 -7 64.999 -21l45 -36l168 -160h160l-127 254l-41 73c-13.333 22 -25.666 41.333 -36.999 58c-35.333 35.333 -65.333 58.333 -90 69
c-24.667 8.66699 -65.667 13 -123 13c-38 0 -81.667 -15 -131 -45c-48.667 -30 -78.667 -53.333 -90 -70l-49 -78l-82 -135c-35.333 -54.667 -73.666 -101 -114.999 -139h127l103 90l102 94c35.333 22 73.666 33 114.999 33z" />
    <glyph glyph-name="yen" unicode="&#xa5;" horiz-adv-x="2576" 
d="M1200 1257c0 196.667 57.335 409.666 172.002 638.999c131.333 268 284.333 402 459 402c65.333 0 120 -35.667 164 -107c40.667 -70.667 61 -166 61 -286c0 -183.333 -31.333 -395 -94 -635c-62.667 -243.333 -143.334 -464.666 -242.001 -663.999
c-109.333 -212.667 -214.333 -369.667 -315 -471c-104 -100.667 -220 -151 -348 -151c-134 0 -240.667 50.333 -320 151c-82 101.333 -123 240.666 -123 417.999c0 281.333 59 580.333 177 897c130.667 352 291.667 607.333 483 766l-33 49
c-360.667 -147.333 -643.334 -349.333 -848.001 -606c-207.333 -256.667 -311 -540.667 -311 -852c0 -276 87.333 -493.167 262 -651.5s415 -237.5 721 -237.5c382 0 723.333 157 1024 471c297.333 311.333 446 665 446 1061c0 256.667 -68.167 473.667 -204.5 651
s-305.5 266 -507.5 266c-262 0 -452 -128.333 -570 -385c-84.667 -193.333 -127 -437.666 -127 -732.999zM2507 2474l49 8.00098c84.667 0 127 -56 127 -168c0 -158 -90 -315 -270 -471l24 -41c164 90 313 198 447 324c185.333 169.333 278 315.333 278 438
c0 95.333 -56 182.666 -168 261.999l-512 -295z" />
    <glyph glyph-name="brokenbar" unicode="&#xa6;" horiz-adv-x="3465" 
d="M410 344c-71.333 90 -122.002 174.668 -152.002 254.001c-32.667 76.667 -49 157.334 -49 242.001c0 281.333 166.667 589.666 500 924.999c330 333.333 633 500 909 500c92.667 0 139 -34 139 -102c0 -30 -12.333 -68.333 -37 -115l-704 -1360
c-49.333 -98 -74 -205.667 -74 -323c0 -123.333 31.333 -224.666 94 -303.999c60 -78.667 157 -118 291 -118c166.667 0 340 106.333 520 319c76.667 92.667 197 271.667 361 537c112 177.333 237.667 395.666 377 654.999l344 668l16 -8l-594 -1274l-94 -262
c-10.667 -38.667 -20.334 -78.334 -29 -119.001c-8 -44 -12 -79.667 -12 -107c0 -122.667 53.333 -221 160 -295c103.333 -76 239.666 -114 409 -114c114.667 0 225.334 19 332 57c122.667 35.333 238.667 83 348 143v66l-319 -123c-106.667 -40.667 -206.334 -61 -299 -61
c-54.667 0 -98.334 12 -131 36c-24.667 24.667 -37 59 -37 103c0 38 2.66699 65.333 8 82l41 114l848 1946l-656 -90c-35.333 -76.667 -85.666 -177.667 -150.999 -303c-65.333 -128.667 -140.333 -268 -225 -418l-328 -549c-101.333 -164 -198.333 -308.667 -291 -434
c-240 -330.667 -417.333 -496 -532 -496c-38.667 0 -58 19.333 -58 58c0 18.667 5.66699 39 17 61c8 27.333 18.667 49.333 32 66l775 1577c48.667 87.333 73 174.666 73 261.999c0 202 -167.667 303 -503 303c-393.333 0 -767.666 -132.333 -1123 -397
c-180 -131.333 -323.333 -281.666 -430 -450.999c-106.667 -172 -160 -334.333 -160 -487c0 -60 5.5 -114.667 16.5 -164s32.833 -105.333 65.5 -168c60 -120 144.667 -244.333 254 -373zM3654 2679l49 8.00098c84.667 0 127 -56 127 -168
c0 -158.667 -90.333 -315.667 -271 -471l25 -41c164 90 312.667 198 446 324c186 169.333 279 315.333 279 438c0 95.333 -56 182.666 -168 261.999l-512 -295z" />
    <glyph glyph-name="section" unicode="&#xa7;" horiz-adv-x="3383" 
d="M1896 1057h430.999l114 135h-487l69 213c24.667 74 57.667 162.667 99.001 266c73.333 180.667 149.666 333.667 229 459l-41 29c-272.667 -134 -473.334 -268 -602.001 -402c-128 -136.667 -236 -325 -324 -565h-426l-127 -135h496l-164 -586
c-98 -292 -205.667 -443.667 -323 -455l-9 -57l345 -33l315 -12c259.333 0 488.666 26 687.999 78c112 27.333 220 65.333 324 114c103.333 49.333 197.333 108.333 282 177c169.333 128 306 290.333 410 487s156 390.667 156 582c0 294.667 -128.5 529.334 -385.5 704.001
s-599.833 262 -1028.5 262c-240 0 -468 -23 -684 -69c-215.333 -46.667 -411.666 -130 -588.999 -250c-93.333 -57.333 -172.666 -117.333 -237.999 -180c-68 -63.333 -132.333 -141.333 -193 -234c-122.667 -180 -184 -363 -184 -549c0 -82 16.333 -162.333 49 -241
c30 -82 83.333 -162.667 160 -242l53 53c-82 82 -123 180.333 -123 295c0 131.333 57.333 285.666 172 462.999c71.333 112 178 236.333 320 373c341.333 341.333 781 512 1319 512c565.333 0 848 -226.667 848 -680c0 -390.667 -131 -745.667 -393 -1065
c-276 -336 -604 -504 -984 -504l-405 16l-57 9c250.667 57.333 450 181.333 598 372c103.333 139.333 200 359.333 290 660z" />
    <glyph glyph-name="dieresis" unicode="&#xa8;" 
d="M1778 1343l-537.001 -94c-60 68.667 -157 103 -291 103c-245.333 0 -469 -108 -671 -324c-202.667 -215.333 -304 -448.666 -304 -699.999c0 -120.667 39.667 -211 119 -271c68.667 -51.333 161.667 -77 279 -77c48.667 0 95 2.66699 139 8
c40.667 5.33301 88.334 16 143.001 32c96 30.667 179.333 69 250 115c41.333 -52 96 -94.333 164 -127c30 -10.667 64 -20 102 -28c36 -8.66699 73 -13 111 -13c120 0 244.333 27.333 373 82c128 52 240 113.333 336 184l-29 37c-40.667 -27.333 -79 -50.333 -115 -69
c-16 -8.66699 -59.667 -29.334 -131 -62.001c-90 -35.333 -161 -53 -213 -53c-48.667 0 -84 11 -106 33s-33 52 -33 90c0 30 2.66699 53.333 8 70l21 57zM1200 1192l-286.998 -745.998l-24 -98l-17 -86l17 -69l-139 -70c-44 -14 -88 -23.667 -132 -29
c-40.667 0 -72 13.667 -94 41c-24.667 24.667 -37 65.667 -37 123s19.167 144.666 57.5 261.999s88.833 247 151.5 389c63.333 139.333 116.666 237.666 159.999 294.999c46.667 52 100 78 160 78c73.333 0 134.666 -30 183.999 -90zM1278 1622
c65.333 16.667 112.997 38.666 142.997 65.999c14 13.333 27.667 32.333 41 57l49 74l45 57l86 111c27.333 32.667 63 69.334 107 110.001h-131l-131 -123c-27.333 -30 -56 -58.667 -86 -86c-30 -30 -58.667 -45 -86 -45c-19.333 0 -40 8.33301 -62 25l-233 229h-135
l82 -180c18.667 -52 32.334 -87.667 41.001 -107c24 -54 45.667 -94.667 65 -122c32.667 -27.333 76.334 -46.666 131.001 -57.999c16.667 -2.66699 41.334 -5.33398 74.001 -8.00098z" />
    <glyph glyph-name="copyright" unicode="&#xa9;" 
d="M1778 1343l-537.001 -94c-60 68.667 -157 103 -291 103c-245.333 0 -469 -108 -671 -324c-202.667 -215.333 -304 -448.666 -304 -699.999c0 -120.667 39.667 -211 119 -271c68.667 -51.333 161.667 -77 279 -77c48.667 0 95 2.66699 139 8
c40.667 5.33301 88.334 16 143.001 32c96 30.667 179.333 69 250 115c41.333 -52 96 -94.333 164 -127c30 -10.667 64 -20 102 -28c36 -8.66699 73 -13 111 -13c120 0 244.333 27.333 373 82c128 52 240 113.333 336 184l-29 37c-40.667 -27.333 -79 -50.333 -115 -69
c-16 -8.66699 -59.667 -29.334 -131 -62.001c-90 -35.333 -161 -53 -213 -53c-48.667 0 -84 11 -106 33s-33 52 -33 90c0 30 2.66699 53.333 8 70l21 57zM1200 1192l-286.998 -745.998l-24 -98l-17 -86l17 -69l-139 -70c-44 -14 -88 -23.667 -132 -29
c-40.667 0 -72 13.667 -94 41c-24.667 24.667 -37 65.667 -37 123s19.167 144.666 57.5 261.999s88.833 247 151.5 389c63.333 139.333 116.666 237.666 159.999 294.999c46.667 52 100 78 160 78c73.333 0 134.666 -30 183.999 -90zM1274 1827
c27.333 0 48.999 -6.99902 64.999 -20.999l45 -37l168 -159h160l-127 254l-41 73c-13.333 22 -25.666 41.333 -36.999 58c-35.333 35.333 -65.333 58.333 -90 68.999c-24.667 8.66699 -65.667 13 -123 13c-38 0 -81.667 -15 -131 -45c-48.667 -30 -78.667 -53.333 -90 -70
l-49 -78l-82 -135c-35.333 -54.667 -73.666 -101 -114.999 -139h127l103 90l102 94c35.333 22 73.666 33 114.999 33z" />
    <glyph glyph-name="ordfeminine" unicode="&#xaa;" horiz-adv-x="1434" 
d="M1401 270c-229.333 -147.333 -442.335 -221.004 -639.002 -221.004c-84.667 0 -151.667 24.667 -201 74c-13.333 16 -25.666 35 -36.999 57c-18.667 38.667 -28 82.334 -28 131.001l16 115c218.667 82 393.334 185.667 524.001 311c131.333 123.333 197 250.333 197 381
c0 161.333 -109.333 242 -328 242c-264.667 0 -485.667 -109.333 -663 -328c-178 -218 -267 -461 -267 -729c0 -131.333 63 -225.666 189 -282.999c90 -35.333 208.667 -53 356 -53c92.667 0 180 4.33301 262 13c79.333 8 153.333 21.333 222 40
c68 16.667 137.333 41.334 208 74.001c68.667 32.667 142.667 76.334 222 131.001zM519.998 495.996c57.333 193.333 114.667 353 172 479c98.667 229.333 187.334 344 266.001 344c54.667 0 82 -26 82 -78c0 -90 -66.667 -222.333 -200 -397
c-106.667 -144.667 -213.334 -260.667 -320.001 -348zM884.999 1806c27.333 0 48.999 -6.66602 64.999 -19.999l45 -37l168 -160h160l-127 254l-41 74c-13.333 22 -25.666 41 -36.999 57c-35.333 36 -65.333 59.333 -90 70c-24.667 8 -65.667 12 -123 12
c-38 0 -81.667 -15 -131 -45s-79.333 -53 -90 -69l-49 -78l-82 -135c-35.333 -54.667 -73.666 -101.334 -114.999 -140.001h127l103 90l102 95c35.333 21.333 73.666 32 114.999 32z" />
    <glyph glyph-name="guillemotleft" unicode="&#xab;" horiz-adv-x="1769" 
d="M1815 553c-90.667 -32.667 -179.668 -49.002 -267.001 -49.002c-76 0 -147 13.667 -213 41c38.667 73.333 68.667 151 90 233c8.66699 38.667 15.667 79.667 21 123c5.33301 44 8 90.333 8 139c0 128.667 -27.333 232.5 -82 311.5s-128.334 118.5 -221.001 118.5
c-82 0 -147.667 -32.667 -197 -98c-48.667 -68 -73 -159.333 -73 -274c0 -191.333 64 -359.333 192 -504c-57.333 -147.333 -114.666 -262 -171.999 -344c-95.333 -139.333 -196.333 -209 -303 -209c-90 0 -135 61.333 -135 184c0 191.333 71 430.333 213 717l213 393
c-8 8.66699 -16.333 14.334 -25 17.001c-8 2.66699 -13.333 5.33398 -16 8.00098c-35.333 0 -77.666 -8.33301 -126.999 -25c-49.333 -16 -82 -28.333 -98 -37c-3.33301 0 -24 -10.667 -62 -32c-164 -82 -302 -210.333 -414 -385c-114.667 -175.333 -172 -346 -172 -512
c0 -268 179 -402 537 -402c169.333 0 319.5 41 450.5 123s247.167 214.333 348.5 397c82 -27.333 161 -41 237 -41c98.667 0 193 16.667 283 50zM1106 679.998c-104 136.667 -156 302 -156 496c0 65.333 9.66699 118.333 29 159c16.667 38.667 42.667 58 78 58
c62.667 0 94 -106.667 94 -320l-12 -196zM1028 1827c27.333 0 49.333 -6.99902 66 -20.999l45 -37l168 -159h159l-127 254l-41 73l-36 58c-36 35.333 -66.333 58.333 -91 68.999c-24 8.66699 -64.667 13 -122 13c-38.667 0 -82.5 -15 -131.5 -45s-79.167 -53.333 -90.5 -70
l-49 -78l-82 -135c-35.333 -54.667 -73.333 -101 -114 -139h127l102 90l102 94c36 22 74.333 33 115 33z" />
    <glyph glyph-name="logicalnot" unicode="&#xac;" horiz-adv-x="1769" 
d="M1815 553c-90.667 -32.667 -179.668 -49.002 -267.001 -49.002c-76 0 -147 13.667 -213 41c38.667 73.333 68.667 151 90 233c8.66699 38.667 15.667 79.667 21 123c5.33301 44 8 90.333 8 139c0 128.667 -27.333 232.5 -82 311.5s-128.334 118.5 -221.001 118.5
c-82 0 -147.667 -32.667 -197 -98c-48.667 -68 -73 -159.333 -73 -274c0 -191.333 64 -359.333 192 -504c-57.333 -147.333 -114.666 -262 -171.999 -344c-95.333 -139.333 -196.333 -209 -303 -209c-90 0 -135 61.333 -135 184c0 191.333 71 430.333 213 717l213 393
c-8 8.66699 -16.333 14.334 -25 17.001c-8 2.66699 -13.333 5.33398 -16 8.00098c-35.333 0 -77.666 -8.33301 -126.999 -25c-49.333 -16 -82 -28.333 -98 -37c-3.33301 0 -24 -10.667 -62 -32c-164 -82 -302 -210.333 -414 -385c-114.667 -175.333 -172 -346 -172 -512
c0 -268 179 -402 537 -402c169.333 0 319.5 41 450.5 123s247.167 214.333 348.5 397c82 -27.333 161 -41 237 -41c98.667 0 193 16.667 283 50zM1106 679.998c-104 136.667 -156 302 -156 496c0 65.333 9.66699 118.333 29 159c16.667 38.667 42.667 58 78 58
c62.667 0 94 -106.667 94 -320l-12 -196zM1511 1597l29 4.99902c52 0 78 -34.333 78 -103c0 -92.667 -54.667 -186.667 -164 -282l16 -25c44 24.667 88 57.334 132 98.001c38 41.333 80.333 83.666 127 126.999l98 94c52 52 78 98.667 78 140
c0 54.667 -34.333 106.334 -103 155.001l-307 -176z" />
    <glyph glyph-name="minus" unicode="&#xad;" horiz-adv-x="2023" 
d="M295 1241l-295.001 -785.999l-20 -78l-9 -74c0 -100.667 35.667 -178.334 107 -233.001c70.667 -57.333 167.667 -86 291 -86c190.667 0 381.667 56 573 168c35.333 -57.333 86 -105.333 152 -144c68 -30 137.667 -45 209 -45c111.333 0 245 32.667 401 98
c117.333 49.333 226.666 112.333 327.999 189l-33 37c-87.333 -60 -176 -112 -266 -156c-79.333 -32.667 -147.666 -49 -204.999 -49c-41.333 0 -72.666 9.66699 -93.999 29c-16.667 21.333 -25 50 -25 86c0 32.667 5.33301 66.667 16 102l25 78l373 958l-566 -102
l-299 -787l-24 -94l-12 -90l8 -45l-164 -82c-92.667 -38 -163.667 -57 -213 -57c-76.667 0 -115 38.333 -115 115c0 30 16.333 88.667 49 176l361 974zM1901 1597l28 4.99902c52 0 78 -34.333 78 -103c0 -92.667 -54.667 -186.667 -164 -282l17 -25
c43.333 24.667 87 57.334 131 98.001c38 41.333 80.333 83.666 127 126.999l98 94c52 52 78 98.667 78 140c0 54.667 -34.333 106.334 -103 155.001l-307 -176z" />
    <glyph glyph-name="registered" unicode="&#xae;" horiz-adv-x="2023" 
d="M1200 1176l-295 -807.001l-24 -111l8 -65l-131 -78c-44 -16.667 -92 -27.667 -144 -33c-38 0 -73.333 12.333 -106 37c-24.667 24.667 -37 68.334 -37 131.001c0 73.333 15 155.333 45 246l98 274c79.333 207.333 146.333 348 201 422s116 111 184 111
c84.667 0 151.667 -42.333 201 -127zM1884 1696c14 -2.66699 27.667 -3.99902 41 -3.99902c71.333 0 173.666 16.333 306.999 49c54.667 10.667 130 31 226 61c16 24.667 32.167 60.167 48.5 106.5s24.5 83.166 24.5 110.499c0 16.667 -1.33301 27.667 -4 33h-8
c-5.33301 0 -12 -1.33301 -20 -4c-49.333 -22 -122 -44 -218 -66c-95.333 -21.333 -192 -37.666 -290 -48.999l123 385l-553 -102l-103 -307h-753c-22 0 -41.333 -16.333 -58 -49c-19.333 -36 -29 -70.333 -29 -103c0 -46 15.333 -69 46 -69h180c57.333 0 116 1.33301 176 4
h213c62.667 -8.66699 107.667 -14.334 135 -17.001l-143 -409c-104 70.667 -214.667 106 -332 106c-224 0 -434.333 -116 -631 -348c-196.667 -234.667 -295 -469.667 -295 -705c0 -117.333 38.333 -203.333 115 -258c74 -57.333 169.667 -86 287 -86
c103.333 0 203 15 299 45c92.667 30.667 171.667 69 237 115c74 -106.667 212 -160 414 -160c270 0 510.333 86 721 258l-33 37c-40.667 -30 -79 -55.667 -115 -77c-35.333 -22 -85.666 -45.333 -150.999 -70c-68.667 -27.333 -131.667 -41 -189 -41
c-108.667 0 -163 43.667 -163 131c0 30 6.66699 60 20 90l487 1397z" />
    <glyph glyph-name="mu" unicode="&#xb5;" 
d="M1778 1343l-537.001 -94c-60 68.667 -157 103 -291 103c-245.333 0 -469 -108 -671 -324c-202.667 -215.333 -304 -448.666 -304 -699.999c0 -120.667 39.667 -211 119 -271c68.667 -51.333 161.667 -77 279 -77c48.667 0 95 2.66699 139 8
c40.667 5.33301 88.334 16 143.001 32c96 30.667 179.333 69 250 115c41.333 -52 96 -94.333 164 -127c30 -10.667 64 -20 102 -28c36 -8.66699 73 -13 111 -13c120 0 244.333 27.333 373 82c128 52 240 113.333 336 184l-29 37c-40.667 -27.333 -79 -50.333 -115 -69
c-16 -8.66699 -59.667 -29.334 -131 -62.001c-90 -35.333 -161 -53 -213 -53c-48.667 0 -84 11 -106 33s-33 52 -33 90c0 30 2.66699 53.333 8 70l21 57zM1200 1192l-286.998 -745.998l-24 -98l-17 -86l17 -69l-139 -70c-44 -14 -88 -23.667 -132 -29
c-40.667 0 -72 13.667 -94 41c-24.667 24.667 -37 65.667 -37 123s19.167 144.666 57.5 261.999s88.833 247 151.5 389c63.333 139.333 116.666 237.666 159.999 294.999c46.667 52 100 78 160 78c73.333 0 134.666 -30 183.999 -90zM1126 2134h-527.999
c35.333 -40.667 72.333 -80.334 111 -119c35.333 -38 79 -74.667 131 -110c84.667 -57.333 163.667 -108 237 -152c112 -65.333 173.667 -102.333 185 -111l254 37c-68.667 19.333 -116.667 38.666 -144 57.999c-2.66699 2.66699 -23 24.334 -61 65.001
c-54.667 60 -94.334 116 -119.001 168c-27.333 49.333 -49.333 104 -66 164z" />
    <glyph glyph-name="paragraph" unicode="&#xb6;" 
d="M1778 1343l-537.001 -94c-60 68.667 -157 103 -291 103c-245.333 0 -469 -108 -671 -324c-202.667 -215.333 -304 -448.666 -304 -699.999c0 -120.667 39.667 -211 119 -271c68.667 -51.333 161.667 -77 279 -77c48.667 0 95 2.66699 139 8
c40.667 5.33301 88.334 16 143.001 32c96 30.667 179.333 69 250 115c41.333 -52 96 -94.333 164 -127c30 -10.667 64 -20 102 -28c36 -8.66699 73 -13 111 -13c120 0 244.333 27.333 373 82c128 52 240 113.333 336 184l-29 37c-40.667 -27.333 -79 -50.333 -115 -69
c-16 -8.66699 -59.667 -29.334 -131 -62.001c-90 -35.333 -161 -53 -213 -53c-48.667 0 -84 11 -106 33s-33 52 -33 90c0 30 2.66699 53.333 8 70l21 57zM1200 1192l-286.998 -745.998l-24 -98l-17 -86l17 -69l-139 -70c-44 -14 -88 -23.667 -132 -29
c-40.667 0 -72 13.667 -94 41c-24.667 24.667 -37 65.667 -37 123s19.167 144.666 57.5 261.999s88.833 247 151.5 389c63.333 139.333 116.666 237.666 159.999 294.999c46.667 52 100 78 160 78c73.333 0 134.666 -30 183.999 -90zM1212 1954c0 60 30.333 122.667 91 188
c57.333 62.667 117.333 94 180 94c48.667 0 73 -20.333 73 -61s-38 -85.667 -114 -135l-205 -144c-76.667 -62.667 -115 -125.334 -115 -188.001c0 -54.667 20.667 -97 62 -127c22 -13.333 43.667 -21.666 65 -24.999c19.333 -5.33301 44 -8 74 -8l78 4
c24.667 6 49.334 13 74.001 21l32 74l-16 12c-52 -52 -99.667 -78 -143 -78c-30 0 -46.667 13.667 -50 41c0 22 37 57.667 111 107c114.667 76 181.667 123.667 201 143c73.333 62.667 110 128 110 196c0 63.333 -23 115.333 -69 156c-46.667 38 -108.334 57 -185.001 57
c-84.667 0 -155.667 -24.333 -213 -73c-51.333 -52 -77 -117.667 -77 -197l4 -65z" />
    <glyph glyph-name="periodcentered" unicode="&#xb7;" 
d="M1778 1343l-537.001 -94c-60 68.667 -157 103 -291 103c-245.333 0 -469 -108 -671 -324c-202.667 -215.333 -304 -448.666 -304 -699.999c0 -120.667 39.667 -211 119 -271c68.667 -51.333 161.667 -77 279 -77c48.667 0 95 2.66699 139 8
c40.667 5.33301 88.334 16 143.001 32c96 30.667 179.333 69 250 115c41.333 -52 96 -94.333 164 -127c30 -10.667 64 -20 102 -28c36 -8.66699 73 -13 111 -13c120 0 244.333 27.333 373 82c128 52 240 113.333 336 184l-29 37c-40.667 -27.333 -79 -50.333 -115 -69
c-16 -8.66699 -59.667 -29.334 -131 -62.001c-90 -35.333 -161 -53 -213 -53c-48.667 0 -84 11 -106 33s-33 52 -33 90c0 30 2.66699 53.333 8 70l21 57zM1200 1192l-286.998 -745.998l-24 -98l-17 -86l17 -69l-139 -70c-44 -14 -88 -23.667 -132 -29
c-40.667 0 -72 13.667 -94 41c-24.667 24.667 -37 65.667 -37 123s19.167 144.666 57.5 261.999s88.833 247 151.5 389c63.333 139.333 116.666 237.666 159.999 294.999c46.667 52 100 78 160 78c73.333 0 134.666 -30 183.999 -90zM1765 1991
c-68 -76.667 -136.002 -115.001 -204.002 -115.001c-60.667 0 -116.667 11 -168 33c-136.667 48.667 -227 76 -271 82c-65.333 0 -126.666 -24.667 -183.999 -74s-116 -134 -176 -254l69 -41c22 24.667 55 49.334 99 74.001l110 24c38.667 0 123.334 -19 254.001 -57
c68.667 -19.333 126 -29 172 -29c79.333 0 154.666 34.333 225.999 103c48.667 43.333 96.334 113 143.001 209z" />
    <glyph glyph-name="cedilla" unicode="&#xb8;" 
d="M1778 1343l-537.001 -94c-60 68.667 -157 103 -291 103c-245.333 0 -469 -108 -671 -324c-202.667 -215.333 -304 -448.666 -304 -699.999c0 -120.667 39.667 -211 119 -271c68.667 -51.333 161.667 -77 279 -77c48.667 0 95 2.66699 139 8
c40.667 5.33301 88.334 16 143.001 32c96 30.667 179.333 69 250 115c41.333 -52 96 -94.333 164 -127c30 -10.667 64 -20 102 -28c36 -8.66699 73 -13 111 -13c120 0 244.333 27.333 373 82c128 52 240 113.333 336 184l-29 37c-40.667 -27.333 -79 -50.333 -115 -69
c-16 -8.66699 -59.667 -29.334 -131 -62.001c-90 -35.333 -161 -53 -213 -53c-48.667 0 -84 11 -106 33s-33 52 -33 90c0 30 2.66699 53.333 8 70l21 57zM1200 1192l-286.998 -745.998l-24 -98l-17 -86l17 -69l-139 -70c-44 -14 -88 -23.667 -132 -29
c-40.667 0 -72 13.667 -94 41c-24.667 24.667 -37 65.667 -37 123s19.167 144.666 57.5 261.999s88.833 247 151.5 389c63.333 139.333 116.666 237.666 159.999 294.999c46.667 52 100 78 160 78c73.333 0 134.666 -30 183.999 -90zM1319 2175
c-41.333 -182.667 -208 -368.333 -500 -557h266c118 13.333 222 58.333 312 135c60 49.333 99.667 79.333 119 90c78.667 44 140 89 184 135l147 197h-528z" />
    <glyph glyph-name="onesuperior" unicode="&#xb9;" 
d="M1778 1343l-537.001 -94c-60 68.667 -157 103 -291 103c-245.333 0 -469 -108 -671 -324c-202.667 -215.333 -304 -448.666 -304 -699.999c0 -120.667 39.667 -211 119 -271c68.667 -51.333 161.667 -77 279 -77c48.667 0 95 2.66699 139 8
c40.667 5.33301 88.334 16 143.001 32c96 30.667 179.333 69 250 115c41.333 -52 96 -94.333 164 -127c30 -10.667 64 -20 102 -28c36 -8.66699 73 -13 111 -13c120 0 244.333 27.333 373 82c128 52 240 113.333 336 184l-29 37c-40.667 -27.333 -79 -50.333 -115 -69
c-16 -8.66699 -59.667 -29.334 -131 -62.001c-90 -35.333 -161 -53 -213 -53c-48.667 0 -84 11 -106 33s-33 52 -33 90c0 30 2.66699 53.333 8 70l21 57zM1200 1192l-286.998 -745.998l-24 -98l-17 -86l17 -69l-139 -70c-44 -14 -88 -23.667 -132 -29
c-40.667 0 -72 13.667 -94 41c-24.667 24.667 -37 65.667 -37 123s19.167 144.666 57.5 261.999s88.833 247 151.5 389c63.333 139.333 116.666 237.666 159.999 294.999c46.667 52 100 78 160 78c73.333 0 134.666 -30 183.999 -90zM508.001 -462.998
c0 -57.333 20.334 -108.999 61.001 -154.999c41.333 -49.333 97.333 -74 168 -74c71.333 0 124.666 21.667 159.999 65c16.667 19.333 29 44 37 74c5.33301 27.333 8 61.333 8 102c0 41.333 -1.33301 71.666 -4 90.999c-5.33301 16 -19 36.333 -41 61
c-38 46.667 -91.333 70 -160 70c-73.333 0 -129.333 -22 -168 -66c-40.667 -46.667 -61 -102.667 -61 -168z" />
    <glyph glyph-name="guillemotright" unicode="&#xbb;" 
d="M1778 1343l-537.001 -94c-60 68.667 -157 103 -291 103c-245.333 0 -469 -108 -671 -324c-202.667 -215.333 -304 -448.666 -304 -699.999c0 -120.667 39.667 -211 119 -271c68.667 -51.333 161.667 -77 279 -77c48.667 0 95 2.66699 139 8
c40.667 5.33301 88.334 16 143.001 32c96 30.667 179.333 69 250 115c41.333 -52 96 -94.333 164 -127c30 -10.667 64 -20 102 -28c36 -8.66699 73 -13 111 -13c120 0 244.333 27.333 373 82c128 52 240 113.333 336 184l-29 37c-40.667 -27.333 -79 -50.333 -115 -69
c-16 -8.66699 -59.667 -29.334 -131 -62.001c-90 -35.333 -161 -53 -213 -53c-48.667 0 -84 11 -106 33s-33 52 -33 90c0 30 2.66699 53.333 8 70l21 57zM1200 1192l-286.998 -745.998l-24 -98l-17 -86l17 -69l-139 -70c-44 -14 -88 -23.667 -132 -29
c-40.667 0 -72 13.667 -94 41c-24.667 24.667 -37 65.667 -37 123s19.167 144.666 57.5 261.999s88.833 247 151.5 389c63.333 139.333 116.666 237.666 159.999 294.999c46.667 52 100 78 160 78c73.333 0 134.666 -30 183.999 -90zM1278 1622
c65.333 16.667 112.997 38.666 142.997 65.999c14 13.333 27.667 32.333 41 57l49 74l45 57l86 111c27.333 32.667 63 69.334 107 110.001h-131l-131 -123c-27.333 -30 -56 -58.667 -86 -86c-30 -30 -58.667 -45 -86 -45c-19.333 0 -40 8.33301 -62 25l-233 229h-135
l82 -180c18.667 -52 32.334 -87.667 41.001 -107c24 -54 45.667 -94.667 65 -122c32.667 -27.333 76.334 -46.666 131.001 -57.999c16.667 -2.66699 41.334 -5.33398 74.001 -8.00098zM1126 2728l-527.999 -0.000976562c35.333 -41.333 72.333 -81 111 -119
c35.333 -38 79 -74.667 131 -110c84.667 -57.333 163.667 -108 237 -152c112 -65.333 173.667 -102.333 185 -111l254 37c-68.667 19.333 -116.667 38.666 -144 58c-2.66699 2.66699 -23 24.334 -61 65.001c-54.667 60 -94.334 116 -119.001 168
c-27.333 49.333 -49.333 104 -66 164z" />
    <glyph glyph-name="onequarter" unicode="&#xbc;" 
d="M1778 1343l-537.001 -94c-60 68.667 -157 103 -291 103c-245.333 0 -469 -108 -671 -324c-202.667 -215.333 -304 -448.666 -304 -699.999c0 -120.667 39.667 -211 119 -271c68.667 -51.333 161.667 -77 279 -77c48.667 0 95 2.66699 139 8
c40.667 5.33301 88.334 16 143.001 32c96 30.667 179.333 69 250 115c41.333 -52 96 -94.333 164 -127c30 -10.667 64 -20 102 -28c36 -8.66699 73 -13 111 -13c120 0 244.333 27.333 373 82c128 52 240 113.333 336 184l-29 37c-40.667 -27.333 -79 -50.333 -115 -69
c-16 -8.66699 -59.667 -29.334 -131 -62.001c-90 -35.333 -161 -53 -213 -53c-48.667 0 -84 11 -106 33s-33 52 -33 90c0 30 2.66699 53.333 8 70l21 57zM1200 1192l-286.998 -745.998l-24 -98l-17 -86l17 -69l-139 -70c-44 -14 -88 -23.667 -132 -29
c-40.667 0 -72 13.667 -94 41c-24.667 24.667 -37 65.667 -37 123s19.167 144.666 57.5 261.999s88.833 247 151.5 389c63.333 139.333 116.666 237.666 159.999 294.999c46.667 52 100 78 160 78c73.333 0 134.666 -30 183.999 -90zM1278 1622
c65.333 16.667 112.997 38.666 142.997 65.999c14 13.333 27.667 32.333 41 57l49 74l45 57l86 111c27.333 32.667 63 69.334 107 110.001h-131l-131 -123c-27.333 -30 -56 -58.667 -86 -86c-30 -30 -58.667 -45 -86 -45c-19.333 0 -40 8.33301 -62 25l-233 229h-135
l82 -180c18.667 -52 32.334 -87.667 41.001 -107c24 -54 45.667 -94.667 65 -122c32.667 -27.333 76.334 -46.666 131.001 -57.999c16.667 -2.66699 41.334 -5.33398 74.001 -8.00098zM1278 2560c0 60 29.9971 122.666 89.9971 187.999c57.333 63.333 117.333 95 180 95
c49.333 0 74 -20.667 74 -62c0 -40.667 -38.333 -85.667 -115 -135l-204 -143c-76.667 -63.333 -115 -126.333 -115 -189c0 -54.667 20.333 -97 61 -127c22 -13.333 44 -21.333 66 -24c18.667 -6 43.334 -9 74.001 -9l77 5c24.667 5.33301 49.334 12 74.001 20l33 74l-17 12
c-51.333 -52 -99 -78 -143 -78c-30 0 -46.333 13.667 -49 41c0 22 37 57.667 111 107c114.667 76 181.334 123.667 200.001 143c74 62.667 111 128.334 111 197c0 62.667 -23.333 114.334 -70 155.001c-46 38.667 -107.333 58 -184 58c-84.667 0 -155.667 -24.667 -213 -74
c-52 -52 -78 -117.667 -78 -197l4 -65z" />
    <glyph glyph-name="onehalf" unicode="&#xbd;" 
d="M1778 1343l-537.001 -94c-60 68.667 -157 103 -291 103c-245.333 0 -469 -108 -671 -324c-202.667 -215.333 -304 -448.666 -304 -699.999c0 -120.667 39.667 -211 119 -271c68.667 -51.333 161.667 -77 279 -77c48.667 0 95 2.66699 139 8
c40.667 5.33301 88.334 16 143.001 32c96 30.667 179.333 69 250 115c41.333 -52 96 -94.333 164 -127c30 -10.667 64 -20 102 -28c36 -8.66699 73 -13 111 -13c120 0 244.333 27.333 373 82c128 52 240 113.333 336 184l-29 37c-40.667 -27.333 -79 -50.333 -115 -69
c-16 -8.66699 -59.667 -29.334 -131 -62.001c-90 -35.333 -161 -53 -213 -53c-48.667 0 -84 11 -106 33s-33 52 -33 90c0 30 2.66699 53.333 8 70l21 57zM1200 1192l-286.998 -745.998l-24 -98l-17 -86l17 -69l-139 -70c-44 -14 -88 -23.667 -132 -29
c-40.667 0 -72 13.667 -94 41c-24.667 24.667 -37 65.667 -37 123s19.167 144.666 57.5 261.999s88.833 247 151.5 389c63.333 139.333 116.666 237.666 159.999 294.999c46.667 52 100 78 160 78c73.333 0 134.666 -30 183.999 -90zM1278 1622
c65.333 16.667 112.997 38.666 142.997 65.999c14 13.333 27.667 32.333 41 57l49 74l45 57l86 111c27.333 32.667 63 69.334 107 110.001h-131l-131 -123c-27.333 -30 -56 -58.667 -86 -86c-30 -30 -58.667 -45 -86 -45c-19.333 0 -40 8.33301 -62 25l-233 229h-135
l82 -180c18.667 -52 32.334 -87.667 41.001 -107c24 -54 45.667 -94.667 65 -122c32.667 -27.333 76.334 -46.666 131.001 -57.999c16.667 -2.66699 41.334 -5.33398 74.001 -8.00098zM1806 2707c-68 -76 -136.002 -113.999 -204.002 -113.999
c-60.667 0 -116.667 11 -168 33c-136.667 48.667 -227 75.667 -271 81c-65.333 0 -126.666 -24.5 -183.999 -73.5s-116 -133.5 -176 -253.5l69 -41c22 24.667 55 49.334 99 74l110 24c38.667 0 123.334 -19 254.001 -57c68.667 -19.333 126 -29 172 -29
c79.333 0 154.666 34.333 225.999 103c48.667 43.333 96.334 112.666 143.001 207.999z" />
    <glyph glyph-name="threequarters" unicode="&#xbe;" 
d="M1778 1343l-537.001 -94c-60 68.667 -157 103 -291 103c-245.333 0 -469 -108 -671 -324c-202.667 -215.333 -304 -448.666 -304 -699.999c0 -120.667 39.667 -211 119 -271c68.667 -51.333 161.667 -77 279 -77c48.667 0 95 2.66699 139 8
c40.667 5.33301 88.334 16 143.001 32c96 30.667 179.333 69 250 115c41.333 -52 96 -94.333 164 -127c30 -10.667 64 -20 102 -28c36 -8.66699 73 -13 111 -13c120 0 244.333 27.333 373 82c128 52 240 113.333 336 184l-29 37c-40.667 -27.333 -79 -50.333 -115 -69
c-16 -8.66699 -59.667 -29.334 -131 -62.001c-90 -35.333 -161 -53 -213 -53c-48.667 0 -84 11 -106 33s-33 52 -33 90c0 30 2.66699 53.333 8 70l21 57zM1200 1192l-286.998 -745.998l-24 -98l-17 -86l17 -69l-139 -70c-44 -14 -88 -23.667 -132 -29
c-40.667 0 -72 13.667 -94 41c-24.667 24.667 -37 65.667 -37 123s19.167 144.666 57.5 261.999s88.833 247 151.5 389c63.333 139.333 116.666 237.666 159.999 294.999c46.667 52 100 78 160 78c73.333 0 134.666 -30 183.999 -90zM1278 1622
c65.333 16.667 112.997 38.666 142.997 65.999c14 13.333 27.667 32.333 41 57l49 74l45 57l86 111c27.333 32.667 63 69.334 107 110.001h-131l-131 -123c-27.333 -30 -56 -58.667 -86 -86c-30 -30 -58.667 -45 -86 -45c-19.333 0 -40 8.33301 -62 25l-233 229h-135
l82 -180c18.667 -52 32.334 -87.667 41.001 -107c24 -54 45.667 -94.667 65 -122c32.667 -27.333 76.334 -46.666 131.001 -57.999c16.667 -2.66699 41.334 -5.33398 74.001 -8.00098zM1688 2761c-14 -68.667 -63.333 -150.666 -148 -245.999
c-87.333 -98.667 -188.333 -183.334 -303 -254.001h242c90 10.667 169 40.667 237 90l148 111c65.333 35.333 120 76.333 164 123l135 176h-475z" />
    <glyph glyph-name="AE" unicode="&#xc6;" 
d="M1778 1343l-537.001 -94c-60 68.667 -157 103 -291 103c-245.333 0 -469 -108 -671 -324c-202.667 -215.333 -304 -448.666 -304 -699.999c0 -120.667 39.667 -211 119 -271c68.667 -51.333 161.667 -77 279 -77c48.667 0 95 2.66699 139 8
c40.667 5.33301 88.334 16 143.001 32c96 30.667 179.333 69 250 115c41.333 -52 96 -94.333 164 -127c30 -10.667 64 -20 102 -28c36 -8.66699 73 -13 111 -13c120 0 244.333 27.333 373 82c128 52 240 113.333 336 184l-29 37c-40.667 -27.333 -79 -50.333 -115 -69
c-16 -8.66699 -59.667 -29.334 -131 -62.001c-90 -35.333 -161 -53 -213 -53c-48.667 0 -84 11 -106 33s-33 52 -33 90c0 30 2.66699 53.333 8 70l21 57zM1200 1192l-286.998 -745.998l-24 -98l-17 -86l17 -69l-139 -70c-44 -14 -88 -23.667 -132 -29
c-40.667 0 -72 13.667 -94 41c-24.667 24.667 -37 65.667 -37 123s19.167 144.666 57.5 261.999s88.833 247 151.5 389c63.333 139.333 116.666 237.666 159.999 294.999c46.667 52 100 78 160 78c73.333 0 134.666 -30 183.999 -90zM1278 1622
c65.333 16.667 112.997 38.666 142.997 65.999c14 13.333 27.667 32.333 41 57l49 74l45 57l86 111c27.333 32.667 63 69.334 107 110.001h-131l-131 -123c-27.333 -30 -56 -58.667 -86 -86c-30 -30 -58.667 -45 -86 -45c-19.333 0 -40 8.33301 -62 25l-233 229h-135
l82 -180c18.667 -52 32.334 -87.667 41.001 -107c24 -54 45.667 -94.667 65 -122c32.667 -27.333 76.334 -46.666 131.001 -57.999c16.667 -2.66699 41.334 -5.33398 74.001 -8.00098zM568.998 -482.999c0 -57.333 20.667 -109.334 62 -156.001
c40.667 -49.333 96.667 -74 168 -74c70.667 0 123.667 22 159 66c16.667 19.333 29 44 37 74c6 27.333 9 61.333 9 102s-1.66699 70.667 -5 90c-5.33301 16.667 -19 37.334 -41 62.001c-38 46 -91 69 -159 69c-74 0 -130 -21.667 -168 -65
c-41.333 -46.667 -62 -102.667 -62 -168z" />
    <glyph glyph-name="Ccedilla" unicode="&#xc7;" 
d="M1778 1343l-537.001 -94c-60 68.667 -157 103 -291 103c-245.333 0 -469 -108 -671 -324c-202.667 -215.333 -304 -448.666 -304 -699.999c0 -120.667 39.667 -211 119 -271c68.667 -51.333 161.667 -77 279 -77c48.667 0 95 2.66699 139 8
c40.667 5.33301 88.334 16 143.001 32c96 30.667 179.333 69 250 115c41.333 -52 96 -94.333 164 -127c30 -10.667 64 -20 102 -28c36 -8.66699 73 -13 111 -13c120 0 244.333 27.333 373 82c128 52 240 113.333 336 184l-29 37c-40.667 -27.333 -79 -50.333 -115 -69
c-16 -8.66699 -59.667 -29.334 -131 -62.001c-90 -35.333 -161 -53 -213 -53c-48.667 0 -84 11 -106 33s-33 52 -33 90c0 30 2.66699 53.333 8 70l21 57zM1200 1192l-286.998 -745.998l-24 -98l-17 -86l17 -69l-139 -70c-44 -14 -88 -23.667 -132 -29
c-40.667 0 -72 13.667 -94 41c-24.667 24.667 -37 65.667 -37 123s19.167 144.666 57.5 261.999s88.833 247 151.5 389c63.333 139.333 116.666 237.666 159.999 294.999c46.667 52 100 78 160 78c73.333 0 134.666 -30 183.999 -90zM1274 1827
c27.333 0 48.999 -6.99902 64.999 -20.999l45 -37l168 -159h160l-127 254l-41 73c-13.333 22 -25.666 41.333 -36.999 58c-35.333 35.333 -65.333 58.333 -90 68.999c-24.667 8.66699 -65.667 13 -123 13c-38 0 -81.667 -15 -131 -45c-48.667 -30 -78.667 -53.333 -90 -70
l-49 -78l-82 -135c-35.333 -54.667 -73.666 -101 -114.999 -139h127l103 90l102 94c35.333 22 73.666 33 114.999 33zM1700 2482l-528.999 0.000976562c36 -40.667 73 -80.334 111 -119.001c35.333 -38 79 -74.667 131 -110c84.667 -57.333 164 -108 238 -152
c112 -65.333 173.333 -102 184 -110l254 37c-68 18.667 -115.667 37.667 -143 57l-62 65c-54.667 60.667 -94.334 116.667 -119.001 168c-27.333 49.333 -49 104 -65 164z" />
    <glyph glyph-name="Egrave" unicode="&#xc8;" 
d="M1778 1343l-537.001 -94c-60 68.667 -157 103 -291 103c-245.333 0 -469 -108 -671 -324c-202.667 -215.333 -304 -448.666 -304 -699.999c0 -120.667 39.667 -211 119 -271c68.667 -51.333 161.667 -77 279 -77c48.667 0 95 2.66699 139 8
c40.667 5.33301 88.334 16 143.001 32c96 30.667 179.333 69 250 115c41.333 -52 96 -94.333 164 -127c30 -10.667 64 -20 102 -28c36 -8.66699 73 -13 111 -13c120 0 244.333 27.333 373 82c128 52 240 113.333 336 184l-29 37c-40.667 -27.333 -79 -50.333 -115 -69
c-16 -8.66699 -59.667 -29.334 -131 -62.001c-90 -35.333 -161 -53 -213 -53c-48.667 0 -84 11 -106 33s-33 52 -33 90c0 30 2.66699 53.333 8 70l21 57zM1200 1192l-286.998 -745.998l-24 -98l-17 -86l17 -69l-139 -70c-44 -14 -88 -23.667 -132 -29
c-40.667 0 -72 13.667 -94 41c-24.667 24.667 -37 65.667 -37 123s19.167 144.666 57.5 261.999s88.833 247 151.5 389c63.333 139.333 116.666 237.666 159.999 294.999c46.667 52 100 78 160 78c73.333 0 134.666 -30 183.999 -90zM1274 1827
c27.333 0 48.999 -6.99902 64.999 -20.999l45 -37l168 -159h160l-127 254l-41 73c-13.333 22 -25.666 41.333 -36.999 58c-35.333 35.333 -65.333 58.333 -90 68.999c-24.667 8.66699 -65.667 13 -123 13c-38 0 -81.667 -15 -131 -45c-48.667 -30 -78.667 -53.333 -90 -70
l-49 -78l-82 -135c-35.333 -54.667 -73.666 -101 -114.999 -139h127l103 90l102 94c35.333 22 73.666 33 114.999 33zM1745 2445c0 60 29.999 122.999 89.999 188.999c57.333 62.667 117.333 94 180 94c49.333 0 74 -20.667 74 -62c0 -40.667 -38.333 -85.667 -115 -135
l-205 -143c-76 -62.667 -114 -125.334 -114 -188c0 -54.667 20.333 -97 61 -127c22 -14 44 -22.333 66 -25c18.667 -5.33301 43 -8 73 -8l78 4c24.667 5.33301 49.334 12 74.001 20l33 74l-17 12c-51.333 -51.333 -99 -77 -143 -77c-30 0 -46.333 13.667 -49 41
c0 21.333 37 56.666 111 106c114.667 76.667 181.334 124.334 200 143.001c74 63.333 111 129 111 197c0 62.667 -23.333 114.667 -70 156c-46 38 -107.333 57 -184 57c-84.667 0 -155.667 -24.667 -213 -74c-52 -52 -78 -117.333 -78 -196l4 -66z" />
    <glyph glyph-name="Eacute" unicode="&#xc9;" 
d="M1778 1343l-537.001 -94c-60 68.667 -157 103 -291 103c-245.333 0 -469 -108 -671 -324c-202.667 -215.333 -304 -448.666 -304 -699.999c0 -120.667 39.667 -211 119 -271c68.667 -51.333 161.667 -77 279 -77c48.667 0 95 2.66699 139 8
c40.667 5.33301 88.334 16 143.001 32c96 30.667 179.333 69 250 115c41.333 -52 96 -94.333 164 -127c30 -10.667 64 -20 102 -28c36 -8.66699 73 -13 111 -13c120 0 244.333 27.333 373 82c128 52 240 113.333 336 184l-29 37c-40.667 -27.333 -79 -50.333 -115 -69
c-16 -8.66699 -59.667 -29.334 -131 -62.001c-90 -35.333 -161 -53 -213 -53c-48.667 0 -84 11 -106 33s-33 52 -33 90c0 30 2.66699 53.333 8 70l21 57zM1200 1192l-286.998 -745.998l-24 -98l-17 -86l17 -69l-139 -70c-44 -14 -88 -23.667 -132 -29
c-40.667 0 -72 13.667 -94 41c-24.667 24.667 -37 65.667 -37 123s19.167 144.666 57.5 261.999s88.833 247 151.5 389c63.333 139.333 116.666 237.666 159.999 294.999c46.667 52 100 78 160 78c73.333 0 134.666 -30 183.999 -90zM1274 1827
c27.333 0 48.999 -6.99902 64.999 -20.999l45 -37l168 -159h160l-127 254l-41 73c-13.333 22 -25.666 41.333 -36.999 58c-35.333 35.333 -65.333 58.333 -90 68.999c-24.667 8.66699 -65.667 13 -123 13c-38 0 -81.667 -15 -131 -45c-48.667 -30 -78.667 -53.333 -90 -70
l-49 -78l-82 -135c-35.333 -54.667 -73.666 -101 -114.999 -139h127l103 90l102 94c35.333 22 73.666 33 114.999 33zM1970 2605c-68 -76.667 -136.335 -115.001 -205.002 -115.001c-60 0 -116 11 -168 33c-136 49.333 -226 76.666 -270 82
c-65.333 0 -126.666 -24.667 -183.999 -74c-57.333 -48.667 -116 -133.334 -176 -254l69 -41c22 24.667 55 49.334 99 74.001l110 25c38.667 0 123.334 -19.333 254.001 -58c68.667 -18.667 126 -28 172 -28c79.333 0 154.333 34 225 102c49.333 44 97.333 113.667 144 209z
" />
    <glyph glyph-name="Ecircumflex" unicode="&#xca;" 
d="M1778 1343l-537.001 -94c-60 68.667 -157 103 -291 103c-245.333 0 -469 -108 -671 -324c-202.667 -215.333 -304 -448.666 -304 -699.999c0 -120.667 39.667 -211 119 -271c68.667 -51.333 161.667 -77 279 -77c48.667 0 95 2.66699 139 8
c40.667 5.33301 88.334 16 143.001 32c96 30.667 179.333 69 250 115c41.333 -52 96 -94.333 164 -127c30 -10.667 64 -20 102 -28c36 -8.66699 73 -13 111 -13c120 0 244.333 27.333 373 82c128 52 240 113.333 336 184l-29 37c-40.667 -27.333 -79 -50.333 -115 -69
c-16 -8.66699 -59.667 -29.334 -131 -62.001c-90 -35.333 -161 -53 -213 -53c-48.667 0 -84 11 -106 33s-33 52 -33 90c0 30 2.66699 53.333 8 70l21 57zM1200 1192l-286.998 -745.998l-24 -98l-17 -86l17 -69l-139 -70c-44 -14 -88 -23.667 -132 -29
c-40.667 0 -72 13.667 -94 41c-24.667 24.667 -37 65.667 -37 123s19.167 144.666 57.5 261.999s88.833 247 151.5 389c63.333 139.333 116.666 237.666 159.999 294.999c46.667 52 100 78 160 78c73.333 0 134.666 -30 183.999 -90zM1274 1827
c27.333 0 48.999 -6.99902 64.999 -20.999l45 -37l168 -159h160l-127 254l-41 73c-13.333 22 -25.666 41.333 -36.999 58c-35.333 35.333 -65.333 58.333 -90 68.999c-24.667 8.66699 -65.667 13 -123 13c-38 0 -81.667 -15 -131 -45c-48.667 -30 -78.667 -53.333 -90 -70
l-49 -78l-82 -135c-35.333 -54.667 -73.666 -101 -114.999 -139h127l103 90l102 94c35.333 22 73.666 33 114.999 33zM2220 2454c-13.333 -68.667 -62.334 -150.666 -147.001 -245.999c-87.333 -98.667 -188.666 -183.334 -303.999 -254.001h242
c90 10.667 169.333 40.667 238 90l147 110c65.333 36 120 77 164 123l135 177h-475z" />
    <glyph glyph-name="Edieresis" unicode="&#xcb;" 
d="M1778 1343l-537.001 -94c-60 68.667 -157 103 -291 103c-245.333 0 -469 -108 -671 -324c-202.667 -215.333 -304 -448.666 -304 -699.999c0 -120.667 39.667 -211 119 -271c68.667 -51.333 161.667 -77 279 -77c48.667 0 95 2.66699 139 8
c40.667 5.33301 88.334 16 143.001 32c96 30.667 179.333 69 250 115c41.333 -52 96 -94.333 164 -127c30 -10.667 64 -20 102 -28c36 -8.66699 73 -13 111 -13c120 0 244.333 27.333 373 82c128 52 240 113.333 336 184l-29 37c-40.667 -27.333 -79 -50.333 -115 -69
c-16 -8.66699 -59.667 -29.334 -131 -62.001c-90 -35.333 -161 -53 -213 -53c-48.667 0 -84 11 -106 33s-33 52 -33 90c0 30 2.66699 53.333 8 70l21 57zM1200 1192l-286.998 -745.998l-24 -98l-17 -86l17 -69l-139 -70c-44 -14 -88 -23.667 -132 -29
c-40.667 0 -72 13.667 -94 41c-24.667 24.667 -37 65.667 -37 123s19.167 144.666 57.5 261.999s88.833 247 151.5 389c63.333 139.333 116.666 237.666 159.999 294.999c46.667 52 100 78 160 78c73.333 0 134.666 -30 183.999 -90zM1274 1827
c27.333 0 48.999 -6.99902 64.999 -20.999l45 -37l168 -159h160l-127 254l-41 73c-13.333 22 -25.666 41.333 -36.999 58c-35.333 35.333 -65.333 58.333 -90 68.999c-24.667 8.66699 -65.667 13 -123 13c-38 0 -81.667 -15 -131 -45c-48.667 -30 -78.667 -53.333 -90 -70
l-49 -78l-82 -135c-35.333 -54.667 -73.666 -101 -114.999 -139h127l103 90l102 94c35.333 22 73.666 33 114.999 33zM590 -462.997c0 -57.333 20.334 -108.999 61.001 -154.999c41.333 -49.333 97.333 -74 168 -74c71.333 0 124.666 21.667 159.999 65
c16.667 19.333 29 44 37 74c5.33301 27.333 8 61.333 8 102c0 41.333 -1.33301 71.666 -4 90.999c-5.33301 16 -19 36.333 -41 61c-38 46.667 -91.333 70 -160 70c-73.333 0 -129.333 -22 -168 -66c-40.667 -46.667 -61 -102.667 -61 -168z" />
    <glyph glyph-name="Igrave" unicode="&#xcc;" horiz-adv-x="1434" 
d="M1401 270c-229.333 -147.333 -442.335 -221.004 -639.002 -221.004c-84.667 0 -151.667 24.667 -201 74c-13.333 16 -25.666 35 -36.999 57c-18.667 38.667 -28 82.334 -28 131.001l16 115c218.667 82 393.334 185.667 524.001 311c131.333 123.333 197 250.333 197 381
c0 161.333 -109.333 242 -328 242c-264.667 0 -485.667 -109.333 -663 -328c-178 -218 -267 -461 -267 -729c0 -131.333 63 -225.666 189 -282.999c90 -35.333 208.667 -53 356 -53c92.667 0 180 4.33301 262 13c79.333 8 153.333 21.333 222 40
c68 16.667 137.333 41.334 208 74.001c68.667 32.667 142.667 76.334 222 131.001zM519.998 495.996c57.333 193.333 114.667 353 172 479c98.667 229.333 187.334 344 266.001 344c54.667 0 82 -26 82 -78c0 -90 -66.667 -222.333 -200 -397
c-106.667 -144.667 -213.334 -260.667 -320.001 -348zM1024 2011l-528 0.00195312c35.333 -40.667 72 -80.334 110 -119.001c35.333 -38 79 -74.667 131 -110c84.667 -57.333 164 -108 238 -152c112 -65.333 173.333 -102 184 -110l254 36
c-68 19.333 -115.667 38.666 -143 57.999l-62 65c-54.667 60 -94 116 -118 168c-27.333 49.333 -49.333 104 -66 164z" />
    <glyph glyph-name="Icircumflex" unicode="&#xce;" horiz-adv-x="1434" 
d="M1401 270c-229.333 -147.333 -442.335 -221.004 -639.002 -221.004c-84.667 0 -151.667 24.667 -201 74c-13.333 16 -25.666 35 -36.999 57c-18.667 38.667 -28 82.334 -28 131.001l16 115c218.667 82 393.334 185.667 524.001 311c131.333 123.333 197 250.333 197 381
c0 161.333 -109.333 242 -328 242c-264.667 0 -485.667 -109.333 -663 -328c-178 -218 -267 -461 -267 -729c0 -131.333 63 -225.666 189 -282.999c90 -35.333 208.667 -53 356 -53c92.667 0 180 4.33301 262 13c79.333 8 153.333 21.333 222 40
c68 16.667 137.333 41.334 208 74.001c68.667 32.667 142.667 76.334 222 131.001zM519.998 495.996c57.333 193.333 114.667 353 172 479c98.667 229.333 187.334 344 266.001 344c54.667 0 82 -26 82 -78c0 -90 -66.667 -222.333 -200 -397
c-106.667 -144.667 -213.334 -260.667 -320.001 -348zM1130 1995c0 60 30.333 122.667 91 188c57.333 62.667 117.333 94 180 94c49.333 0 74 -20.333 74 -61c0 -41.333 -38.333 -86.333 -115 -135l-205 -144c-76.667 -62.667 -115 -125.334 -115 -188.001
c0 -54.667 20.667 -97 62 -127c22 -13.333 43.667 -21.666 65 -24.999c19.333 -5.33301 44 -8 74 -8l78 4c24.667 6 49.334 13 74.001 21l32 74l-16 12c-52 -52 -99.667 -78 -143 -78c-30 0 -46.333 13.667 -49 41c0 22 36.667 57.333 110 106
c114.667 76.667 181.667 124.667 201 144c73.333 62.667 110 128 110 196c0 63.333 -23 115.333 -69 156c-46.667 38 -108.334 57 -185.001 57c-84.667 0 -155.667 -24.333 -213 -73c-51.333 -52 -77 -117.667 -77 -197l4 -65z" />
    <glyph glyph-name="Idieresis" unicode="&#xcf;" horiz-adv-x="1434" 
d="M1401 270c-229.333 -147.333 -442.335 -221.004 -639.002 -221.004c-84.667 0 -151.667 24.667 -201 74c-13.333 16 -25.666 35 -36.999 57c-18.667 38.667 -28 82.334 -28 131.001l16 115c218.667 82 393.334 185.667 524.001 311c131.333 123.333 197 250.333 197 381
c0 161.333 -109.333 242 -328 242c-264.667 0 -485.667 -109.333 -663 -328c-178 -218 -267 -461 -267 -729c0 -131.333 63 -225.666 189 -282.999c90 -35.333 208.667 -53 356 -53c92.667 0 180 4.33301 262 13c79.333 8 153.333 21.333 222 40
c68 16.667 137.333 41.334 208 74.001c68.667 32.667 142.667 76.334 222 131.001zM519.998 495.996c57.333 193.333 114.667 353 172 479c98.667 229.333 187.334 344 266.001 344c54.667 0 82 -26 82 -78c0 -90 -66.667 -222.333 -200 -397
c-106.667 -144.667 -213.334 -260.667 -320.001 -348zM1458 1970c-68 -76.667 -136.335 -114.998 -205.002 -114.998c-60 0 -116 11 -168 33c-136 49.333 -226 76.666 -270 81.999c-65.333 0 -126.666 -24.667 -183.999 -74c-57.333 -48.667 -116 -133.334 -176 -254.001
l69 -40c22 24 55 48.333 99 73l110 25c38.667 0 123.334 -19.333 254.001 -58c68.667 -18.667 126 -28 172 -28c79.333 0 154.333 34 225 102c49.333 44 97.333 113.667 144 209z" />
    <glyph glyph-name="Eth" unicode="&#xd0;" horiz-adv-x="1434" 
d="M1401 270c-229.333 -147.333 -442.335 -221.004 -639.002 -221.004c-84.667 0 -151.667 24.667 -201 74c-13.333 16 -25.666 35 -36.999 57c-18.667 38.667 -28 82.334 -28 131.001l16 115c218.667 82 393.334 185.667 524.001 311c131.333 123.333 197 250.333 197 381
c0 161.333 -109.333 242 -328 242c-264.667 0 -485.667 -109.333 -663 -328c-178 -218 -267 -461 -267 -729c0 -131.333 63 -225.666 189 -282.999c90 -35.333 208.667 -53 356 -53c92.667 0 180 4.33301 262 13c79.333 8 153.333 21.333 222 40
c68 16.667 137.333 41.334 208 74.001c68.667 32.667 142.667 76.334 222 131.001zM519.998 495.996c57.333 193.333 114.667 353 172 479c98.667 229.333 187.334 344 266.001 344c54.667 0 82 -26 82 -78c0 -90 -66.667 -222.333 -200 -397
c-106.667 -144.667 -213.334 -260.667 -320.001 -348zM1257 2085c-13.333 -68.667 -62.332 -150.667 -146.999 -246c-87.333 -98 -188.333 -182.667 -303 -254h242c90 11.333 169 41.333 237 90l148 111c65.333 35.333 119.666 76.333 162.999 123l136 176h-476z" />
    <glyph glyph-name="Ntilde" unicode="&#xd1;" horiz-adv-x="1434" 
d="M1401 270c-229.333 -147.333 -442.335 -221.004 -639.002 -221.004c-84.667 0 -151.667 24.667 -201 74c-13.333 16 -25.666 35 -36.999 57c-18.667 38.667 -28 82.334 -28 131.001l16 115c218.667 82 393.334 185.667 524.001 311c131.333 123.333 197 250.333 197 381
c0 161.333 -109.333 242 -328 242c-264.667 0 -485.667 -109.333 -663 -328c-178 -218 -267 -461 -267 -729c0 -131.333 63 -225.666 189 -282.999c90 -35.333 208.667 -53 356 -53c92.667 0 180 4.33301 262 13c79.333 8 153.333 21.333 222 40
c68 16.667 137.333 41.334 208 74.001c68.667 32.667 142.667 76.334 222 131.001zM519.998 495.996c57.333 193.333 114.667 353 172 479c98.667 229.333 187.334 344 266.001 344c54.667 0 82 -26 82 -78c0 -90 -66.667 -222.333 -200 -397
c-106.667 -144.667 -213.334 -260.667 -320.001 -348zM302.999 -483.004c0 -57.333 20.667 -109.334 62 -156.001c40.667 -49.333 96.334 -74 167.001 -74c71.333 0 124.666 22 159.999 66c16.667 19.333 29 44 37 74c5.33301 27.333 8 61.333 8 102s-1.33301 70.667 -4 90
c-5.33301 16.667 -19 37.334 -41 62.001c-38 46 -91.333 69 -160 69c-73.333 0 -129 -21.667 -167 -65c-41.333 -46.667 -62 -102.667 -62 -168z" />
    <glyph glyph-name="Ograve" unicode="&#xd2;" horiz-adv-x="1434" 
d="M1401 270c-229.333 -147.333 -442.335 -221.004 -639.002 -221.004c-84.667 0 -151.667 24.667 -201 74c-13.333 16 -25.666 35 -36.999 57c-18.667 38.667 -28 82.334 -28 131.001l16 115c218.667 82 393.334 185.667 524.001 311c131.333 123.333 197 250.333 197 381
c0 161.333 -109.333 242 -328 242c-264.667 0 -485.667 -109.333 -663 -328c-178 -218 -267 -461 -267 -729c0 -131.333 63 -225.666 189 -282.999c90 -35.333 208.667 -53 356 -53c92.667 0 180 4.33301 262 13c79.333 8 153.333 21.333 222 40
c68 16.667 137.333 41.334 208 74.001c68.667 32.667 142.667 76.334 222 131.001zM519.998 495.996c57.333 193.333 114.667 353 172 479c98.667 229.333 187.334 344 266.001 344c54.667 0 82 -26 82 -78c0 -90 -66.667 -222.333 -200 -397
c-106.667 -144.667 -213.334 -260.667 -320.001 -348zM884.999 1806c27.333 0 48.999 -6.66602 64.999 -19.999l45 -37l168 -160h160l-127 254l-41 74c-13.333 22 -25.666 41 -36.999 57c-35.333 36 -65.333 59.333 -90 70c-24.667 8 -65.667 12 -123 12
c-38 0 -81.667 -15 -131 -45s-79.333 -53 -90 -69l-49 -78l-82 -135c-35.333 -54.667 -73.666 -101.334 -114.999 -140.001h127l103 90l102 95c35.333 21.333 73.666 32 114.999 32zM1331 2503l-527.999 -0.000976562c35.333 -41.333 72 -81 110 -119
c36 -38 79.667 -75 131 -111c84.667 -57.333 164 -107.666 238 -150.999c112 -66 173.333 -103 184 -111l254 37c-68 19.333 -115.667 38.333 -143 57c-2.66699 2.66699 -23 24.667 -61 66c-54.667 60 -94.334 116 -119.001 168c-27.333 49.333 -49.333 104 -66 164z" />
    <glyph glyph-name="Oacute" unicode="&#xd3;" horiz-adv-x="1434" 
d="M1401 270c-229.333 -147.333 -442.335 -221.004 -639.002 -221.004c-84.667 0 -151.667 24.667 -201 74c-13.333 16 -25.666 35 -36.999 57c-18.667 38.667 -28 82.334 -28 131.001l16 115c218.667 82 393.334 185.667 524.001 311c131.333 123.333 197 250.333 197 381
c0 161.333 -109.333 242 -328 242c-264.667 0 -485.667 -109.333 -663 -328c-178 -218 -267 -461 -267 -729c0 -131.333 63 -225.666 189 -282.999c90 -35.333 208.667 -53 356 -53c92.667 0 180 4.33301 262 13c79.333 8 153.333 21.333 222 40
c68 16.667 137.333 41.334 208 74.001c68.667 32.667 142.667 76.334 222 131.001zM519.998 495.996c57.333 193.333 114.667 353 172 479c98.667 229.333 187.334 344 266.001 344c54.667 0 82 -26 82 -78c0 -90 -66.667 -222.333 -200 -397
c-106.667 -144.667 -213.334 -260.667 -320.001 -348zM884.999 1806c27.333 0 48.999 -6.66602 64.999 -19.999l45 -37l168 -160h160l-127 254l-41 74c-13.333 22 -25.666 41 -36.999 57c-35.333 36 -65.333 59.333 -90 70c-24.667 8 -65.667 12 -123 12
c-38 0 -81.667 -15 -131 -45s-79.333 -53 -90 -69l-49 -78l-82 -135c-35.333 -54.667 -73.666 -101.334 -114.999 -140.001h127l103 90l102 95c35.333 21.333 73.666 32 114.999 32zM1294 2589c0 60 30.0029 122.668 90.0029 188.001c57.333 62.667 117.666 94 180.999 94
c48.667 0 73 -20.333 73 -61c0 -41.333 -38 -86.333 -114 -135l-205 -144c-76.667 -62.667 -115 -125.334 -115 -188.001c0 -54.667 20.667 -97 62 -127c21.333 -14 43 -22.333 65 -25c19.333 -5.33301 44 -8 74 -8l78 4c24.667 5.33301 49 12.333 73 21l33 73l-16 13
c-52 -52 -99.667 -78 -143 -78c-30.667 0 -47.334 13.667 -50.001 41c0 22 37 57.333 111 106c114.667 76.667 181.667 124.667 201 144c73.333 62.667 110 128 110 196c0 63.333 -23 115.333 -69 156c-46.667 38 -108.334 57 -185.001 57
c-84.667 0 -155.667 -24.333 -213 -73c-52 -52 -78 -117.667 -78 -197l5 -66z" />
    <glyph glyph-name="Ocircumflex" unicode="&#xd4;" horiz-adv-x="1434" 
d="M1401 270c-229.333 -147.333 -442.335 -221.004 -639.002 -221.004c-84.667 0 -151.667 24.667 -201 74c-13.333 16 -25.666 35 -36.999 57c-18.667 38.667 -28 82.334 -28 131.001l16 115c218.667 82 393.334 185.667 524.001 311c131.333 123.333 197 250.333 197 381
c0 161.333 -109.333 242 -328 242c-264.667 0 -485.667 -109.333 -663 -328c-178 -218 -267 -461 -267 -729c0 -131.333 63 -225.666 189 -282.999c90 -35.333 208.667 -53 356 -53c92.667 0 180 4.33301 262 13c79.333 8 153.333 21.333 222 40
c68 16.667 137.333 41.334 208 74.001c68.667 32.667 142.667 76.334 222 131.001zM519.998 495.996c57.333 193.333 114.667 353 172 479c98.667 229.333 187.334 344 266.001 344c54.667 0 82 -26 82 -78c0 -90 -66.667 -222.333 -200 -397
c-106.667 -144.667 -213.334 -260.667 -320.001 -348zM884.999 1806c27.333 0 48.999 -6.66602 64.999 -19.999l45 -37l168 -160h160l-127 254l-41 74c-13.333 22 -25.666 41 -36.999 57c-35.333 36 -65.333 59.333 -90 70c-24.667 8 -65.667 12 -123 12
c-38 0 -81.667 -15 -131 -45s-79.333 -53 -90 -69l-49 -78l-82 -135c-35.333 -54.667 -73.666 -101.334 -114.999 -140.001h127l103 90l102 95c35.333 21.333 73.666 32 114.999 32zM1663 2605c-68 -76.667 -136.334 -115.001 -205.001 -115.001c-60 0 -116 11 -168 33
c-136.667 49.333 -226.667 76.666 -270 82c-65.333 0 -126.666 -24.667 -183.999 -74c-57.333 -48.667 -116.333 -133.334 -177 -254l70 -41c22 24.667 54.667 49.334 98 74.001l111 25c38 0 122.667 -19.333 254 -58c68 -18.667 125.333 -28 172 -28
c79.333 0 154.333 34 225 102c49.333 44 97.333 113.667 144 209z" />
    <glyph glyph-name="Otilde" unicode="&#xd5;" horiz-adv-x="1434" 
d="M1401 270c-229.333 -147.333 -442.335 -221.004 -639.002 -221.004c-84.667 0 -151.667 24.667 -201 74c-13.333 16 -25.666 35 -36.999 57c-18.667 38.667 -28 82.334 -28 131.001l16 115c218.667 82 393.334 185.667 524.001 311c131.333 123.333 197 250.333 197 381
c0 161.333 -109.333 242 -328 242c-264.667 0 -485.667 -109.333 -663 -328c-178 -218 -267 -461 -267 -729c0 -131.333 63 -225.666 189 -282.999c90 -35.333 208.667 -53 356 -53c92.667 0 180 4.33301 262 13c79.333 8 153.333 21.333 222 40
c68 16.667 137.333 41.334 208 74.001c68.667 32.667 142.667 76.334 222 131.001zM519.998 495.996c57.333 193.333 114.667 353 172 479c98.667 229.333 187.334 344 266.001 344c54.667 0 82 -26 82 -78c0 -90 -66.667 -222.333 -200 -397
c-106.667 -144.667 -213.334 -260.667 -320.001 -348zM884.999 1806c27.333 0 48.999 -6.66602 64.999 -19.999l45 -37l168 -160h160l-127 254l-41 74c-13.333 22 -25.666 41 -36.999 57c-35.333 36 -65.333 59.333 -90 70c-24.667 8 -65.667 12 -123 12
c-38 0 -81.667 -15 -131 -45s-79.333 -53 -90 -69l-49 -78l-82 -135c-35.333 -54.667 -73.666 -101.334 -114.999 -140.001h127l103 90l102 95c35.333 21.333 73.666 32 114.999 32zM1892 2494c-13.333 -68 -62.333 -149.666 -147 -244.999
c-87.333 -98.667 -188.333 -183.334 -303 -254.001h241c90.667 10.667 170 40.667 238 90l147 110c66 36 120.667 77 164 123l135 176h-475z" />
    <glyph glyph-name="Odieresis" unicode="&#xd6;" horiz-adv-x="1434" 
d="M1401 270c-229.333 -147.333 -442.335 -221.004 -639.002 -221.004c-84.667 0 -151.667 24.667 -201 74c-13.333 16 -25.666 35 -36.999 57c-18.667 38.667 -28 82.334 -28 131.001l16 115c218.667 82 393.334 185.667 524.001 311c131.333 123.333 197 250.333 197 381
c0 161.333 -109.333 242 -328 242c-264.667 0 -485.667 -109.333 -663 -328c-178 -218 -267 -461 -267 -729c0 -131.333 63 -225.666 189 -282.999c90 -35.333 208.667 -53 356 -53c92.667 0 180 4.33301 262 13c79.333 8 153.333 21.333 222 40
c68 16.667 137.333 41.334 208 74.001c68.667 32.667 142.667 76.334 222 131.001zM519.998 495.996c57.333 193.333 114.667 353 172 479c98.667 229.333 187.334 344 266.001 344c54.667 0 82 -26 82 -78c0 -90 -66.667 -222.333 -200 -397
c-106.667 -144.667 -213.334 -260.667 -320.001 -348zM884.999 1806c27.333 0 48.999 -6.66602 64.999 -19.999l45 -37l168 -160h160l-127 254l-41 74c-13.333 22 -25.666 41 -36.999 57c-35.333 36 -65.333 59.333 -90 70c-24.667 8 -65.667 12 -123 12
c-38 0 -81.667 -15 -131 -45s-79.333 -53 -90 -69l-49 -78l-82 -135c-35.333 -54.667 -73.666 -101.334 -114.999 -140.001h127l103 90l102 95c35.333 21.333 73.666 32 114.999 32zM302.998 -545.003c0 -57.333 20.667 -108.999 62 -154.999
c40.667 -49.333 96.334 -74 167.001 -74c71.333 0 124.666 21.667 159.999 65c16.667 19.333 29 44 37 74c5.33301 27.333 8 61.666 8 102.999c0 40.667 -1.33301 70.667 -4 90c-5.33301 16 -19 36.333 -41 61c-38 46.667 -91.333 70 -160 70c-73.333 0 -129 -22 -167 -66
c-41.333 -46 -62 -102 -62 -168z" />
    <glyph glyph-name="multiply" unicode="&#xd7;" horiz-adv-x="1065" 
d="M881 1368l-562.004 -118.998l-311 -856c-5.33301 -10.667 -10.666 -29.667 -15.999 -57c-8 -30 -13.667 -56 -17 -78c0 -92.667 45.333 -162.334 136 -209.001c87.333 -49.333 192.333 -74 315 -74c237.333 0 461.333 91.667 672 275l-33 29l-213 -140
c-82 -48.667 -161.333 -73 -238 -73c-51.333 0 -86.666 9.33301 -105.999 28c-19.333 19.333 -31.666 50.666 -36.999 93.999c2.66699 27.333 5.33398 47.833 8.00098 61.5s11 34.167 25 61.5zM695.996 2093l-527.999 0.000976562
c35.333 -40.667 72.333 -80.334 111 -119.001c35.333 -38 79 -74.667 131 -110c84.667 -57.333 163.667 -108 237 -152c112 -65.333 173.333 -102 184 -110l254 36c-68 19.333 -115.667 38.666 -143 57.999c-2.66699 2.66699 -23 24.334 -61 65.001
c-54.667 60 -94.334 116 -119.001 168c-27.333 49.333 -49.333 104 -66 164z" />
    <glyph glyph-name="Oslash" unicode="&#xd8;" horiz-adv-x="1065" 
d="M881 1368l-562.004 -118.998l-311 -856c-5.33301 -10.667 -10.666 -29.667 -15.999 -57c-8 -30 -13.667 -56 -17 -78c0 -92.667 45.333 -162.334 136 -209.001c87.333 -49.333 192.333 -74 315 -74c237.333 0 461.333 91.667 672 275l-33 29l-213 -140
c-82 -48.667 -161.333 -73 -238 -73c-51.333 0 -86.666 9.33301 -105.999 28c-19.333 19.333 -31.666 50.666 -36.999 93.999c2.66699 27.333 5.33398 47.833 8.00098 61.5s11 34.167 25 61.5zM617.996 2097c0 60 30.333 122.999 91 188.999
c57.333 62.667 117.333 94 180 94c49.333 0 74 -20.667 74 -62c0 -40.667 -38.333 -85.667 -115 -135l-205 -143c-76.667 -62.667 -115 -125.667 -115 -189c0 -54.667 20.667 -97 62 -127c22 -13.333 43.667 -21.333 65 -24c19.333 -5.33301 44 -8 74 -8l78 4
c24.667 5.33301 49.334 12 74.001 20l32 74l-16 12c-52 -52 -99.667 -78 -143 -78c-30 0 -46.333 13.667 -49 41c0 22 36.667 57.667 110 107c114.667 76.667 181.667 124.334 201 143.001c73.333 62.667 110 128.334 110 197c0 62.667 -23 114.334 -69 155
c-46.667 38.667 -108.334 58 -185.001 58c-84.667 0 -155.667 -24.667 -213 -74c-51.333 -52 -77 -117.667 -77 -197l4 -65z" />
    <glyph glyph-name="Uacute" unicode="&#xda;" horiz-adv-x="1065" 
d="M319 1249l-311.004 -855.998c-5.33301 -10.667 -10.666 -29.667 -15.999 -57c-8 -30 -13.667 -56 -17 -78c0 -92.667 45.333 -162.334 136 -209.001c87.333 -49.333 192.333 -74 315 -74c237.333 0 461.333 91.667 672 275l-33 29l-213 -140
c-82 -48.667 -161.333 -73 -238 -73c-51.333 0 -86.666 9.33301 -105.999 28c-19.333 19.333 -31.666 50.666 -36.999 93.999c2.66699 27.333 5.33398 47.833 8.00098 61.5s11 34.167 25 61.5l377 1057zM48.9961 1864c0 -71.333 24.667 -137 74 -197s116.333 -90 201 -90
c90 0 161 30 213 90c48.667 57.333 73 124.333 73 201c0 73.333 -24.333 140 -73 200c-49.333 60.667 -120.333 91 -213 91c-84.667 0 -153 -30.333 -205 -91c-46.667 -60 -70 -128 -70 -204zM761.996 1864c0 -71.333 24.5 -137 73.5 -197s115.833 -90 200.5 -90
c90 0 161 30 213 90c49.333 57.333 74 124.333 74 201c0 73.333 -24.667 140 -74 200c-48.667 60.667 -119.667 91 -213 91c-84.667 0 -153 -30.333 -205 -91c-46 -60 -69 -128 -69 -204z" />
    <glyph glyph-name="Ucircumflex" unicode="&#xdb;" horiz-adv-x="1065" 
d="M881 1368l-562.004 -118.998l-311 -856c-5.33301 -10.667 -10.666 -29.667 -15.999 -57c-8 -30 -13.667 -56 -17 -78c0 -92.667 45.333 -162.334 136 -209.001c87.333 -49.333 192.333 -74 315 -74c237.333 0 461.333 91.667 672 275l-33 29l-213 -140
c-82 -48.667 -161.333 -73 -238 -73c-51.333 0 -86.666 9.33301 -105.999 28c-19.333 19.333 -31.666 50.666 -36.999 93.999c2.66699 27.333 5.33398 47.833 8.00098 61.5s11 34.167 25 61.5zM663.996 2150c-52 -150 -164 -306.999 -336 -470.999h127l266 258l164 -131
l172 -127h135c-35.333 66 -69.333 140 -102 222c-22 65.333 -44 148.333 -66 248.999h-360z" />
    <glyph glyph-name="Udieresis" unicode="&#xdc;" horiz-adv-x="1065" 
d="M881 1368l-562.004 -118.998l-311 -856c-5.33301 -10.667 -10.666 -29.667 -15.999 -57c-8 -30 -13.667 -56 -17 -78c0 -92.667 45.333 -162.334 136 -209.001c87.333 -49.333 192.333 -74 315 -74c237.333 0 461.333 91.667 672 275l-33 29l-213 -140
c-82 -48.667 -161.333 -73 -238 -73c-51.333 0 -86.666 9.33301 -105.999 28c-19.333 19.333 -31.666 50.666 -36.999 93.999c2.66699 27.333 5.33398 47.833 8.00098 61.5s11 34.167 25 61.5zM1171 1950c-68 -76.667 -136.002 -115 -204.002 -115c-60 0 -116 11 -168 33
c-136.667 49.333 -227 76.666 -271 81.999c-65.333 0 -126.666 -24.667 -183.999 -74s-116 -134 -176 -254l70 -41c21.333 24.667 54 49.334 98 74.001l110 24c38.667 0 123.334 -19 254.001 -57c68.667 -19.333 126 -29 172 -29c79.333 0 154.666 34.333 225.999 103
c48.667 43.333 96.334 113 143.001 209z" />
    <glyph glyph-name="Yacute" unicode="&#xdd;" horiz-adv-x="1065" 
d="M881 1368l-562.004 -118.998l-311 -856c-5.33301 -10.667 -10.666 -29.667 -15.999 -57c-8 -30 -13.667 -56 -17 -78c0 -92.667 45.333 -162.334 136 -209.001c87.333 -49.333 192.333 -74 315 -74c237.333 0 461.333 91.667 672 275l-33 29l-213 -140
c-82 -48.667 -161.333 -73 -238 -73c-51.333 0 -86.666 9.33301 -105.999 28c-19.333 19.333 -31.666 50.666 -36.999 93.999c2.66699 27.333 5.33398 47.833 8.00098 61.5s11 34.167 25 61.5zM908.996 2126c-13.333 -68.667 -62.333 -150.667 -147 -246
c-87.333 -98 -188.333 -182.667 -303 -254h241c90.667 10.667 170 40.667 238 90c49.333 35.333 98.333 72.333 147 111c66 35.333 120.667 76.333 164 123l135 176h-475z" />
    <glyph glyph-name="Thorn" unicode="&#xde;" horiz-adv-x="1065" 
d="M881 1368l-562.004 -118.998l-311 -856c-5.33301 -10.667 -10.666 -29.667 -15.999 -57c-8 -30 -13.667 -56 -17 -78c0 -92.667 45.333 -162.334 136 -209.001c87.333 -49.333 192.333 -74 315 -74c237.333 0 461.333 91.667 672 275l-33 29l-213 -140
c-82 -48.667 -161.333 -73 -238 -73c-51.333 0 -86.666 9.33301 -105.999 28c-19.333 19.333 -31.666 50.666 -36.999 93.999c2.66699 27.333 5.33398 47.833 8.00098 61.5s11 34.167 25 61.5zM790.996 2159c-84.667 0 -153 -30.333 -205 -91c-46.667 -60 -70 -128 -70 -204
c0 -71.333 24.667 -137 74 -197s116.333 -90 201 -90c90 0 161 30 213 90c48.667 57.333 73 124.333 73 201c0 73.333 -24.333 140 -73 200c-49.333 60.667 -120.333 91 -213 91zM-4.00391 -523.998c0 -57.333 20.334 -109.334 61.001 -156.001
c41.333 -49.333 97.333 -74 168 -74c71.333 0 124.666 22 159.999 66c16.667 19.333 29 44 37 74c5.33301 27.333 8 61.333 8 102s-1.33301 70.667 -4 90c-5.33301 16.667 -19 37.334 -41 62.001c-38 46 -91.333 69 -160 69c-73.333 0 -129.333 -21.667 -168 -65
c-40.667 -46.667 -61 -102.667 -61 -168z" />
    <glyph glyph-name="germandbls" unicode="&#xdf;" horiz-adv-x="1769" 
d="M1815 553c-90.667 -32.667 -179.668 -49.002 -267.001 -49.002c-76 0 -147 13.667 -213 41c38.667 73.333 68.667 151 90 233c8.66699 38.667 15.667 79.667 21 123c5.33301 44 8 90.333 8 139c0 128.667 -27.333 232.5 -82 311.5s-128.334 118.5 -221.001 118.5
c-82 0 -147.667 -32.667 -197 -98c-48.667 -68 -73 -159.333 -73 -274c0 -191.333 64 -359.333 192 -504c-57.333 -147.333 -114.666 -262 -171.999 -344c-95.333 -139.333 -196.333 -209 -303 -209c-90 0 -135 61.333 -135 184c0 191.333 71 430.333 213 717l213 393
c-8 8.66699 -16.333 14.334 -25 17.001c-8 2.66699 -13.333 5.33398 -16 8.00098c-35.333 0 -77.666 -8.33301 -126.999 -25c-49.333 -16 -82 -28.333 -98 -37c-3.33301 0 -24 -10.667 -62 -32c-164 -82 -302 -210.333 -414 -385c-114.667 -175.333 -172 -346 -172 -512
c0 -268 179 -402 537 -402c169.333 0 319.5 41 450.5 123s247.167 214.333 348.5 397c82 -27.333 161 -41 237 -41c98.667 0 193 16.667 283 50zM1106 679.998c-104 136.667 -156 302 -156 496c0 65.333 9.66699 118.333 29 159c16.667 38.667 42.667 58 78 58
c62.667 0 94 -106.667 94 -320l-12 -196zM1126 2134h-527.999c35.333 -40.667 72.333 -80.334 111 -119c35.333 -38 79 -74.667 131 -110c84.667 -57.333 163.667 -108 237 -152c112 -65.333 173.667 -102.333 185 -111l254 37c-68.667 19.333 -116.667 38.666 -144 57.999
c-2.66699 2.66699 -23 24.334 -61 65.001c-54.667 60 -94.334 116 -119.001 168c-27.333 49.333 -49.333 104 -66 164z" />
    <glyph glyph-name="aacute" unicode="&#xe1;" horiz-adv-x="1769" 
d="M1815 553c-90.667 -32.667 -179.668 -49.002 -267.001 -49.002c-76 0 -147 13.667 -213 41c38.667 73.333 68.667 151 90 233c8.66699 38.667 15.667 79.667 21 123c5.33301 44 8 90.333 8 139c0 128.667 -27.333 232.5 -82 311.5s-128.334 118.5 -221.001 118.5
c-82 0 -147.667 -32.667 -197 -98c-48.667 -68 -73 -159.333 -73 -274c0 -191.333 64 -359.333 192 -504c-57.333 -147.333 -114.666 -262 -171.999 -344c-95.333 -139.333 -196.333 -209 -303 -209c-90 0 -135 61.333 -135 184c0 191.333 71 430.333 213 717l213 393
c-8 8.66699 -16.333 14.334 -25 17.001c-8 2.66699 -13.333 5.33398 -16 8.00098c-35.333 0 -77.666 -8.33301 -126.999 -25c-49.333 -16 -82 -28.333 -98 -37c-3.33301 0 -24 -10.667 -62 -32c-164 -82 -302 -210.333 -414 -385c-114.667 -175.333 -172 -346 -172 -512
c0 -268 179 -402 537 -402c169.333 0 319.5 41 450.5 123s247.167 214.333 348.5 397c82 -27.333 161 -41 237 -41c98.667 0 193 16.667 283 50zM1106 679.998c-104 136.667 -156 302 -156 496c0 65.333 9.66699 118.333 29 159c16.667 38.667 42.667 58 78 58
c62.667 0 94 -106.667 94 -320l-12 -196zM1151 2179c0 60 29.998 122.667 89.998 188c57.333 63.333 117.333 95 180 95c49.333 0 74 -20.667 74 -62c0 -40.667 -38.333 -85.667 -115 -135l-204 -143c-76.667 -62.667 -115 -125.667 -115 -189c0 -54.667 20.333 -97 61 -127
c22 -13.333 44 -21.333 66 -24c19.333 -5.33301 44 -8 74 -8l77 4c24.667 5.33301 49.334 12 74.001 20l33 74l-16 12c-52 -52 -100 -78 -144 -78c-30 0 -46.333 13.667 -49 41c0 22 37 57.667 111 107c114.667 76 181.334 123.667 200.001 143
c74 62.667 111 128.334 111 197c0 62.667 -23.333 114.334 -70 155c-46 38.667 -107.333 58 -184 58c-84.667 0 -155.667 -24.667 -213 -74c-52 -52 -78 -117.667 -78 -197l4 -65z" />
    <glyph glyph-name="acircumflex" unicode="&#xe2;" horiz-adv-x="1769" 
d="M1815 553c-90.667 -32.667 -179.668 -49.002 -267.001 -49.002c-76 0 -147 13.667 -213 41c38.667 73.333 68.667 151 90 233c8.66699 38.667 15.667 79.667 21 123c5.33301 44 8 90.333 8 139c0 128.667 -27.333 232.5 -82 311.5s-128.334 118.5 -221.001 118.5
c-82 0 -147.667 -32.667 -197 -98c-48.667 -68 -73 -159.333 -73 -274c0 -191.333 64 -359.333 192 -504c-57.333 -147.333 -114.666 -262 -171.999 -344c-95.333 -139.333 -196.333 -209 -303 -209c-90 0 -135 61.333 -135 184c0 191.333 71 430.333 213 717l213 393
c-8 8.66699 -16.333 14.334 -25 17.001c-8 2.66699 -13.333 5.33398 -16 8.00098c-35.333 0 -77.666 -8.33301 -126.999 -25c-49.333 -16 -82 -28.333 -98 -37c-3.33301 0 -24 -10.667 -62 -32c-164 -82 -302 -210.333 -414 -385c-114.667 -175.333 -172 -346 -172 -512
c0 -268 179 -402 537 -402c169.333 0 319.5 41 450.5 123s247.167 214.333 348.5 397c82 -27.333 161 -41 237 -41c98.667 0 193 16.667 283 50zM1106 679.998c-104 136.667 -156 302 -156 496c0 65.333 9.66699 118.333 29 159c16.667 38.667 42.667 58 78 58
c62.667 0 94 -106.667 94 -320l-12 -196zM1683 2073c-68 -76.667 -136.002 -115.001 -204.002 -115.001c-60 0 -116 11 -168 33c-136.667 48.667 -227 76 -271 82c-65.333 0 -126.666 -24.667 -183.999 -74s-116 -134 -176 -254l70 -41c21.333 24.667 54 49.334 98 74.001
l110 24c38.667 0 123.334 -19 254.001 -57c68.667 -19.333 126 -29 172 -29c79.333 0 154.666 34.333 225.999 103c48.667 43.333 96.334 113 143.001 209z" />
    <glyph glyph-name="atilde" unicode="&#xe3;" horiz-adv-x="1769" 
d="M1815 553c-90.667 -32.667 -179.668 -49.002 -267.001 -49.002c-76 0 -147 13.667 -213 41c38.667 73.333 68.667 151 90 233c8.66699 38.667 15.667 79.667 21 123c5.33301 44 8 90.333 8 139c0 128.667 -27.333 232.5 -82 311.5s-128.334 118.5 -221.001 118.5
c-82 0 -147.667 -32.667 -197 -98c-48.667 -68 -73 -159.333 -73 -274c0 -191.333 64 -359.333 192 -504c-57.333 -147.333 -114.666 -262 -171.999 -344c-95.333 -139.333 -196.333 -209 -303 -209c-90 0 -135 61.333 -135 184c0 191.333 71 430.333 213 717l213 393
c-8 8.66699 -16.333 14.334 -25 17.001c-8 2.66699 -13.333 5.33398 -16 8.00098c-35.333 0 -77.666 -8.33301 -126.999 -25c-49.333 -16 -82 -28.333 -98 -37c-3.33301 0 -24 -10.667 -62 -32c-164 -82 -302 -210.333 -414 -385c-114.667 -175.333 -172 -346 -172 -512
c0 -268 179 -402 537 -402c169.333 0 319.5 41 450.5 123s247.167 214.333 348.5 397c82 -27.333 161 -41 237 -41c98.667 0 193 16.667 283 50zM1106 679.998c-104 136.667 -156 302 -156 496c0 65.333 9.66699 118.333 29 159c16.667 38.667 42.667 58 78 58
c62.667 0 94 -106.667 94 -320l-12 -196zM1319 2228c-14 -68 -63.333 -150 -148 -246c-87.333 -98 -188.333 -182.333 -303 -253h242c90 10.667 169.333 40.667 238 90l147 110c65.333 35.333 120 76.333 164 123l135 176h-475z" />
    <glyph glyph-name="adieresis" unicode="&#xe4;" horiz-adv-x="1769" 
d="M1815 553c-90.667 -32.667 -179.668 -49.002 -267.001 -49.002c-76 0 -147 13.667 -213 41c38.667 73.333 68.667 151 90 233c8.66699 38.667 15.667 79.667 21 123c5.33301 44 8 90.333 8 139c0 128.667 -27.333 232.5 -82 311.5s-128.334 118.5 -221.001 118.5
c-82 0 -147.667 -32.667 -197 -98c-48.667 -68 -73 -159.333 -73 -274c0 -191.333 64 -359.333 192 -504c-57.333 -147.333 -114.666 -262 -171.999 -344c-95.333 -139.333 -196.333 -209 -303 -209c-90 0 -135 61.333 -135 184c0 191.333 71 430.333 213 717l213 393
c-8 8.66699 -16.333 14.334 -25 17.001c-8 2.66699 -13.333 5.33398 -16 8.00098c-35.333 0 -77.666 -8.33301 -126.999 -25c-49.333 -16 -82 -28.333 -98 -37c-3.33301 0 -24 -10.667 -62 -32c-164 -82 -302 -210.333 -414 -385c-114.667 -175.333 -172 -346 -172 -512
c0 -268 179 -402 537 -402c169.333 0 319.5 41 450.5 123s247.167 214.333 348.5 397c82 -27.333 161 -41 237 -41c98.667 0 193 16.667 283 50zM1106 679.998c-104 136.667 -156 302 -156 496c0 65.333 9.66699 118.333 29 159c16.667 38.667 42.667 58 78 58
c62.667 0 94 -106.667 94 -320l-12 -196zM220.999 -504.002c0 -57.333 20.667 -108.999 62 -154.999c40.667 -49.333 96.667 -74 168 -74c70.667 0 123.667 21.667 159 65c16.667 19.333 29 44 37 74c5.33301 27.333 8 61.333 8 102c0 41.333 -1.33301 71.666 -4 90.999
c-5.33301 16 -19 36.333 -41 61c-38 46.667 -91 70 -159 70c-74 0 -130 -22 -168 -66c-41.333 -46.667 -62 -102.667 -62 -168z" />
    <glyph glyph-name="aring" unicode="&#xe5;" horiz-adv-x="1769" 
d="M1815 553c-90.667 -32.667 -179.668 -49.002 -267.001 -49.002c-76 0 -147 13.667 -213 41c38.667 73.333 68.667 151 90 233c8.66699 38.667 15.667 79.667 21 123c5.33301 44 8 90.333 8 139c0 128.667 -27.333 232.5 -82 311.5s-128.334 118.5 -221.001 118.5
c-82 0 -147.667 -32.667 -197 -98c-48.667 -68 -73 -159.333 -73 -274c0 -191.333 64 -359.333 192 -504c-57.333 -147.333 -114.666 -262 -171.999 -344c-95.333 -139.333 -196.333 -209 -303 -209c-90 0 -135 61.333 -135 184c0 191.333 71 430.333 213 717l213 393
c-8 8.66699 -16.333 14.334 -25 17.001c-8 2.66699 -13.333 5.33398 -16 8.00098c-35.333 0 -77.666 -8.33301 -126.999 -25c-49.333 -16 -82 -28.333 -98 -37c-3.33301 0 -24 -10.667 -62 -32c-164 -82 -302 -210.333 -414 -385c-114.667 -175.333 -172 -346 -172 -512
c0 -268 179 -402 537 -402c169.333 0 319.5 41 450.5 123s247.167 214.333 348.5 397c82 -27.333 161 -41 237 -41c98.667 0 193 16.667 283 50zM1106 679.998c-104 136.667 -156 302 -156 496c0 65.333 9.66699 118.333 29 159c16.667 38.667 42.667 58 78 58
c62.667 0 94 -106.667 94 -320l-12 -196zM1028 1827c27.333 0 49.333 -6.99902 66 -20.999l45 -37l168 -159h159l-127 254l-41 73l-36 58c-36 35.333 -66.333 58.333 -91 68.999c-24 8.66699 -64.667 13 -122 13c-38.667 0 -82.5 -15 -131.5 -45s-79.167 -53.333 -90.5 -70
l-49 -78l-82 -135c-35.333 -54.667 -73.333 -101 -114 -139h127l102 90l102 94c36 22 74.333 33 115 33zM1352 2605l-528.998 -0.000976562c36 -40.667 73 -80.334 111 -119c35.333 -38 79 -74.667 131 -110c84.667 -57.333 164 -108 238 -152
c111.333 -65.333 172.666 -102 183.999 -110l254 36c-68.667 19.333 -116.667 38.666 -144 58c-2.66699 2.66699 -23 24.334 -61 65.001c-54.667 60 -94.334 116 -119.001 168c-27.333 49.333 -49 104 -65 164z" />
    <glyph glyph-name="ae" unicode="&#xe6;" horiz-adv-x="1769" 
d="M1815 553c-90.667 -32.667 -179.668 -49.002 -267.001 -49.002c-76 0 -147 13.667 -213 41c38.667 73.333 68.667 151 90 233c8.66699 38.667 15.667 79.667 21 123c5.33301 44 8 90.333 8 139c0 128.667 -27.333 232.5 -82 311.5s-128.334 118.5 -221.001 118.5
c-82 0 -147.667 -32.667 -197 -98c-48.667 -68 -73 -159.333 -73 -274c0 -191.333 64 -359.333 192 -504c-57.333 -147.333 -114.666 -262 -171.999 -344c-95.333 -139.333 -196.333 -209 -303 -209c-90 0 -135 61.333 -135 184c0 191.333 71 430.333 213 717l213 393
c-8 8.66699 -16.333 14.334 -25 17.001c-8 2.66699 -13.333 5.33398 -16 8.00098c-35.333 0 -77.666 -8.33301 -126.999 -25c-49.333 -16 -82 -28.333 -98 -37c-3.33301 0 -24 -10.667 -62 -32c-164 -82 -302 -210.333 -414 -385c-114.667 -175.333 -172 -346 -172 -512
c0 -268 179 -402 537 -402c169.333 0 319.5 41 450.5 123s247.167 214.333 348.5 397c82 -27.333 161 -41 237 -41c98.667 0 193 16.667 283 50zM1106 679.998c-104 136.667 -156 302 -156 496c0 65.333 9.66699 118.333 29 159c16.667 38.667 42.667 58 78 58
c62.667 0 94 -106.667 94 -320l-12 -196zM1028 1827c27.333 0 49.333 -6.99902 66 -20.999l45 -37l168 -159h159l-127 254l-41 73l-36 58c-36 35.333 -66.333 58.333 -91 68.999c-24 8.66699 -64.667 13 -122 13c-38.667 0 -82.5 -15 -131.5 -45s-79.167 -53.333 -90.5 -70
l-49 -78l-82 -135c-35.333 -54.667 -73.333 -101 -114 -139h127l102 90l102 94c36 22 74.333 33 115 33zM1520 2527c0 60 29.999 122.999 89.999 188.999c57.333 62.667 117.333 94 180 94c49.333 0 74 -20.667 74 -62c0 -40.667 -38.333 -85.667 -115 -135l-205 -143
c-76 -62.667 -114 -125.667 -114 -189c0 -54 20.333 -96.333 61 -127c22 -13.333 43.667 -21.333 65 -24c19.333 -5.33301 44 -8 74 -8l78 4c24.667 5.33301 49.334 12 74.001 20l33 74l-17 12c-52 -52 -99.667 -78 -143 -78c-30 0 -46.333 13.667 -49 41
c0 22 36.667 57.667 110 107c114.667 76.667 181.667 124.334 201 143.001c74 63.333 111 129 111 197c0 62.667 -23.333 114.667 -70 156c-46.667 38 -108 57 -184 57c-84.667 0 -155.667 -24.667 -213 -74c-52 -52 -78 -117.333 -78 -196l4 -66z" />
    <glyph glyph-name="ccedilla" unicode="&#xe7;" horiz-adv-x="1769" 
d="M1815 553c-90.667 -32.667 -179.668 -49.002 -267.001 -49.002c-76 0 -147 13.667 -213 41c38.667 73.333 68.667 151 90 233c8.66699 38.667 15.667 79.667 21 123c5.33301 44 8 90.333 8 139c0 128.667 -27.333 232.5 -82 311.5s-128.334 118.5 -221.001 118.5
c-82 0 -147.667 -32.667 -197 -98c-48.667 -68 -73 -159.333 -73 -274c0 -191.333 64 -359.333 192 -504c-57.333 -147.333 -114.666 -262 -171.999 -344c-95.333 -139.333 -196.333 -209 -303 -209c-90 0 -135 61.333 -135 184c0 191.333 71 430.333 213 717l213 393
c-8 8.66699 -16.333 14.334 -25 17.001c-8 2.66699 -13.333 5.33398 -16 8.00098c-35.333 0 -77.666 -8.33301 -126.999 -25c-49.333 -16 -82 -28.333 -98 -37c-3.33301 0 -24 -10.667 -62 -32c-164 -82 -302 -210.333 -414 -385c-114.667 -175.333 -172 -346 -172 -512
c0 -268 179 -402 537 -402c169.333 0 319.5 41 450.5 123s247.167 214.333 348.5 397c82 -27.333 161 -41 237 -41c98.667 0 193 16.667 283 50zM1106 679.998c-104 136.667 -156 302 -156 496c0 65.333 9.66699 118.333 29 159c16.667 38.667 42.667 58 78 58
c62.667 0 94 -106.667 94 -320l-12 -196zM1028 1827c27.333 0 49.333 -6.99902 66 -20.999l45 -37l168 -159h159l-127 254l-41 73l-36 58c-36 35.333 -66.333 58.333 -91 68.999c-24 8.66699 -64.667 13 -122 13c-38.667 0 -82.5 -15 -131.5 -45s-79.167 -53.333 -90.5 -70
l-49 -78l-82 -135c-35.333 -54.667 -73.333 -101 -114 -139h127l102 90l102 94c36 22 74.333 33 115 33zM1663 2626c-68 -76.667 -136.334 -114.999 -205.001 -114.999c-60 0 -116 11 -168 33c-136.667 48.667 -226.667 76 -270 82c-65.333 0 -126.666 -24.667 -183.999 -74
s-116.333 -134 -177 -254l70 -41c22 24.667 54.667 49.334 98 74l111 24c38 0 122.667 -19 254 -57c68 -19.333 125.333 -29 172 -29c79.333 0 154.333 34.333 225 103c49.333 43.333 97.333 112.666 144 207.999z" />
    <glyph glyph-name="egrave" unicode="&#xe8;" horiz-adv-x="1769" 
d="M1815 553c-90.667 -32.667 -179.668 -49.002 -267.001 -49.002c-76 0 -147 13.667 -213 41c38.667 73.333 68.667 151 90 233c8.66699 38.667 15.667 79.667 21 123c5.33301 44 8 90.333 8 139c0 128.667 -27.333 232.5 -82 311.5s-128.334 118.5 -221.001 118.5
c-82 0 -147.667 -32.667 -197 -98c-48.667 -68 -73 -159.333 -73 -274c0 -191.333 64 -359.333 192 -504c-57.333 -147.333 -114.666 -262 -171.999 -344c-95.333 -139.333 -196.333 -209 -303 -209c-90 0 -135 61.333 -135 184c0 191.333 71 430.333 213 717l213 393
c-8 8.66699 -16.333 14.334 -25 17.001c-8 2.66699 -13.333 5.33398 -16 8.00098c-35.333 0 -77.666 -8.33301 -126.999 -25c-49.333 -16 -82 -28.333 -98 -37c-3.33301 0 -24 -10.667 -62 -32c-164 -82 -302 -210.333 -414 -385c-114.667 -175.333 -172 -346 -172 -512
c0 -268 179 -402 537 -402c169.333 0 319.5 41 450.5 123s247.167 214.333 348.5 397c82 -27.333 161 -41 237 -41c98.667 0 193 16.667 283 50zM1106 679.998c-104 136.667 -156 302 -156 496c0 65.333 9.66699 118.333 29 159c16.667 38.667 42.667 58 78 58
c62.667 0 94 -106.667 94 -320l-12 -196zM1028 1827c27.333 0 49.333 -6.99902 66 -20.999l45 -37l168 -159h159l-127 254l-41 73l-36 58c-36 35.333 -66.333 58.333 -91 68.999c-24 8.66699 -64.667 13 -122 13c-38.667 0 -82.5 -15 -131.5 -45s-79.167 -53.333 -90.5 -70
l-49 -78l-82 -135c-35.333 -54.667 -73.333 -101 -114 -139h127l102 90l102 94c36 22 74.333 33 115 33zM1933 2515c-13.333 -68 -62.333 -150 -147 -246c-87.333 -98 -188.333 -182.667 -303 -254h241c90.667 11.333 170 41.333 238 90l147 111
c66 35.333 120.667 76.333 164 123l135 176h-475z" />
    <glyph glyph-name="eacute" unicode="&#xe9;" horiz-adv-x="1769" 
d="M1815 553c-90.667 -32.667 -179.668 -49.002 -267.001 -49.002c-76 0 -147 13.667 -213 41c38.667 73.333 68.667 151 90 233c8.66699 38.667 15.667 79.667 21 123c5.33301 44 8 90.333 8 139c0 128.667 -27.333 232.5 -82 311.5s-128.334 118.5 -221.001 118.5
c-82 0 -147.667 -32.667 -197 -98c-48.667 -68 -73 -159.333 -73 -274c0 -191.333 64 -359.333 192 -504c-57.333 -147.333 -114.666 -262 -171.999 -344c-95.333 -139.333 -196.333 -209 -303 -209c-90 0 -135 61.333 -135 184c0 191.333 71 430.333 213 717l213 393
c-8 8.66699 -16.333 14.334 -25 17.001c-8 2.66699 -13.333 5.33398 -16 8.00098c-35.333 0 -77.666 -8.33301 -126.999 -25c-49.333 -16 -82 -28.333 -98 -37c-3.33301 0 -24 -10.667 -62 -32c-164 -82 -302 -210.333 -414 -385c-114.667 -175.333 -172 -346 -172 -512
c0 -268 179 -402 537 -402c169.333 0 319.5 41 450.5 123s247.167 214.333 348.5 397c82 -27.333 161 -41 237 -41c98.667 0 193 16.667 283 50zM1106 679.998c-104 136.667 -156 302 -156 496c0 65.333 9.66699 118.333 29 159c16.667 38.667 42.667 58 78 58
c62.667 0 94 -106.667 94 -320l-12 -196zM1028 1827c27.333 0 49.333 -6.99902 66 -20.999l45 -37l168 -159h159l-127 254l-41 73l-36 58c-36 35.333 -66.333 58.333 -91 68.999c-24 8.66699 -64.667 13 -122 13c-38.667 0 -82.5 -15 -131.5 -45s-79.167 -53.333 -90.5 -70
l-49 -78l-82 -135c-35.333 -54.667 -73.333 -101 -114 -139h127l102 90l102 94c36 22 74.333 33 115 33zM200.999 -504.001c0 -57.333 20.334 -108.999 61.001 -154.999c41.333 -49.333 97.333 -74 168 -74c71.333 0 124.666 21.667 159.999 65c16 19.333 28.333 44 37 74
c5.33301 27.333 8 61.333 8 102c0 41.333 -1.33301 71.666 -4 90.999c-5.33301 16 -19 36.333 -41 61c-38.667 46.667 -92 70 -160 70c-74 0 -130 -22 -168 -66c-40.667 -46.667 -61 -102.667 -61 -168z" />
    <glyph glyph-name="ecircumflex" unicode="&#xea;" horiz-adv-x="1769" 
d="M1815 553c-90.667 -32.667 -179.668 -49.002 -267.001 -49.002c-76 0 -147 13.667 -213 41c38.667 73.333 68.667 151 90 233c8.66699 38.667 15.667 79.667 21 123c5.33301 44 8 90.333 8 139c0 128.667 -27.333 232.5 -82 311.5s-128.334 118.5 -221.001 118.5
c-82 0 -147.667 -32.667 -197 -98c-48.667 -68 -73 -159.333 -73 -274c0 -191.333 64 -359.333 192 -504c-57.333 -147.333 -114.666 -262 -171.999 -344c-95.333 -139.333 -196.333 -209 -303 -209c-90 0 -135 61.333 -135 184c0 191.333 71 430.333 213 717l213 393
c-8 8.66699 -16.333 14.334 -25 17.001c-8 2.66699 -13.333 5.33398 -16 8.00098c-35.333 0 -77.666 -8.33301 -126.999 -25c-49.333 -16 -82 -28.333 -98 -37c-3.33301 0 -24 -10.667 -62 -32c-164 -82 -302 -210.333 -414 -385c-114.667 -175.333 -172 -346 -172 -512
c0 -268 179 -402 537 -402c169.333 0 319.5 41 450.5 123s247.167 214.333 348.5 397c82 -27.333 161 -41 237 -41c98.667 0 193 16.667 283 50zM1106 679.998c-104 136.667 -156 302 -156 496c0 65.333 9.66699 118.333 29 159c16.667 38.667 42.667 58 78 58
c62.667 0 94 -106.667 94 -320l-12 -196zM1511 1597l29 4.99902c52 0 78 -34.333 78 -103c0 -92.667 -54.667 -186.667 -164 -282l16 -25c44 24.667 88 57.334 132 98.001c38 41.333 80.333 83.666 127 126.999l98 94c52 52 78 98.667 78 140
c0 54.667 -34.333 106.334 -103 155.001l-307 -176zM1085 2257l-511.999 -4l99 -115c38 -43.333 80.333 -80 127 -110c84.667 -57.333 163.667 -108 237 -152c112 -65.333 173.667 -102.333 185 -111l254 37c-68.667 19.333 -116.667 38.666 -144 57.999
c-2.66699 2.66699 -23 24.334 -61 65.001c-54.667 60 -94.334 116 -119.001 168c-27.333 49.333 -49.333 104 -66 164z" />
    <glyph glyph-name="edieresis" unicode="&#xeb;" horiz-adv-x="1769" 
d="M1815 553c-90.667 -32.667 -179.668 -49.002 -267.001 -49.002c-76 0 -147 13.667 -213 41c38.667 73.333 68.667 151 90 233c8.66699 38.667 15.667 79.667 21 123c5.33301 44 8 90.333 8 139c0 128.667 -27.333 232.5 -82 311.5s-128.334 118.5 -221.001 118.5
c-82 0 -147.667 -32.667 -197 -98c-48.667 -68 -73 -159.333 -73 -274c0 -191.333 64 -359.333 192 -504c-57.333 -147.333 -114.666 -262 -171.999 -344c-95.333 -139.333 -196.333 -209 -303 -209c-90 0 -135 61.333 -135 184c0 191.333 71 430.333 213 717l213 393
c-8 8.66699 -16.333 14.334 -25 17.001c-8 2.66699 -13.333 5.33398 -16 8.00098c-35.333 0 -77.666 -8.33301 -126.999 -25c-49.333 -16 -82 -28.333 -98 -37c-3.33301 0 -24 -10.667 -62 -32c-164 -82 -302 -210.333 -414 -385c-114.667 -175.333 -172 -346 -172 -512
c0 -268 179 -402 537 -402c169.333 0 319.5 41 450.5 123s247.167 214.333 348.5 397c82 -27.333 161 -41 237 -41c98.667 0 193 16.667 283 50zM1106 679.998c-104 136.667 -156 302 -156 496c0 65.333 9.66699 118.333 29 159c16.667 38.667 42.667 58 78 58
c62.667 0 94 -106.667 94 -320l-12 -196zM1511 1597l29 4.99902c52 0 78 -34.333 78 -103c0 -92.667 -54.667 -186.667 -164 -282l16 -25c44 24.667 88 57.334 132 98.001c38 41.333 80.333 83.666 127 126.999l98 94c52 52 78 98.667 78 140
c0 54.667 -34.333 106.334 -103 155.001l-307 -176zM1008 2159c0 60 29.999 122.668 89.999 188.001c57.333 62.667 117.333 94 180 94c49.333 0 74 -20.333 74 -61c0 -41.333 -38.333 -86.333 -115 -135l-205 -144c-76 -62.667 -114 -125.334 -114 -188.001
c0 -54.667 20.333 -97 61 -127c22 -14 43.667 -22.333 65 -25c19.333 -5.33301 44 -8 74 -8l78 4c24.667 5.33301 49.334 12.333 74.001 21l33 73l-17 13c-52 -52 -99.667 -78 -143 -78c-30 0 -46.333 13.667 -49 41c0 22 36.667 57.333 110 106
c114.667 76.667 181.667 124.667 201 144c74 62.667 111 128 111 196c0 62.667 -23.333 114.667 -70 156c-46.667 38 -108 57 -184 57c-84.667 0 -155.667 -24.333 -213 -73c-52 -52 -78 -117.667 -78 -197l4 -66z" />
    <glyph glyph-name="igrave" unicode="&#xec;" horiz-adv-x="1769" 
d="M1815 553c-90.667 -32.667 -179.668 -49.002 -267.001 -49.002c-76 0 -147 13.667 -213 41c38.667 73.333 68.667 151 90 233c8.66699 38.667 15.667 79.667 21 123c5.33301 44 8 90.333 8 139c0 128.667 -27.333 232.5 -82 311.5s-128.334 118.5 -221.001 118.5
c-82 0 -147.667 -32.667 -197 -98c-48.667 -68 -73 -159.333 -73 -274c0 -191.333 64 -359.333 192 -504c-57.333 -147.333 -114.666 -262 -171.999 -344c-95.333 -139.333 -196.333 -209 -303 -209c-90 0 -135 61.333 -135 184c0 191.333 71 430.333 213 717l213 393
c-8 8.66699 -16.333 14.334 -25 17.001c-8 2.66699 -13.333 5.33398 -16 8.00098c-35.333 0 -77.666 -8.33301 -126.999 -25c-49.333 -16 -82 -28.333 -98 -37c-3.33301 0 -24 -10.667 -62 -32c-164 -82 -302 -210.333 -414 -385c-114.667 -175.333 -172 -346 -172 -512
c0 -268 179 -402 537 -402c169.333 0 319.5 41 450.5 123s247.167 214.333 348.5 397c82 -27.333 161 -41 237 -41c98.667 0 193 16.667 283 50zM1106 679.998c-104 136.667 -156 302 -156 496c0 65.333 9.66699 118.333 29 159c16.667 38.667 42.667 58 78 58
c62.667 0 94 -106.667 94 -320l-12 -196zM1511 1597l29 4.99902c52 0 78 -34.333 78 -103c0 -92.667 -54.667 -186.667 -164 -282l16 -25c44 24.667 88 57.334 132 98.001c38 41.333 80.333 83.666 127 126.999l98 94c52 52 78 98.667 78 140
c0 54.667 -34.333 106.334 -103 155.001l-307 -176zM1581 2175c-68 -76.667 -136.334 -114.999 -205.001 -114.999c-60 0 -116 11 -168 33c-136 49.333 -226 76.666 -270 81.999c-65.333 0 -126.666 -24.667 -183.999 -74c-57.333 -48.667 -116 -133.334 -176 -254.001
l69 -41c22 24.667 54.667 49.334 98 74.001l111 25c38 0 122.667 -19.333 254 -58c68 -18.667 125.333 -28 172 -28c79.333 0 154.333 34 225 102c49.333 44 97.333 113.667 144 209z" />
    <glyph glyph-name="iacute" unicode="&#xed;" horiz-adv-x="1769" 
d="M1815 553c-90.667 -32.667 -179.668 -49.002 -267.001 -49.002c-76 0 -147 13.667 -213 41c38.667 73.333 68.667 151 90 233c8.66699 38.667 15.667 79.667 21 123c5.33301 44 8 90.333 8 139c0 128.667 -27.333 232.5 -82 311.5s-128.334 118.5 -221.001 118.5
c-82 0 -147.667 -32.667 -197 -98c-48.667 -68 -73 -159.333 -73 -274c0 -191.333 64 -359.333 192 -504c-57.333 -147.333 -114.666 -262 -171.999 -344c-95.333 -139.333 -196.333 -209 -303 -209c-90 0 -135 61.333 -135 184c0 191.333 71 430.333 213 717l213 393
c-8 8.66699 -16.333 14.334 -25 17.001c-8 2.66699 -13.333 5.33398 -16 8.00098c-35.333 0 -77.666 -8.33301 -126.999 -25c-49.333 -16 -82 -28.333 -98 -37c-3.33301 0 -24 -10.667 -62 -32c-164 -82 -302 -210.333 -414 -385c-114.667 -175.333 -172 -346 -172 -512
c0 -268 179 -402 537 -402c169.333 0 319.5 41 450.5 123s247.167 214.333 348.5 397c82 -27.333 161 -41 237 -41c98.667 0 193 16.667 283 50zM1106 679.998c-104 136.667 -156 302 -156 496c0 65.333 9.66699 118.333 29 159c16.667 38.667 42.667 58 78 58
c62.667 0 94 -106.667 94 -320l-12 -196zM1511 1597l29 4.99902c52 0 78 -34.333 78 -103c0 -92.667 -54.667 -186.667 -164 -282l16 -25c44 24.667 88 57.334 132 98.001c38 41.333 80.333 83.666 127 126.999l98 94c52 52 78 98.667 78 140
c0 54.667 -34.333 106.334 -103 155.001l-307 -176zM1237 2228c-13.333 -68 -62.333 -150 -147 -246c-88 -98 -189.333 -182.333 -304 -253h242c90 10.667 169.333 40.667 238 90l147 110c65.333 35.333 120 76.333 164 123l135 176h-475z" />
    <glyph glyph-name="icircumflex" unicode="&#xee;" horiz-adv-x="1769" 
d="M1815 553c-90.667 -32.667 -179.668 -49.002 -267.001 -49.002c-76 0 -147 13.667 -213 41c38.667 73.333 68.667 151 90 233c8.66699 38.667 15.667 79.667 21 123c5.33301 44 8 90.333 8 139c0 128.667 -27.333 232.5 -82 311.5s-128.334 118.5 -221.001 118.5
c-82 0 -147.667 -32.667 -197 -98c-48.667 -68 -73 -159.333 -73 -274c0 -191.333 64 -359.333 192 -504c-57.333 -147.333 -114.666 -262 -171.999 -344c-95.333 -139.333 -196.333 -209 -303 -209c-90 0 -135 61.333 -135 184c0 191.333 71 430.333 213 717l213 393
c-8 8.66699 -16.333 14.334 -25 17.001c-8 2.66699 -13.333 5.33398 -16 8.00098c-35.333 0 -77.666 -8.33301 -126.999 -25c-49.333 -16 -82 -28.333 -98 -37c-3.33301 0 -24 -10.667 -62 -32c-164 -82 -302 -210.333 -414 -385c-114.667 -175.333 -172 -346 -172 -512
c0 -268 179 -402 537 -402c169.333 0 319.5 41 450.5 123s247.167 214.333 348.5 397c82 -27.333 161 -41 237 -41c98.667 0 193 16.667 283 50zM1106 679.998c-104 136.667 -156 302 -156 496c0 65.333 9.66699 118.333 29 159c16.667 38.667 42.667 58 78 58
c62.667 0 94 -106.667 94 -320l-12 -196zM1511 1597l29 4.99902c52 0 78 -34.333 78 -103c0 -92.667 -54.667 -186.667 -164 -282l16 -25c44 24.667 88 57.334 132 98.001c38 41.333 80.333 83.666 127 126.999l98 94c52 52 78 98.667 78 140
c0 54.667 -34.333 106.334 -103 155.001l-307 -176zM118.999 -504.003c0 -57.333 20.334 -108.999 61.001 -154.999c41.333 -49.333 97.333 -74 168 -74c71.333 0 124.666 21.667 159.999 65c16 19.333 28.333 44 37 74c5.33301 27.333 8 61.333 8 102
c0 41.333 -1.33301 71.666 -4 90.999c-5.33301 16 -19 36.333 -41 61c-38 46.667 -91.333 70 -160 70c-73.333 0 -129.333 -22 -168 -66c-40.667 -46.667 -61 -102.667 -61 -168z" />
    <glyph glyph-name="idieresis" unicode="&#xef;" horiz-adv-x="2023" 
d="M295 1241l-295.001 -785.999l-20 -78l-9 -74c0 -100.667 35.667 -178.334 107 -233.001c70.667 -57.333 167.667 -86 291 -86c190.667 0 381.667 56 573 168c35.333 -57.333 86 -105.333 152 -144c68 -30 137.667 -45 209 -45c111.333 0 245 32.667 401 98
c117.333 49.333 226.666 112.333 327.999 189l-33 37c-87.333 -60 -176 -112 -266 -156c-79.333 -32.667 -147.666 -49 -204.999 -49c-41.333 0 -72.666 9.66699 -93.999 29c-16.667 21.333 -25 50 -25 86c0 32.667 5.33301 66.667 16 102l25 78l373 958l-566 -102
l-299 -787l-24 -94l-12 -90l8 -45l-164 -82c-92.667 -38 -163.667 -57 -213 -57c-76.667 0 -115 38.333 -115 115c0 30 16.333 88.667 49 176l361 974zM1143 2134h-529l197 -188c35.333 -30 90 -72.333 164 -127c70.667 -57.333 137.667 -109.333 201 -156h192l-156 246
c-5.33301 13.333 -14.666 43.333 -27.999 90c-16.667 43.333 -30.334 88.333 -41.001 135z" />
    <glyph glyph-name="ntilde" unicode="&#xf1;" horiz-adv-x="2023" 
d="M295 1241l-295.001 -785.999l-20 -78l-9 -74c0 -100.667 35.667 -178.334 107 -233.001c70.667 -57.333 167.667 -86 291 -86c190.667 0 381.667 56 573 168c35.333 -57.333 86 -105.333 152 -144c68 -30 137.667 -45 209 -45c111.333 0 245 32.667 401 98
c117.333 49.333 226.666 112.333 327.999 189l-33 37c-87.333 -60 -176 -112 -266 -156c-79.333 -32.667 -147.666 -49 -204.999 -49c-41.333 0 -72.666 9.66699 -93.999 29c-16.667 21.333 -25 50 -25 86c0 32.667 5.33301 66.667 16 102l25 78l373 958l-566 -102
l-299 -787l-24 -94l-12 -90l8 -45l-164 -82c-92.667 -38 -163.667 -57 -213 -57c-76.667 0 -115 38.333 -115 115c0 30 16.333 88.667 49 176l361 974zM1319 2331c54.667 0 82 -24.668 82 -74.001c0 -41.333 -79.333 -113.666 -238 -217c-158 -106.667 -237 -205 -237 -295
c0 -65.333 19 -111.666 57 -138.999c46.667 -27.333 100 -41 160 -41s116 10.667 168 32l32 86l-16 9c-54.667 -57.333 -106.667 -86 -156 -86c-32.667 0 -50.334 15 -53.001 45c0 24.667 78 87.334 234 188.001c152.667 101.333 229 203.666 229 306.999
c0 66 -27.333 120.667 -82 164c-30 22 -58.667 38.333 -86 49c-30 11.333 -68.333 17 -115 17c-95.333 0 -171.666 -27.333 -228.999 -82s-86 -127 -86 -217v-70l45 4c0 68.667 32.667 139.667 98 213c66 71.333 130.333 107 193 107z" />
    <glyph glyph-name="ograve" unicode="&#xf2;" horiz-adv-x="2023" 
d="M0 455l-20.001 -77.999l-9 -74c0 -100.667 35.667 -178.334 107 -233.001c70.667 -57.333 167.667 -86 291 -86c190.667 0 381.667 56 573 168c35.333 -57.333 86 -105.333 152 -144c68 -30 137.667 -45 209 -45c111.333 0 245 32.667 401 98
c117.333 49.333 226.666 112.333 327.999 189l-33 37c-87.333 -60 -176 -112 -266 -156c-79.333 -32.667 -147.666 -49 -204.999 -49c-41.333 0 -72.666 9.66699 -93.999 29c-16.667 21.333 -25 50 -25 86c0 32.667 5.33301 66.667 16 102l25 78l373 958l-566 -102
l-299 -787l-24 -94l-12 -90l8 -45l-164 -82c-92.667 -38 -163.667 -57 -213 -57c-76.667 0 -115 38.333 -115 115c0 30 16.333 88.667 49 176l361 974l-553 -102zM1552 1925c-32.667 0 -125.331 30 -277.998 90c-65.333 24.667 -124 39.667 -176 45.001
c-68.667 0 -134.334 -26 -197.001 -78c-62.667 -54 -121.334 -129 -176.001 -225l61 -37c38.667 60 90.667 90 156 90c49.333 0 127.333 -21.667 234 -65c27.333 -10.667 65.333 -24.334 114 -41.001c46.667 -16.667 85 -25 115 -25c134 0 258.333 106.667 373 320l-54 33
c-18.667 -30 -46 -57.333 -82 -82c-30 -16.667 -60 -25 -90 -25z" />
    <glyph glyph-name="oacute" unicode="&#xf3;" horiz-adv-x="2023" 
d="M0 455l-20.001 -77.999l-9 -74c0 -100.667 35.667 -178.334 107 -233.001c70.667 -57.333 167.667 -86 291 -86c190.667 0 381.667 56 573 168c35.333 -57.333 86 -105.333 152 -144c68 -30 137.667 -45 209 -45c111.333 0 245 32.667 401 98
c117.333 49.333 226.666 112.333 327.999 189l-33 37c-87.333 -60 -176 -112 -266 -156c-79.333 -32.667 -147.666 -49 -204.999 -49c-41.333 0 -72.666 9.66699 -93.999 29c-16.667 21.333 -25 50 -25 86c0 32.667 5.33301 66.667 16 102l25 78l373 958l-566 -102
l-299 -787l-24 -94l-12 -90l8 -45l-164 -82c-92.667 -38 -163.667 -57 -213 -57c-76.667 0 -115 38.333 -115 115c0 30 16.333 88.667 49 176l361 974l-553 -102zM1319 2105c-14 -68 -63.333 -149.666 -148 -244.999c-87.333 -98.667 -188.333 -183.334 -303 -254.001h242
c90 10.667 169.333 40.667 238 90l147 110c65.333 36 120 77 164 123l135 176h-475z" />
    <glyph glyph-name="ocircumflex" unicode="&#xf4;" horiz-adv-x="2023" 
d="M0 455l-20.001 -77.999l-9 -74c0 -100.667 35.667 -178.334 107 -233.001c70.667 -57.333 167.667 -86 291 -86c190.667 0 381.667 56 573 168c35.333 -57.333 86 -105.333 152 -144c68 -30 137.667 -45 209 -45c111.333 0 245 32.667 401 98
c117.333 49.333 226.666 112.333 327.999 189l-33 37c-87.333 -60 -176 -112 -266 -156c-79.333 -32.667 -147.666 -49 -204.999 -49c-41.333 0 -72.666 9.66699 -93.999 29c-16.667 21.333 -25 50 -25 86c0 32.667 5.33301 66.667 16 102l25 78l373 958l-566 -102
l-299 -787l-24 -94l-12 -90l8 -45l-164 -82c-92.667 -38 -163.667 -57 -213 -57c-76.667 0 -115 38.333 -115 115c0 30 16.333 88.667 49 176l361 974l-553 -102zM355.999 -486.999c0 -57.333 20.666 -109.333 61.999 -156c40.667 -49.333 96.667 -74 168 -74
c70.667 0 125.334 22 164.001 66c35.333 43.333 53 98 53 164c0 62.667 -19.333 117 -58 163c-38 46.667 -91 70 -159 70c-74 0 -130 -21.667 -168 -65c-41.333 -46.667 -62 -102.667 -62 -168z" />
    <glyph glyph-name="otilde" unicode="&#xf5;" horiz-adv-x="2023" 
d="M295 1241l-295.001 -785.999l-20 -78l-9 -74c0 -100.667 35.667 -178.334 107 -233.001c70.667 -57.333 167.667 -86 291 -86c190.667 0 381.667 56 573 168c35.333 -57.333 86 -105.333 152 -144c68 -30 137.667 -45 209 -45c111.333 0 245 32.667 401 98
c117.333 49.333 226.666 112.333 327.999 189l-33 37c-87.333 -60 -176 -112 -266 -156c-79.333 -32.667 -147.666 -49 -204.999 -49c-41.333 0 -72.666 9.66699 -93.999 29c-16.667 21.333 -25 50 -25 86c0 32.667 5.33301 66.667 16 102l25 78l373 958l-566 -102
l-299 -787l-24 -94l-12 -90l8 -45l-164 -82c-92.667 -38 -163.667 -57 -213 -57c-76.667 0 -115 38.333 -115 115c0 30 16.333 88.667 49 176l361 974zM1901 1597l28 4.99902c52 0 78 -34.333 78 -103c0 -92.667 -54.667 -186.667 -164 -282l17 -25
c43.333 24.667 87 57.334 131 98.001c38 41.333 80.333 83.666 127 126.999l98 94c52 52 78 98.667 78 140c0 54.667 -34.333 106.334 -103 155.001l-307 -176zM1126 2134h-527.999c35.333 -40.667 72.333 -80.334 111 -119c35.333 -38 79 -74.667 131 -110
c84.667 -57.333 163.667 -108 237 -152c112 -65.333 173.667 -102.333 185 -111l254 37c-68.667 19.333 -116.667 38.666 -144 57.999c-2.66699 2.66699 -23 24.334 -61 65.001c-54.667 60 -94.334 116 -119.001 168c-27.333 49.333 -49.333 104 -66 164z" />
    <glyph glyph-name="odieresis" unicode="&#xf6;" horiz-adv-x="2023" 
d="M295 1241l-295.001 -785.999l-20 -78l-9 -74c0 -100.667 35.667 -178.334 107 -233.001c70.667 -57.333 167.667 -86 291 -86c190.667 0 381.667 56 573 168c35.333 -57.333 86 -105.333 152 -144c68 -30 137.667 -45 209 -45c111.333 0 245 32.667 401 98
c117.333 49.333 226.666 112.333 327.999 189l-33 37c-87.333 -60 -176 -112 -266 -156c-79.333 -32.667 -147.666 -49 -204.999 -49c-41.333 0 -72.666 9.66699 -93.999 29c-16.667 21.333 -25 50 -25 86c0 32.667 5.33301 66.667 16 102l25 78l373 958l-566 -102
l-299 -787l-24 -94l-12 -90l8 -45l-164 -82c-92.667 -38 -163.667 -57 -213 -57c-76.667 0 -115 38.333 -115 115c0 30 16.333 88.667 49 176l361 974zM1901 1597l28 4.99902c52 0 78 -34.333 78 -103c0 -92.667 -54.667 -186.667 -164 -282l17 -25
c43.333 24.667 87 57.334 131 98.001c38 41.333 80.333 83.666 127 126.999l98 94c52 52 78 98.667 78 140c0 54.667 -34.333 106.334 -103 155.001l-307 -176zM1212 1954c0 60 30.333 122.667 91 188c57.333 62.667 117.333 94 180 94c48.667 0 73 -20.333 73 -61
s-38 -85.667 -114 -135l-205 -144c-76.667 -62.667 -115 -125.334 -115 -188.001c0 -54.667 20.667 -97 62 -127c22 -13.333 43.667 -21.666 65 -24.999c19.333 -5.33301 44 -8 74 -8l78 4c24.667 6 49.334 13 74.001 21l32 74l-16 12c-52 -52 -99.667 -78 -143 -78
c-30 0 -46.667 13.667 -50 41c0 22 37 57.667 111 107c114.667 76 181.667 123.667 201 143c73.333 62.667 110 128 110 196c0 63.333 -23 115.333 -69 156c-46.667 38 -108.334 57 -185.001 57c-84.667 0 -155.667 -24.333 -213 -73c-51.333 -52 -77 -117.667 -77 -197
l4 -65z" />
    <glyph glyph-name="divide" unicode="&#xf7;" horiz-adv-x="2023" 
d="M295 1241l-295.001 -785.999l-20 -78l-9 -74c0 -100.667 35.667 -178.334 107 -233.001c70.667 -57.333 167.667 -86 291 -86c190.667 0 381.667 56 573 168c35.333 -57.333 86 -105.333 152 -144c68 -30 137.667 -45 209 -45c111.333 0 245 32.667 401 98
c117.333 49.333 226.666 112.333 327.999 189l-33 37c-87.333 -60 -176 -112 -266 -156c-79.333 -32.667 -147.666 -49 -204.999 -49c-41.333 0 -72.666 9.66699 -93.999 29c-16.667 21.333 -25 50 -25 86c0 32.667 5.33301 66.667 16 102l25 78l373 958l-566 -102
l-299 -787l-24 -94l-12 -90l8 -45l-164 -82c-92.667 -38 -163.667 -57 -213 -57c-76.667 0 -115 38.333 -115 115c0 30 16.333 88.667 49 176l361 974zM1901 1597l28 4.99902c52 0 78 -34.333 78 -103c0 -92.667 -54.667 -186.667 -164 -282l17 -25
c43.333 24.667 87 57.334 131 98.001c38 41.333 80.333 83.666 127 126.999l98 94c52 52 78 98.667 78 140c0 54.667 -34.333 106.334 -103 155.001l-307 -176zM1663 2011c-68 -76.667 -136.334 -114.999 -205.001 -114.999c-60 0 -116 11 -168 33
c-136.667 49.333 -226.667 76.666 -270 81.999c-65.333 0 -126.666 -24.667 -183.999 -74c-57.333 -48.667 -116.333 -133.334 -177 -254.001l70 -41c22 24.667 54.667 49.334 98 74.001l111 25c38 0 122.667 -19.333 254 -58c68 -18.667 125.333 -28 172 -28
c79.333 0 154.333 34 225 102c49.333 44 97.333 113.667 144 209z" />
    <glyph glyph-name="oslash" unicode="&#xf8;" horiz-adv-x="2023" 
d="M295 1241l-295.001 -785.999l-20 -78l-9 -74c0 -100.667 35.667 -178.334 107 -233.001c70.667 -57.333 167.667 -86 291 -86c190.667 0 381.667 56 573 168c35.333 -57.333 86 -105.333 152 -144c68 -30 137.667 -45 209 -45c111.333 0 245 32.667 401 98
c117.333 49.333 226.666 112.333 327.999 189l-33 37c-87.333 -60 -176 -112 -266 -156c-79.333 -32.667 -147.666 -49 -204.999 -49c-41.333 0 -72.666 9.66699 -93.999 29c-16.667 21.333 -25 50 -25 86c0 32.667 5.33301 66.667 16 102l25 78l373 958l-566 -102
l-299 -787l-24 -94l-12 -90l8 -45l-164 -82c-92.667 -38 -163.667 -57 -213 -57c-76.667 0 -115 38.333 -115 115c0 30 16.333 88.667 49 176l361 974zM1901 1597l28 4.99902c52 0 78 -34.333 78 -103c0 -92.667 -54.667 -186.667 -164 -282l17 -25
c43.333 24.667 87 57.334 131 98.001c38 41.333 80.333 83.666 127 126.999l98 94c52 52 78 98.667 78 140c0 54.667 -34.333 106.334 -103 155.001l-307 -176zM1360 2146c-14 -68 -63.333 -149.666 -148 -244.999c-87.333 -98.667 -188.333 -183.334 -303 -254.001h242
c90 10.667 169.333 40.667 238 90l147 110c65.333 36 120 77 164 123l135 176h-475z" />
    <glyph glyph-name="ugrave" unicode="&#xf9;" horiz-adv-x="2023" 
d="M295 1241l-295.001 -785.999l-20 -78l-9 -74c0 -100.667 35.667 -178.334 107 -233.001c70.667 -57.333 167.667 -86 291 -86c190.667 0 381.667 56 573 168c35.333 -57.333 86 -105.333 152 -144c68 -30 137.667 -45 209 -45c111.333 0 245 32.667 401 98
c117.333 49.333 226.666 112.333 327.999 189l-33 37c-87.333 -60 -176 -112 -266 -156c-79.333 -32.667 -147.666 -49 -204.999 -49c-41.333 0 -72.666 9.66699 -93.999 29c-16.667 21.333 -25 50 -25 86c0 32.667 5.33301 66.667 16 102l25 78l373 958l-566 -102
l-299 -787l-24 -94l-12 -90l8 -45l-164 -82c-92.667 -38 -163.667 -57 -213 -57c-76.667 0 -115 38.333 -115 115c0 30 16.333 88.667 49 176l361 974zM1901 1597l28 4.99902c52 0 78 -34.333 78 -103c0 -92.667 -54.667 -186.667 -164 -282l17 -25
c43.333 24.667 87 57.334 131 98.001c38 41.333 80.333 83.666 127 126.999l98 94c52 52 78 98.667 78 140c0 54.667 -34.333 106.334 -103 155.001l-307 -176zM445.999 -504c0 -57.333 20.667 -108.999 62 -154.999c40.667 -49.333 96.667 -74 168 -74
c70.667 0 124 21.667 160 65c16 19.333 28 44 36 74c6 27.333 9 61.333 9 102c0 41.333 -1.33301 71.666 -4 90.999c-6 16 -19.667 36.333 -41 61c-38.667 46.667 -92 70 -160 70c-74 0 -130 -22 -168 -66c-41.333 -46.667 -62 -102.667 -62 -168z" />
    <glyph glyph-name="uacute" unicode="&#xfa;" 
d="M25 537c-33.333 -106.667 -50.001 -187.333 -50.001 -242c0 -84.667 31.667 -150.334 95 -197.001c62.667 -48.667 148.667 -73 258 -73c57.333 0 99.666 2.66699 126.999 8c24.667 2.66699 58.667 10.667 102 24l274 111l-94 -250
c-169.333 -27.333 -297.666 -68.333 -384.999 -123c-79.333 -54.667 -119 -123 -119 -205c0 -46 24.667 -88.333 74 -127c49.333 -32.667 115 -49 197 -49c166.667 0 319.667 45 459 135c138.667 90.667 236.667 216.334 294 377.001
c232.667 54.667 474.334 162.667 725.001 324l-20 61c-186 -128 -412.667 -231.667 -680 -311l479 1360l-536 -94l-353 -971c-30 -30 -76.333 -62.667 -139 -98c-84.667 -46.667 -148.667 -70 -192 -70c-63.333 0 -95 38.333 -95 115l33 135l352 991l-536 -102z
M425.999 -519.999c-71.333 0 -106.999 36.667 -106.999 110c0 74 50.667 135.667 152 185l258 82l-106 -238c-54.667 -92.667 -120.334 -139 -197.001 -139zM541 2134l196 -188c36 -30 90.667 -72.333 164 -127l201 -156h192c-73.333 109.333 -122.333 190 -147 242l-78 229
h-528z" />
    <glyph glyph-name="ucircumflex" unicode="&#xfb;" 
d="M295 1266l-270.001 -728.999c-33.333 -106.667 -50 -187.334 -50 -242.001c0 -84.667 31.667 -150.334 95 -197.001c62.667 -48.667 148.667 -73 258 -73c57.333 0 99.666 2.66699 126.999 8c24.667 2.66699 58.667 10.667 102 24l274 111l-94 -250
c-169.333 -27.333 -297.666 -68.333 -384.999 -123c-79.333 -54.667 -119 -123 -119 -205c0 -46 24.667 -88.333 74 -127c49.333 -32.667 115 -49 197 -49c166.667 0 319.667 45 459 135c138.667 90.667 236.667 216.334 294 377.001
c232.667 54.667 474.334 162.667 725.001 324l-20 61c-186 -128 -412.667 -231.667 -680 -311l479 1360l-536 -94l-353 -971c-30 -30 -76.333 -62.667 -139 -98c-84.667 -46.667 -148.667 -70 -192 -70c-63.333 0 -95 38.333 -95 115l33 135l352 991zM728.999 -142.999
l-105.999 -238c-54.667 -92.667 -120.334 -139 -197.001 -139c-71.333 0 -107 36.667 -107 110c0 74 50.667 135.667 152 185zM1319 2331c54.667 0 82 -24.668 82 -74.001c0 -41.333 -79.333 -113.666 -238 -217c-158 -106.667 -237 -205 -237 -295
c0 -65.333 19 -111.666 57 -138.999c46.667 -27.333 100 -41 160 -41s116 10.667 168 32l32 86l-16 9c-54.667 -57.333 -106.667 -86 -156 -86c-32.667 0 -50.334 15 -53.001 45c0 24.667 78 87.334 234 188.001c152.667 101.333 229 203.666 229 306.999
c0 66 -27.333 120.667 -82 164c-30 22 -58.667 38.333 -86 49c-30 11.333 -68.333 17 -115 17c-95.333 0 -171.666 -27.333 -228.999 -82s-86 -127 -86 -217v-70l45 4c0 68.667 32.667 139.667 98 213c66 71.333 130.333 107 193 107z" />
    <glyph glyph-name="udieresis" unicode="&#xfc;" 
d="M25 537c-33.333 -106.667 -50.001 -187.333 -50.001 -242c0 -84.667 31.667 -150.334 95 -197.001c62.667 -48.667 148.667 -73 258 -73c57.333 0 99.666 2.66699 126.999 8c24.667 2.66699 58.667 10.667 102 24l274 111l-94 -250
c-169.333 -27.333 -297.666 -68.333 -384.999 -123c-79.333 -54.667 -119 -123 -119 -205c0 -46 24.667 -88.333 74 -127c49.333 -32.667 115 -49 197 -49c166.667 0 319.667 45 459 135c138.667 90.667 236.667 216.334 294 377.001
c232.667 54.667 474.334 162.667 725.001 324l-20 61c-186 -128 -412.667 -231.667 -680 -311l479 1360l-536 -94l-353 -971c-30 -30 -76.333 -62.667 -139 -98c-84.667 -46.667 -148.667 -70 -192 -70c-63.333 0 -95 38.333 -95 115l33 135l352 991l-536 -102z
M425.999 -519.999c-71.333 0 -106.999 36.667 -106.999 110c0 74 50.667 135.667 152 185l258 82l-106 -238c-54.667 -92.667 -120.334 -139 -197.001 -139zM1479 1974c-32.667 0 -125.666 30.001 -278.999 90.001c-65.333 24.667 -124 39.667 -176 45
c-68 0 -133.667 -25.667 -197 -77c-62.667 -54.667 -121.334 -130 -176.001 -226l62 -37c38 60.667 89.667 91 155 91c49.333 0 127.333 -22 234 -66c27.333 -10.667 65.666 -24.334 114.999 -41.001c46 -16 84 -24 114 -24c134 0 258.333 106.333 373 319l-53 33
c-19.333 -30 -46.666 -57.333 -81.999 -82c-30 -16.667 -60 -25 -90 -25z" />
    <glyph glyph-name="yacute" unicode="&#xfd;" 
d="M295 1266l-270.001 -728.999c-33.333 -106.667 -50 -187.334 -50 -242.001c0 -84.667 31.667 -150.334 95 -197.001c62.667 -48.667 148.667 -73 258 -73c57.333 0 99.666 2.66699 126.999 8c24.667 2.66699 58.667 10.667 102 24l274 111l-94 -250
c-169.333 -27.333 -297.666 -68.333 -384.999 -123c-79.333 -54.667 -119 -123 -119 -205c0 -46 24.667 -88.333 74 -127c49.333 -32.667 115 -49 197 -49c166.667 0 319.667 45 459 135c138.667 90.667 236.667 216.334 294 377.001
c232.667 54.667 474.334 162.667 725.001 324l-20 61c-186 -128 -412.667 -231.667 -680 -311l479 1360l-536 -94l-353 -971c-30 -30 -76.333 -62.667 -139 -98c-84.667 -46.667 -148.667 -70 -192 -70c-63.333 0 -95 38.333 -95 115l33 135l352 991zM728.999 -142.999
l-105.999 -238c-54.667 -92.667 -120.334 -139 -197.001 -139c-71.333 0 -107 36.667 -107 110c0 74 50.667 135.667 152 185zM1380 2146c-13.333 -68 -62.333 -149.666 -147 -244.999c-87.333 -98.667 -188.333 -183.334 -303 -254.001h241
c90.667 10.667 170 40.667 238 90l147 110c66 36 120.667 77 164 123l135 176h-475z" />
    <glyph glyph-name="thorn" unicode="&#xfe;" 
d="M25 537c-33.333 -106.667 -50.001 -187.333 -50.001 -242c0 -84.667 31.667 -150.334 95 -197.001c62.667 -48.667 148.667 -73 258 -73c57.333 0 99.666 2.66699 126.999 8c24.667 2.66699 58.667 10.667 102 24l274 111l-94 -250
c-169.333 -27.333 -297.666 -68.333 -384.999 -123c-79.333 -54.667 -119 -123 -119 -205c0 -46 24.667 -88.333 74 -127c49.333 -32.667 115 -49 197 -49c166.667 0 319.667 45 459 135c138.667 90.667 236.667 216.334 294 377.001
c232.667 54.667 474.334 162.667 725.001 324l-20 61c-186 -128 -412.667 -231.667 -680 -311l479 1360l-536 -94l-353 -971c-30 -30 -76.333 -62.667 -139 -98c-84.667 -46.667 -148.667 -70 -192 -70c-63.333 0 -95 38.333 -95 115l33 135l352 991l-536 -102z
M425.999 -519.999c-71.333 0 -106.999 36.667 -106.999 110c0 74 50.667 135.667 152 185l258 82l-106 -238c-54.667 -92.667 -120.334 -139 -197.001 -139zM1266 -462.999c0 -57.333 20.334 -108.999 61.001 -154.999c41.333 -49.333 97.333 -74 168 -74
c71.333 0 124.666 21.667 159.999 65c16 19.333 28.333 44 37 74c5.33301 27.333 8 61.333 8 102c0 41.333 -1.33301 71.666 -4 90.999c-5.33301 16 -19 36.333 -41 61c-38.667 46.667 -92 70 -160 70c-74 0 -130 -22 -168 -66c-40.667 -46.667 -61 -102.667 -61 -168z" />
    <glyph glyph-name="OE" unicode="&#x152;" horiz-adv-x="2576" 
 />
    <glyph glyph-name="oe" unicode="&#x153;" horiz-adv-x="3465" 
 />
    <glyph glyph-name="Scaron" unicode="&#x160;" horiz-adv-x="2359" 
d="M815 1987c71.333 0 207.997 -12.333 409.997 -37l237 -21c142 0 286.667 15 434 45c76.667 14 154.667 32 234.001 54c76.667 21.333 150.334 47 221.001 77c-166.667 -92.667 -307.334 -211.334 -422.001 -356.001c-90 -109.333 -173.333 -255.333 -250 -438l-192 -512
c-114.667 40.667 -232 73.334 -352 98.001c-131.333 22 -251.666 33 -360.999 33c-221.333 0 -398.833 -46.5 -532.5 -139.5s-200.5 -217.167 -200.5 -372.5c0 -136.667 58.667 -248.667 176 -336c114.667 -87.333 269 -131 463 -131c286.667 0 536.667 53.333 750 160
c210 106 387.333 276.667 532 512c76.667 -22 147.667 -52.333 213.001 -91c35.333 -21.333 68 -43 98 -65c19.333 -14 45.333 -36 78 -66l41 127l-205 103l-188 65c73.333 153.333 143 351.333 209 594c122.667 494.667 208.667 787 258 877
c-54.667 0 -147.667 9.33301 -279 28c-133.333 19.333 -297 49.666 -491 91c-196.667 38 -353.667 57 -471 57c-497.333 0 -836 -226.667 -1016 -680l78 -25c40.667 126 111.667 219 213 279c84.667 46.667 189.667 70 315 70zM613.997 41c-130.667 0 -244 32.667 -340 98
c-98 66 -147 142.667 -147 230c0 125.333 72.333 230.333 217 315c142 82 329 123 561 123c229.333 0 412.333 -23.333 549 -70c-218.667 -464 -498.667 -696 -840 -696zM2212 2998c40.667 36 89.666 54 146.999 54c71.333 0 128.666 -26 172 -78
c36 -41.333 54 -90.666 54 -148c0 -70.667 -26 -128 -78 -172c-41.333 -35.333 -90.666 -53 -147.999 -53c-68 0 -124 21.667 -168 65c-38 46.667 -57 100 -57 160c0 71.333 26 128.666 78 172zM1548 3023c41.333 35.333 90.667 53 148 53c70.667 0 128 -26 172 -78
c35.333 -40.667 53 -89.667 53 -147c0 -71.333 -26 -128.666 -78 -172c-40.667 -35.333 -89.667 -53 -147 -53c-68.667 0 -124.667 21.667 -168 65c-38.667 46.667 -58 100 -58 160c0 70.667 26 128 78 172z" />
    <glyph glyph-name="scaron" unicode="&#x161;" horiz-adv-x="3465" 
d="M209 840c0 281.333 166.665 589.667 499.998 925c330 333.333 633 500 909 500c92.667 0 139 -34 139 -102c0 -30 -12.333 -68.333 -37 -115l-704 -1360c-49.333 -98 -74 -205.667 -74 -323c0 -123.333 31.333 -224.666 94 -303.999c60 -78.667 157 -118 291 -118
c166.667 0 340 106.333 520 319c76.667 92.667 197 271.667 361 537c112 177.333 237.667 395.666 377 654.999l344 668l16 -8l-594 -1274l-94 -262c-10.667 -38.667 -20.334 -78.334 -29 -119.001c-8 -44 -12 -79.667 -12 -107c0 -122.667 53.333 -221 160 -295
c103.333 -76 239.666 -114 409 -114c114.667 0 225.334 19 332 57c122.667 35.333 238.667 83 348 143v66l-319 -123c-106.667 -40.667 -206.334 -61 -299 -61c-54.667 0 -98.334 12 -131 36c-24.667 24.667 -37 59 -37 103c0 38 2.66699 65.333 8 82l41 114l848 1946
l-656 -90c-35.333 -76.667 -85.666 -177.667 -150.999 -303c-65.333 -128.667 -140.333 -268 -225 -418l-328 -549c-101.333 -164 -198.333 -308.667 -291 -434c-240 -330.667 -417.333 -496 -532 -496c-38.667 0 -58 19.333 -58 58c0 18.667 5.66699 39 17 61
c8 27.333 18.667 49.333 32 66l775 1577c48.667 87.333 73 174.666 73 261.999c0 202 -167.667 303 -503 303c-393.333 0 -767.666 -132.333 -1123 -397c-180 -131.333 -323.333 -281.666 -430 -450.999c-106.667 -172 -160 -334.333 -160 -487
c0 -60 5.5 -114.667 16.5 -164s32.833 -105.333 65.5 -168c60 -120 144.667 -244.333 254 -373l58 41c-71.333 90 -122 174.667 -152 254c-32.667 76.667 -49 157.334 -49 242.001zM2900 3072c40.667 35.333 89.667 52.999 147 52.999c71.333 0 128.666 -26 172 -78
c36 -40.667 54 -89.667 54 -147c0 -71.333 -26 -128.666 -78 -171.999c-41.333 -35.333 -90.666 -53 -148 -53c-68 0 -124 21.667 -168 65c-38 46.667 -57 100 -57 160c0 70.667 26 128 78 172zM2236 3072c41.333 35.333 90.666 53 148 53c70.667 0 128 -26 172 -78
c35.333 -40.667 53 -89.667 53 -147c0 -71.333 -26 -128.666 -78 -172c-40.667 -35.333 -89.667 -53 -147 -53c-68.667 0 -124.667 21.667 -168 65c-38 46.667 -57 100 -57 160c0 70.667 25.667 128 77 172z" />
    <glyph glyph-name="Ydieresis" unicode="&#x178;" 
 />
    <glyph glyph-name="florin" unicode="&#x192;" horiz-adv-x="3351" 
 />
    <glyph glyph-name="circumflex" unicode="&#x2c6;" horiz-adv-x="2281" 
d="M2040 1991c0 106 -50.668 195.997 -152.001 269.997c-100.667 70.667 -229 106 -385 106c-194 0 -349.667 -54.333 -467 -163c-120 -109.333 -180 -251.333 -180 -426c0 -79.333 16.333 -164 49 -254l119 -258c0 -38.667 -37 -58 -111 -58
c-248 0 -463.667 -51.667 -647 -155c-226.667 -128.667 -340 -311.667 -340 -549c0 -183.333 87.333 -326.666 262 -429.999c175.333 -104 414.333 -156 717 -156c295.333 0 556.333 54.667 783 164c142 68 255.333 148.667 340 242c81.333 92.667 122 192.334 122 299.001
c0 117.333 -68 226.333 -204 327l-25 -45c22 -16 38.333 -37.667 49 -65l17 -74c0 -46.667 -15 -96 -45 -148c-30.667 -54 -70.334 -108.333 -119.001 -163c-123.333 -136.667 -269.666 -248.667 -438.999 -336c-172 -90 -331.667 -135 -479 -135
c-120 0 -219.667 38 -299 114c-79.333 74 -119 172.333 -119 295c0 142 42.333 269 127 381s229.667 226.667 435 344c54 32.667 99 87.334 135 164.001l82 205c73.333 224 132 377 176 459c98 207.333 196.333 311 295 311c90 0 135 -47.667 135 -143
c0 -93.333 -45 -206.666 -135 -339.999c-93.333 -136.667 -202.666 -244.667 -327.999 -324l41 -57c393.333 155.333 590 354.666 590 597.999zM1720 2998c41.333 36 90.667 54.001 148 54.001c70.667 0 128 -26 172 -78c35.333 -41.333 53 -90.666 53 -148
c0 -70.667 -26 -128 -78 -172c-40.667 -35.333 -89.667 -53 -147 -53c-68.667 0 -124.667 21.667 -168 65c-38.667 46.667 -58 100 -58 160c0 71.333 26 128.666 78 171.999zM1081 2998c41.333 36 90.667 54 148 54c70.667 0 128 -26 172 -78
c35.333 -41.333 53 -90.666 53 -148c0 -70.667 -26 -128 -78 -172c-40.667 -35.333 -89.667 -53 -147 -53c-68.667 0 -124.667 21.667 -168 65c-38 46.667 -57 100 -57 160c0 71.333 25.667 128.666 77 172z" />
    <glyph glyph-name="tilde" unicode="&#x2dc;" horiz-adv-x="3465" 
 />
    <glyph glyph-name="endash" unicode="&#x2013;" horiz-adv-x="1769" 
d="M16 1040h1704v295h-1704v-295z" />
    <glyph glyph-name="emdash" unicode="&#x2014;" horiz-adv-x="770" 
d="M655 799h-680l-168 -221h689z" />
    <glyph glyph-name="quoteleft" unicode="&#x2018;" horiz-adv-x="991" 
d="M967 2572h-41c-90 0 -135 56 -135 168c0 71.333 24.333 149.333 73 234c46.667 82 116.334 162.333 209.001 241l-33 37c-166 -98 -313.333 -204.333 -442 -319c-186 -169.333 -279 -315.666 -279 -439c0 -46 11 -89.667 33 -131
c27.333 -40.667 69.666 -85.667 126.999 -135l520 291z" />
    <glyph glyph-name="quoteright" unicode="&#x2019;" horiz-adv-x="991" 
d="M438 2925l49 8c84.667 0 127 -56 127 -168c0 -158.667 -90 -315.667 -270 -471l25 -41c163.333 90 312 197.667 446 323c186 169.333 279 315.666 279 439c0 95.333 -56 182.666 -168 262l-512 -295z" />
    <glyph glyph-name="quotesinglbase" unicode="&#x201a;" horiz-adv-x="3351" 
 />
    <glyph glyph-name="quotedblleft" unicode="&#x201c;" horiz-adv-x="1475" 
d="M795 2597h-41c-90.667 0 -136 56 -136 168c0 70.667 24.667 148.334 74 233c46.667 82 116.334 162.667 209.001 242l-33 37c-166.667 -98.667 -314 -205.334 -442 -320c-186 -169.333 -279 -315.333 -279 -438c0 -46.667 11 -90.334 33 -131
c27.333 -40.667 69.666 -85.667 126.999 -135l520 291zM1655 2621h-40.999c-90 0 -135 56 -135 168c0 71.333 24.333 149.333 73 234c46.667 82 116.334 162.667 209.001 242l-32 36c-166.667 -98 -314.334 -204.333 -443.001 -319
c-185.333 -169.333 -278 -315.333 -278 -438c0 -46.667 10.667 -90.334 32 -131c27.333 -41.333 69.666 -86.666 126.999 -136l521 291z" />
    <glyph glyph-name="quotedblright" unicode="&#x201d;" horiz-adv-x="1475" 
d="M860 2519c0 -40.667 -11.001 -81.667 -33.001 -123c-21.333 -40.667 -63.666 -88.334 -126.999 -143l-520 291l33 53h41c90 0 135 56 135 168c0 70.667 -23.333 148.334 -70 233c-48.667 82 -119.667 162.667 -213 242l33 37c169.333 -98.667 317 -205.334 443 -320
c185.333 -169.333 278 -315.333 278 -438zM1720 2494c0 -40.667 -10.832 -81.5 -32.499 -122.5s-63.834 -88.833 -126.501 -143.5l-521 291l33 53h41c90 0 135 56 135 168c0 71.333 -23 149.333 -69 234c-49.333 82 -120.333 162.333 -213 241l32 37
c169.333 -98 317 -204.333 443 -319c185.333 -169.333 278 -315.666 278 -439z" />
    <glyph glyph-name="quotedblbase" unicode="&#x201e;" horiz-adv-x="3351" 
d="M3330 1167l-155.999 -20l-188 -4l229 610l45 148l21 159c0 84.667 -23.333 154.334 -70 209c-46 54.667 -123.667 82 -233 82c-208 0 -415.667 -154.333 -623 -463c-100.667 -152.667 -227.667 -401 -381 -745l-422 8l-311 8c-161.333 0 -306 -8 -434 -24
c-74 -8.66699 -137 -18.334 -189 -29.001c-54 -14 -118 -36 -192 -66c-158.667 -57.333 -283 -139 -373 -245c-92.667 -106.667 -139 -225.667 -139 -357c0 -142 62.667 -256.667 188 -344c123.333 -90 288.666 -135 495.999 -135c314 0 588.333 87.333 823 262
c232 172 446.333 448 643 828l156 -9l156 -8l-201 -520l-33 -111l-20 -139c0 -95.333 41 -171.666 123 -228.999c78.667 -60 189 -90 331 -90c260 0 515.333 86 766 258v86c-100.667 -74 -201.667 -131.333 -303 -172c-103.333 -44 -188 -66 -254 -66
c-57.333 0 -94 12.333 -110 37c-19.333 22 -29 59 -29 111v65l299 770c60 0 107.667 -2.66699 143 -8h152zM1929 1057c-130.667 -292.667 -304 -531.667 -520 -717c-216 -188.667 -427.667 -283 -635 -283c-114.667 0 -208.667 34.333 -282 103
c-76.667 65.333 -115 155.333 -115 270c0 216 99.667 386.667 299 512c169.333 104 371.333 156 606 156c213.333 0 429 -13.667 647 -41zM2417 1135l-127 -9l-185 9l283 606c117.333 221.333 252.333 396 405 524h25v-65zM2953 3064
c-65.333 -153.333 -180 -310.333 -344 -471h127l103 90l167 156l328 -246h139c-78.667 144.667 -134.667 301.667 -168 471h-352z" />
    </font>
</defs>
</svg>
